<svg xmlns="http://www.w3.org/2000/svg" width="751" height="751" fill="none" viewBox="0 0 751 751">
  <g clip-path="url(#a)">
    <mask id="b" width="705" height="624" x="23" y="-23" maskUnits="userSpaceOnUse" style="mask-type:luminance">
      <path fill="#fff" d="M23.026-22.238h704.93v622.433H23.026V-22.238ZM374.72 500.598s47.995 1.278 71.806 4.068c17.563 2.058 52.223 9.323 52.223 9.323s-32.533-12.613-49.425-16.781c-17.416-4.298-53.155-8.391-53.155-8.391l101.733-70.214 91.303-21.15-70.873 10.255 44.762-35.427 42.897-18.646-34.038 4.661 76.003-58.734-68.076 34.495 8.393-34.495s-12.404 36.004-24.246 52.675c-16.615 23.388-43.895 38.998-61.548 52.208-40.449 30.266-114.703 66.659-114.703 66.659l-3.964-99.989c.984-43.068 54.851-102.59 73.147-140.088l-71.434 96.964-1.48-92.524 16.786-11.42 40.1-34.495-56.886 34.495-1.865-46.615 20.516-51.276-23.313 39.156-4.663-62.463-.933 110.942-25.178-39.156 25.178 57.802-3.73 73.651-41.032-57.802-33.571-51.276s34.258 66.526 48.671 92.702c11.029 20.03 24.016 25.328 26.865 46.209 1.356 9.94 0 137.98 0 137.98-83.068-42.417-72.677-43.516-110.289-67.756 0 0-43.023-35.948-53.839-49.157-10.239-12.505-23.314-42.509-23.314-42.509l4.606 28.359-69.884-43.276 82.064 67.125-40.099-1.865 55.02 14.917 38.234 32.63-58.75 5.594 76.469 4.661 90.456 67.125c-19.736 2.819-39.406 1.777-58.75 6.527l-53.155 13.052s35.388-4.273 53.155-5.594c23.892-1.777 71.806-3.136 71.806-3.136Z"/>
    </mask>
    <g mask="url(#b)">
      <path fill="#fff" stroke="#fff" stroke-linecap="square" stroke-miterlimit="100" stroke-width=".484" d="M459.149 576.567s-15.481-26.715-5.729-37.038c22.062-23.353 133.84-2.812 152.574-1.961 15.426.701 29.733 6.831 31.68 2.411 3.362-7.635-17.573-4.059-38.132-11.655-15.389-5.685-101.986-36.017-93.638-50.748 30.586-53.972 183.714-74.282 183.714-74.282s-49.65-5.503-44.438-20.08c7.554-21.127 48.695-40.227 48.695-40.227s-18.622 10.262-25.279-7.101c-11.814-30.816 35.238-92.431 35.238-92.431s-46.761 44.188-75.415 29.184c-16.31-8.541 9.683-61.213 9.683-61.213S501.539 314.515 481.953 318.802c-28.375 6.211-38.671.377-12.478-50.376 19.818-38.403 28.88-140.304 28.88-140.304s-29.511 36.1-49.46 22.648c-26.048-17.565-21.85-74.99-21.85-74.99s-3.531 18.397-23.74 7.183c-25.678-14.249-27.468-71.461-27.468-71.461s-1.79 55.71-27.468 69.96c-20.209 11.213-21.875-9.047-21.875-9.047s9.014 56.784-17.034 74.349c-19.949 13.452-47.789-24.318-47.789-24.318s.71 106.076 20.528 144.479c26.193 50.753 27.59 56.587-.785 50.376-19.587-4.288-167.842-107.376-167.842-107.376s25.993 52.672 9.683 61.212c-28.654 15.004-75.415-29.183-75.415-29.183s51.055 63.464 35.238 92.431c-4.853 8.887-21.103 1.256-21.103 1.256s54.504 34.129 62.058 55.257c5.212 14.577-47.779 20.079-47.779 20.079s138.93 11.126 169.516 65.098c8.281 14.613-79.424 49.498-93.834 51.228-11.32 1.358-32.819 5.146-32.313 8.99.53 4.026 13.29 4.991 18.907 2.717 16.779-6.794 136.795-25.253 159.724-.982 9.752 10.323 3.458 30.358 3.458 30.358s45.986-44.806 78.301-44.185c30.753.591 79.136 52.366 79.136 52.366Z"/>
    </g>
    <path fill="#fff" stroke="#fff" stroke-linecap="square" stroke-miterlimit="100" stroke-width=".543" d="M377.915 503c-.004-.012-6.064 3.001-7.061 13.087-3.165 32.02-7.258 66.564 9.662 114.862C392.65 665.589 416.385 732 416.385 732L431 711.603s-23.572-50.221-37.872-91.432C377.106 574 377.915 503 377.915 503Z"/>
  </g>
  <defs>
    <clipPath id="a">
      <path fill="#fff" d="M0 0h751v751H0z"/>
    </clipPath>
  </defs>
</svg>
