<svg width="67" height="64" viewBox="0 0 67 64" fill="none" xmlns="http://www.w3.org/2000/svg">
<path fill-rule="evenodd" clip-rule="evenodd" d="M34.214 0C34.3181 0.0162388 34.4217 0.0385671 34.5266 0.0477455C35.5546 0.137897 36.5856 0.203779 37.6105 0.319348C39.3674 0.517434 41.0892 0.892294 42.774 1.40774C50.86 3.88133 57.1513 8.58285 61.5529 15.5977C63.6102 18.8763 64.9709 22.4187 65.7032 26.1884C66.1699 28.591 66.3496 31.0136 66.2291 33.4512C65.6949 44.2483 59.621 54.2101 49.6228 59.7449C46.4692 61.4906 43.1079 62.7022 39.5454 63.3918C36.9288 63.8982 34.2835 64.084 31.6197 63.9655C28.3864 63.8218 25.2438 63.216 22.1837 62.1915C18.3429 60.9057 14.8687 58.9987 11.7694 56.467C7.48856 52.97 4.33357 48.6861 2.2778 43.6483C1.44774 41.6142 0.836806 39.5185 0.471496 37.3625C0.292862 36.3086 0.184375 35.2416 0.0927049 34.1765C0.0215987 33.3502 -0.0168766 32.5168 0.00716053 31.6886C0.0390121 30.5892 0.110254 29.4882 0.227241 28.3942C0.560471 25.2788 1.41571 22.2917 2.68497 19.4132C3.97142 16.4957 5.67138 13.821 7.78917 11.3988C10.6571 8.11855 14.0746 5.50058 18.0307 3.5401C20.8261 2.15481 23.7668 1.16606 26.8518 0.600437C27.9895 0.391805 29.1468 0.280339 30.2976 0.143766C30.7796 0.0865774 31.268 0.0810615 31.7532 0.0480103C31.8581 0.0408617 31.9618 0.0164594 32.0661 0C32.7821 0 33.498 0 34.214 0ZM55.138 24.8864C55.1144 24.2834 55.105 23.6143 55.058 22.9475C55.0004 22.1299 54.9238 21.313 54.8329 20.4981C54.6927 19.2407 54.4313 18.0041 54.1049 16.7796C52.5959 11.1176 49.584 6.38065 44.8265 2.71823C44.6258 2.56378 44.4266 2.37797 44.1932 2.29743C40.8818 1.15503 37.469 0.520832 33.9503 0.438226C32.2993 0.399483 30.6561 0.480853 29.0169 0.689221C27.6199 0.866789 26.2378 1.11262 24.8774 1.45999C19.4651 2.84214 14.7153 5.38452 10.6394 9.09248C7.30472 12.1262 4.77301 15.6995 2.99896 19.7732C1.89444 22.3094 1.11575 24.9379 0.759669 27.6708C0.607403 28.8394 0.495992 30.0169 0.4481 31.1934C0.382066 32.815 0.480866 34.4341 0.702638 36.0461C0.883146 37.3577 1.13366 38.6546 1.48494 39.9328C3.26168 46.3976 6.7823 51.8073 12.0499 56.1485C14.4882 58.158 17.1983 59.7584 20.1411 60.982C22.1318 61.8098 21.9237 61.758 24.1437 61.7837C24.6834 61.7899 25.2235 61.7575 25.7634 61.7435C26.9414 61.713 28.1003 61.5304 29.2468 61.2891C31.8269 60.7462 34.2483 59.8036 36.5288 58.5211C40.3941 56.3472 43.5773 53.4403 46.2702 50.0182C49.5845 45.8062 51.9419 41.1293 53.4597 36.0529C54.0053 34.2282 54.4428 32.3791 54.6968 30.4941C54.8355 29.4643 54.9636 28.4319 55.0489 27.397C55.1158 26.5849 55.1096 25.7672 55.138 24.8864Z" fill="black"/>
</svg>
