<svg width="293" height="64" viewBox="0 0 293 64" fill="none" xmlns="http://www.w3.org/2000/svg">
<path fill-rule="evenodd" clip-rule="evenodd" d="M292.075 23.542C290.384 23.542 288.692 23.542 286.908 23.542C286.908 30.3313 286.908 37.0471 286.908 43.8163C286.131 43.8163 285.446 43.8163 284.664 43.8163C284.645 43.5001 284.608 43.174 284.608 42.8481C284.604 36.7418 284.591 30.6353 284.622 24.5292C284.626 23.7455 284.421 23.4792 283.586 23.5217C282.222 23.5912 280.851 23.5405 279.427 23.5405C279.427 22.8499 279.427 22.2376 279.427 21.5059C283.653 21.5059 287.864 21.5059 292.075 21.5059C292.075 22.1846 292.075 22.8634 292.075 23.542Z" fill="black"/>
<path fill-rule="evenodd" clip-rule="evenodd" d="M274.87 21.5488C274.87 22.2014 274.87 22.8154 274.87 23.5197C273.188 23.5197 271.532 23.5197 269.783 23.5197C269.783 30.3245 269.783 37.0407 269.783 43.8129C269.005 43.8129 268.32 43.8129 267.535 43.8129C267.515 43.5053 267.477 43.18 267.476 42.8548C267.473 36.7738 267.474 30.693 267.473 24.6121C267.473 23.5416 267.471 23.5422 266.38 23.5399C265.114 23.5371 263.849 23.5341 262.583 23.5272C262.506 23.5267 262.43 23.492 262.297 23.4594C262.297 22.853 262.297 22.2403 262.297 21.5488C266.483 21.5488 270.656 21.5488 274.87 21.5488Z" fill="black"/>
<path fill-rule="evenodd" clip-rule="evenodd" d="M257.407 43.8695C256.758 43.8695 256.196 43.8338 255.64 43.8803C255.172 43.9196 254.975 43.7068 254.801 43.3353C253.789 41.1771 252.743 39.0337 251.746 36.8688C251.517 36.3727 251.252 36.1745 250.67 36.1809C247.789 36.2128 244.907 36.2124 242.026 36.1807C241.47 36.1746 241.221 36.3684 241.008 36.8334C240.038 38.9527 239.017 41.0501 238.053 43.1724C237.817 43.6933 237.545 43.9563 236.926 43.8819C236.423 43.8214 235.906 43.8697 235.271 43.8697C235.385 43.5801 235.462 43.3497 235.565 43.1301C238.96 35.8692 242.358 28.6091 245.756 21.3495C245.778 21.302 245.798 21.25 245.833 21.2123C246.029 20.9993 246.229 20.7898 246.428 20.5791C246.605 20.7818 246.842 20.9586 246.952 21.1913C248.079 23.5852 249.188 25.9875 250.299 28.3886C252.565 33.2858 254.83 38.1834 257.093 43.0817C257.2 43.3134 257.283 43.5555 257.407 43.8695ZM242.383 33.9331C245.121 33.9331 247.685 33.9331 250.387 33.9331C249.054 31.073 247.771 28.3197 246.402 25.3817C245.02 28.3228 243.725 31.0777 242.383 33.9331Z" fill="black"/>
<path fill-rule="evenodd" clip-rule="evenodd" d="M227.926 43.9886C222.823 38.3243 217.719 32.6601 212.615 26.9958C212.551 27.0229 212.486 27.0499 212.422 27.077C212.422 32.6404 212.422 38.2038 212.422 43.8179C211.639 43.8179 210.953 43.8179 210.203 43.8179C210.203 36.3973 210.203 28.9798 210.203 21.2866C210.606 21.6306 210.887 21.8204 211.104 22.0631C215.821 27.3212 220.53 32.5854 225.241 37.848C225.434 38.0638 225.631 38.2764 225.983 38.6634C226.008 38.1974 226.036 37.9128 226.036 37.6283C226.039 32.5918 226.038 27.5555 226.038 22.519C226.038 21.4705 226.039 21.4705 227.143 21.4708C227.463 21.471 227.782 21.4708 228.169 21.4708C228.169 28.9663 228.169 36.3885 228.169 43.8105C228.088 43.8697 228.007 43.9291 227.926 43.9886Z" fill="black"/>
<path fill-rule="evenodd" clip-rule="evenodd" d="M201.347 43.8337C200.582 43.8337 199.92 43.8337 199.17 43.8337C199.15 43.5437 199.114 43.2688 199.114 42.9936C199.111 36.1326 199.108 29.2715 199.122 22.4105C199.123 22.1096 199.252 21.5659 199.378 21.5497C199.979 21.4724 200.603 21.5125 201.209 21.5859C201.285 21.595 201.341 22.0504 201.342 22.2991C201.349 26.734 201.347 31.169 201.347 35.6039C201.347 38.056 201.347 40.5083 201.347 42.9606C201.347 43.2398 201.347 43.5192 201.347 43.8337Z" fill="black"/>
<path fill-rule="evenodd" clip-rule="evenodd" d="M144.928 0C145.032 0.0162388 145.136 0.0385671 145.24 0.0477455C146.269 0.137897 147.299 0.203779 148.324 0.319348C150.081 0.517434 151.803 0.892294 153.488 1.40774C161.574 3.88133 167.865 8.58285 172.267 15.5977C174.324 18.8763 175.685 22.4187 176.417 26.1884C176.884 28.591 177.063 31.0136 176.943 33.4512C176.409 44.2483 170.335 54.2101 160.337 59.7449C157.183 61.4906 153.822 62.7022 150.259 63.3918C147.643 63.8982 144.997 64.084 142.334 63.9655C139.1 63.8218 135.958 63.216 132.898 62.1915C129.057 60.9057 125.583 58.9987 122.483 56.467C118.202 52.97 115.047 48.6861 112.992 43.6483C112.162 41.6142 111.551 39.5185 111.185 37.3625C111.007 36.3086 110.898 35.2416 110.807 34.1765C110.735 33.3502 110.697 32.5168 110.721 31.6886C110.753 30.5892 110.824 29.4882 110.941 28.3942C111.274 25.2788 112.13 22.2917 113.399 19.4132C114.685 16.4957 116.385 13.821 118.503 11.3988C121.371 8.11855 124.788 5.50058 128.745 3.5401C131.54 2.15481 134.481 1.16606 137.566 0.600437C138.703 0.391805 139.861 0.280339 141.012 0.143766C141.493 0.0865774 141.982 0.0810615 142.467 0.0480103C142.572 0.0408617 142.676 0.0164594 142.78 0C143.496 0 144.212 0 144.928 0ZM165.852 24.8864C165.828 24.2834 165.819 23.6143 165.772 22.9475C165.714 22.1299 165.638 21.313 165.547 20.4981C165.407 19.2407 165.145 18.0041 164.819 16.7796C163.31 11.1176 160.298 6.38065 155.54 2.71823C155.34 2.56378 155.141 2.37797 154.907 2.29743C151.596 1.15503 148.183 0.520832 144.664 0.438226C143.013 0.399483 141.37 0.480853 139.731 0.689221C138.334 0.866789 136.952 1.11262 135.591 1.45999C130.179 2.84214 125.429 5.38452 121.353 9.09248C118.019 12.1262 115.487 15.6995 113.713 19.7732C112.608 22.3094 111.83 24.9379 111.474 27.6708C111.321 28.8394 111.21 30.0169 111.162 31.1934C111.096 32.815 111.195 34.4341 111.417 36.0461C111.597 37.3577 111.848 38.6546 112.199 39.9328C113.976 46.3976 117.496 51.8073 122.764 56.1485C125.202 58.158 127.912 59.7584 130.855 60.982C132.846 61.8098 132.638 61.758 134.858 61.7837C135.397 61.7899 135.937 61.7575 136.477 61.7435C137.655 61.713 138.814 61.5304 139.961 61.2891C142.541 60.7462 144.962 59.8036 147.243 58.5211C151.108 56.3472 154.291 53.4403 156.984 50.0182C160.298 45.8062 162.656 41.1293 164.174 36.0529C164.719 34.2282 165.157 32.3791 165.411 30.4941C165.549 29.4643 165.677 28.4319 165.763 27.397C165.83 26.5849 165.823 25.7672 165.852 24.8864Z" fill="black"/>
<path fill-rule="evenodd" clip-rule="evenodd" d="M86.7582 35.2686C84.2839 35.2686 81.9183 35.2686 79.4807 35.2686C79.4807 34.5713 79.4807 33.9145 79.4807 33.2059C82.7311 33.2059 85.973 33.2059 89.2126 33.2059C89.4314 37.059 87.5931 41.2087 83.4543 43.2181C79.47 45.1525 72.3508 44.9223 68.4454 41.1061C65.0636 37.8019 63.8467 33.875 65.1512 29.427C66.4378 25.04 69.5476 22.2441 74.1631 21.2541C79.4278 20.1249 83.98 21.5932 87.9093 25.1811C87.3335 25.7144 86.7947 26.2135 86.2819 26.6884C85.2569 25.9874 84.3325 25.2671 83.3245 24.6816C79.3078 22.3487 74.5932 22.5202 71.0197 25.0788C66.2668 28.4822 65.6673 34.8194 69.7003 39.0244C73.3227 42.8014 79.2292 43.5133 83.5092 40.6413C85.3969 39.3744 86.4388 37.5727 86.7582 35.2686Z" fill="black"/>
<path fill-rule="evenodd" clip-rule="evenodd" d="M38.929 43.8447C38.1309 43.8447 37.3547 43.8447 36.4863 43.8447C36.5974 43.5705 36.6816 43.3315 36.7887 43.1025C40.174 35.8659 43.5618 28.6301 46.949 21.3942C47.0046 21.2757 47.0392 21.1404 47.1213 21.0426C47.2618 20.8758 47.4749 20.5828 47.5809 20.6113C47.7896 20.6671 48.017 20.8752 48.1123 21.0758C49.0002 22.9455 49.8621 24.8266 50.731 26.7049C53.2604 32.173 55.7899 37.641 58.3173 43.11C58.4145 43.3204 58.4918 43.5392 58.6238 43.8671C57.89 43.8671 57.2288 43.9119 56.5809 43.8413C56.3713 43.8184 56.1263 43.5251 56.0172 43.3009C54.9864 41.1796 53.9632 39.0544 52.9822 36.9112C52.7424 36.3873 52.4657 36.1735 51.8506 36.1807C48.97 36.2147 46.0884 36.2087 43.2075 36.184C42.6958 36.1796 42.4445 36.3497 42.2414 36.7901C41.1555 39.1442 40.0401 41.4859 38.929 43.8447ZM51.6003 33.9342C50.2673 31.0739 48.9839 28.3201 47.6131 25.379C46.2265 28.3347 44.9277 31.1032 43.5996 33.9342C46.3323 33.9342 48.8957 33.9342 51.6003 33.9342Z" fill="black"/>
<path fill-rule="evenodd" clip-rule="evenodd" d="M10.9885 43.9601C10.9885 43.4679 10.9885 43.1838 10.9885 42.8997C10.9885 36.0894 11.0007 29.2789 10.9717 22.4688C10.9685 21.698 11.1508 21.4193 11.9952 21.454C14.7903 21.569 17.5953 21.5186 20.3847 21.7005C25.7372 22.0496 29.5709 25.7079 30.2627 30.9011C30.7353 34.4485 30.1137 37.6984 27.7238 40.5216C26.0957 42.4447 23.9302 43.4846 21.4346 43.6453C18.0063 43.8663 14.5629 43.8635 10.9885 43.9601ZM13.1041 41.7294C13.3605 41.7706 13.542 41.8275 13.7225 41.8243C15.74 41.7908 17.7597 41.7936 19.7742 41.6964C22.2449 41.5769 24.4715 40.8655 26.1257 38.9362C27.8471 36.9283 28.2994 34.5739 28.1721 32.0529C27.9622 27.8958 25.1145 24.6299 20.8744 23.9915C18.628 23.6534 16.3221 23.6935 14.0453 23.5314C13.3213 23.48 13.0819 23.6896 13.0863 24.431C13.1192 29.9331 13.1041 35.4356 13.1041 40.9377C13.1041 41.1936 13.1041 41.4492 13.1041 41.7294Z" fill="black"/>
<path fill-rule="evenodd" clip-rule="evenodd" d="M2.15117 43.8278C1.44152 43.8278 0.777291 43.8278 0.0531007 43.8278C0.033707 43.5376 0.00219241 43.2846 0.00219241 43.0317C-0.000555023 36.1445 -0.00362571 29.2576 0.0126973 22.3704C0.0133437 22.0791 0.172856 21.5518 0.305056 21.5375C0.90432 21.4724 1.52152 21.5419 2.1287 21.5986C2.17767 21.6031 2.2302 21.8771 2.2302 22.0259C2.23311 29.2 2.23036 36.3739 2.22551 43.5479C2.22551 43.6218 2.18737 43.6956 2.15117 43.8278Z" fill="black"/>
</svg>
