<svg id="Layer_1" data-name="Layer 1" xmlns="http://www.w3.org/2000/svg" viewBox="0 0 119 25"><defs><style>.cls-1{fill:#003441;}</style></defs><title>logo_dark</title><path class="cls-1" d="M59.84057,14.66761l4.89374,1.72718a11.86027,11.86027,0,1,1-16.302-14.6467,11.766,11.766,0,0,1,9.06377-.48454L55.76891,6.15729a6.67019,6.67019,0,1,0,4.07166,8.51032Zm-38.707-12.507a32.48082,32.48082,0,0,0-21.10349,0L1.73806,7.10916A27.26388,27.26388,0,0,1,7.986,5.77112V24h5.19076V5.77112a27.18119,27.18119,0,0,1,6.24793,1.338ZM33.592,1l8.05114,23H36.122l-1.709-4.99409H25.37763L23.66969,24H18.14955l8.116-23Zm-.72272,13.43858L29.91255,5.33732l-2.99117,9.10126Zm76.21484,4.79735V1h-5.42085V24h15.30663V19.23593ZM84.883,24H99.89969V19.23593H90.00784v-4.8633h9.29892V9.77288H90.00784V5.764h9.89185V1H84.883ZM71.17991,1.90114A27.08477,27.08477,0,0,1,62.33106.39891L60.62813,5.33113A32.28764,32.28764,0,0,0,68.583,6.98444V24h5.19175V6.98444a32.29527,32.29527,0,0,0,7.95587-1.65331L80.02776.39891A27.08378,27.08378,0,0,1,71.17991,1.90114Z"/></svg>