<svg width="751" height="751" viewBox="0 0 751 751" fill="none" xmlns="http://www.w3.org/2000/svg">
<g clip-path="url(#clip0_249_1492)">
<mask id="mask0_249_1492" style="mask-type:luminance" maskUnits="userSpaceOnUse" x="0" y="0" width="751" height="751">
<path d="M0 0H751V751H0V0Z" fill="white"/>
</mask>
<g mask="url(#mask0_249_1492)">
<path d="M359.418 213.815C359.418 213.815 291.464 271.947 229.95 265.827C168.203 259.685 150.084 248.534 136.828 194.037C126.998 153.63 125.563 128.784 179.497 97.5389C232.545 66.8069 235.653 83.4019 281.444 123.927C328.106 165.224 359.418 213.815 359.418 213.815Z" stroke="#587C30" stroke-width="11.339" stroke-miterlimit="100" stroke-linejoin="round"/>
<path d="M297.624 140.667C266.457 62.8068 316.763 23.5368 365.122 19.4638C427.722 14.1898 527.043 89.7188 443.057 169.162" stroke="#587C30" stroke-width="11.355" stroke-miterlimit="100" stroke-linejoin="round"/>
<path d="M503.532 310.656C501.563 368.403 439.632 355.799 380.743 356.375C323.803 356.931 259.441 361.304 232.761 316.963C213.926 285.659 301.622 255.792 341.675 237.25C397.02 211.627 415.404 245.858 415.404 245.858C415.404 245.858 504.704 276.268 503.532 310.656Z" stroke="#587C30" stroke-width="11.339" stroke-miterlimit="100" stroke-linejoin="round"/>
<path d="M596.378 207.949C568.729 252.015 593.521 291.128 537.356 289.467C483.769 287.881 387.32 232.645 387.32 232.645C387.32 232.645 414.321 193.482 445.963 166.656L446.309 166.363C452.962 160.748 460.035 155.245 466.859 151.26C550.807 102.237 638.19 141.309 596.378 207.949Z" stroke="#587C30" stroke-width="11.437" stroke-miterlimit="100" stroke-linejoin="round"/>
<path d="M433.241 225.137C433.241 243.849 429.086 245.812 418.517 252.694C409.147 258.795 409.708 271.5 388.68 271.5C365.436 271.5 365.134 259.431 350.191 249.757C336.37 240.81 342.818 242.1 342.818 225.137C342.818 208.266 340.035 207.879 353.568 196.455C368.354 183.974 369.205 192.899 391.935 198.285C413.894 203.488 433.241 189.833 433.241 225.137Z" fill="#587C30" stroke="#587C30" stroke-width="9.146" stroke-miterlimit="100" stroke-linejoin="round"/>
<path d="M326.212 213.878L341.836 217.13L330.118 198.92L345.091 203.472L347.695 183.311L362.016 188.514L376.989 194.367L378.291 172.905L390.659 198.27L406.934 183.961L418.001 204.123L436.228 209.976L427.114 222.983L438.181 239.242L423.86 241.193L436.879 250.949H414.095L411.491 270.46L393.263 266.558L373.083 277.614L365.922 248.998L336.628 256.152L345.091 241.193L332.722 226.885H348.997L326.212 213.878Z" fill="#587C30" stroke="#587C30" stroke-width="9.146" stroke-miterlimit="100" stroke-linejoin="round"/>
<path d="M508.683 319.528C506.521 388.354 441.731 393.063 377.054 393.749C314.516 394.412 261.77 379.892 232.467 327.044C211.78 289.735 295.209 254.139 339.199 232.039C399.986 201.501 420.177 242.298 420.177 242.298C420.177 242.298 509.971 278.543 508.683 319.528ZM348.196 211.476C348.196 211.476 289.678 262.166 236.706 256.83C183.533 251.474 167.931 241.75 156.515 194.23C148.051 158.996 140.37 124.454 186.815 97.2089C232.496 70.4109 241.617 97.7579 281.049 133.095C321.232 169.105 348.196 211.476 348.196 211.476Z" stroke="#587C30" stroke-width="7.559" stroke-miterlimit="100" stroke-linejoin="round"/>
<path d="M596.378 207.949C568.729 252.015 588.918 274.573 532.753 272.911C479.166 271.326 387.32 232.645 387.32 232.645C387.32 232.645 427.429 174.286 466.859 151.26C550.807 102.237 638.19 141.309 596.378 207.949Z" stroke="#587C30" stroke-width="7.624" stroke-miterlimit="100" stroke-linejoin="round"/>
<path d="M312.354 158.143C281.187 80.2829 316.763 23.5369 365.122 19.4629C419.038 14.9219 500.536 69.3809 468.45 135.334C463.639 145.222 456.275 155.369 445.883 165.614" stroke="#587C30" stroke-width="7.57" stroke-miterlimit="100" stroke-linejoin="round"/>
<path d="M348.409 202.123C348.409 202.123 310.399 203.531 295.889 198.216C278.628 191.894 262.284 173.719 262.284 173.719C262.284 173.719 287.875 194.765 294.734 197.652C312.262 205.031 347.028 208.791 347.028 208.791L298.015 213.159L331.148 216.034" stroke="#587C30" stroke-width="4.573" stroke-miterlimit="100" stroke-linejoin="round"/>
<path d="M382.197 203.798C382.197 203.798 372.696 164.274 371.456 152.094C370.279 140.533 376.663 117.624 376.663 117.624C376.663 117.624 374.2 141.176 376.012 152.744C378.708 169.946 392.911 202.175 392.911 202.175L382.197 203.798ZM395.867 217.78C395.867 217.78 424.978 222.474 436.879 219.081C451.554 214.897 518.252 176.157 518.252 176.157C518.252 176.157 472.432 199.285 454.456 204.123C446.395 206.292 395.867 217.78 395.867 217.78ZM403.187 230.175C403.187 230.175 430.997 239.058 451.06 238.453C461.028 238.153 497.551 244.891 497.551 244.891C497.551 244.891 469.919 243.994 460.496 244.661C439.462 246.152 403.187 230.175 403.187 230.175ZM358.17 242.58C358.17 242.58 345.118 237.617 339.116 244.4C335.191 248.836 304.68 286.97 304.68 286.97C304.68 286.97 322.446 271.701 327.715 266.624C332.866 261.659 358.17 242.58 358.17 242.58ZM371.416 254.94L367.743 298.467C367.743 298.467 373.012 290.352 374.638 284.615C376.007 279.783 371.416 254.94 371.416 254.94ZM382.012 245.581C382.012 245.581 376.241 236.831 423.901 280.532C429.215 285.405 438.704 297.497 436.79 304.445C433.344 316.953 411.933 327.439 411.933 327.439C411.933 327.439 428.919 315.419 432.647 306.285C434.733 301.175 422.298 285.432 419.758 280.532C414.747 270.863 382.012 245.581 382.012 245.581Z" fill="#587C30" stroke="#587C30" stroke-width="2.287" stroke-miterlimit="100" stroke-linejoin="round"/>
<path d="M387.043 394.579C387.043 394.579 399.744 458.905 402.128 495.965C404.684 535.698 418.965 575.607 438.825 609.98C447.441 624.892 454.308 638.773 466.382 651.128C487.978 673.227 506.949 710.347 535.579 722C556.713 730.603 609.799 735.336 609.799 735.336L597.186 744.993C597.186 744.993 545.218 732.758 523.368 719.819C500.052 706.012 487.77 686.922 470.308 667.878C452.177 648.106 434.73 609.083 422.663 585.128C407.95 555.919 402.682 532.782 398.271 505.761C392.271 468.999 387.043 394.579 387.043 394.579Z" fill="#587C30" stroke="#587C30" stroke-width="7.559" stroke-miterlimit="100" stroke-linejoin="round"/>
<path d="M466.84 657.271C466.84 657.271 484.964 669.006 502.699 666.851C515.489 665.297 527.632 651.227 534.73 645.359C546.642 635.511 582.269 549.617 582.269 549.617C582.269 549.617 521.075 601.845 509.686 609.334C493.854 619.744 466.84 657.271 466.84 657.271Z" stroke="#587C30" stroke-width="7.559" stroke-miterlimit="100" stroke-linejoin="round"/>
<path d="M469.804 657.895C469.804 657.895 492.331 651.47 503.061 643.374C510.421 637.822 532.156 614.892 532.156 614.892C532.156 614.892 511.791 639.101 503.899 644.621C499.095 647.982 485.033 656.088 478.295 658.825C470.773 661.881 469.804 657.895 469.804 657.895Z" fill="#587C30" stroke="#587C30" stroke-width="3.78" stroke-miterlimit="100" stroke-linejoin="round"/>
<path d="M415.314 564.387C415.314 564.387 370.455 507.819 338.225 491.969C306.483 476.358 200.469 479.51 200.469 479.51C200.469 479.51 264.046 496.772 293.958 522.546C312.677 538.674 324.429 557.4 337.745 563.701C368.013 578.025 415.314 564.387 415.314 564.387Z" stroke="#587C30" stroke-width="7.559" stroke-miterlimit="100" stroke-linejoin="round"/>
<path d="M412.771 560.89C412.771 560.89 413.556 565.001 402.4 562.059C388.732 558.455 361.901 547.145 352.455 540.246C345.327 535.04 343.547 524.521 336.668 518.989C331.22 514.607 296.144 501.385 296.144 501.385C296.144 501.385 331.757 514.266 337.379 518.719C344.177 524.103 347.023 533.077 353.978 538.256C371.005 550.935 412.771 560.89 412.771 560.89Z" fill="#587C30" stroke="#587C30" stroke-width="3.78" stroke-miterlimit="100" stroke-linejoin="round"/>
</g>
</g>
<defs>
<clipPath id="clip0_249_1492">
<rect width="751" height="751" fill="white"/>
</clipPath>
</defs>
</svg>
