<svg xmlns="http://www.w3.org/2000/svg" width="751" height="751" fill="none" viewBox="0 0 751 751">
  <g clip-path="url(#a)">
    <path stroke="#92BD64" stroke-linejoin="round" stroke-miterlimit="100" stroke-width="11.339" d="M359.418 213.815s-67.954 58.132-129.468 52.012c-61.747-6.142-79.866-17.293-93.122-71.79-9.83-40.407-11.265-65.253 42.669-96.498 53.048-30.732 56.156-14.137 101.947 26.388 46.662 41.297 77.974 89.888 77.974 89.888Z"/>
    <path stroke="#92BD64" stroke-linejoin="round" stroke-miterlimit="100" stroke-width="11.355" d="M297.624 140.667c-31.167-77.86 19.139-117.13 67.498-121.203 62.6-5.274 161.921 70.255 77.935 149.698"/>
    <path stroke="#92BD64" stroke-linejoin="round" stroke-miterlimit="100" stroke-width="11.339" d="M503.532 310.656c-1.969 57.747-63.9 45.143-122.789 45.719-56.94.556-121.302 4.929-147.982-39.412-18.835-31.304 68.861-61.171 108.914-79.713 55.345-25.623 73.729 8.608 73.729 8.608s89.3 30.41 88.128 64.798Z"/>
    <path stroke="#92BD64" stroke-linejoin="round" stroke-miterlimit="100" stroke-width="11.437" d="M596.378 207.949c-27.649 44.066-2.857 83.179-59.022 81.518-53.587-1.586-150.036-56.822-150.036-56.822s27.001-39.163 58.643-65.989l.346-.293c6.653-5.615 13.726-11.118 20.55-15.103 83.948-49.023 171.331-9.951 129.519 56.689Z"/>
    <path fill="#92BD64" stroke="#92BD64" stroke-linejoin="round" stroke-miterlimit="100" stroke-width="9.146" d="M433.241 225.137c0 18.712-4.155 20.675-14.724 27.557-9.37 6.101-8.809 18.806-29.837 18.806-23.244 0-23.546-12.069-38.489-21.743-13.821-8.947-7.373-7.657-7.373-24.62 0-16.871-2.783-17.258 10.75-28.682 14.786-12.481 15.637-3.556 38.367 1.83 21.959 5.203 41.306-8.452 41.306 26.852Z"/>
    <path fill="#92BD64" stroke="#92BD64" stroke-linejoin="round" stroke-miterlimit="100" stroke-width="9.146" d="m326.212 213.878 15.624 3.252-11.718-18.21 14.973 4.552 2.604-20.161 14.321 5.203 14.973 5.853 1.302-21.462 12.368 25.364 16.275-14.308 11.067 20.162 18.227 5.853-9.114 13.007 11.067 16.259-14.321 1.951 13.019 9.756h-22.784l-2.604 19.511-18.228-3.902-20.18 11.056-7.161-28.616-29.294 7.154 8.463-14.959-12.369-14.308h16.275l-22.785-13.007Z"/>
    <path stroke="#92BD64" stroke-linejoin="round" stroke-miterlimit="100" stroke-width="7.559" d="M508.683 319.528c-2.162 68.826-66.952 73.535-131.629 74.221-62.538.663-115.284-13.857-144.587-66.705-20.687-37.309 62.742-72.905 106.732-95.005 60.787-30.538 80.978 10.259 80.978 10.259s89.794 36.245 88.506 77.23ZM348.196 211.476s-58.518 50.69-111.49 45.354c-53.173-5.356-68.775-15.08-80.191-62.6-8.464-35.234-16.145-69.776 30.3-97.021 45.681-26.798 54.802.549 94.234 35.887 40.183 36.01 67.147 78.38 67.147 78.38Z"/>
    <path stroke="#92BD64" stroke-linejoin="round" stroke-miterlimit="100" stroke-width="7.624" d="M596.378 207.949c-27.649 44.066-7.46 66.624-63.625 64.962-53.587-1.585-145.433-40.266-145.433-40.266s40.109-58.359 79.539-81.385c83.948-49.023 171.331-9.951 129.519 56.689Z"/>
    <path stroke="#92BD64" stroke-linejoin="round" stroke-miterlimit="100" stroke-width="7.57" d="M312.354 158.143c-31.167-77.86 4.409-134.606 52.768-138.68 53.916-4.541 135.414 49.918 103.328 115.871-4.811 9.888-12.175 20.035-22.567 30.28"/>
    <path stroke="#92BD64" stroke-linejoin="round" stroke-miterlimit="100" stroke-width="4.573" d="M348.41 202.123s-38.011 1.408-52.52-3.907c-17.261-6.322-33.605-24.497-33.605-24.497s25.591 21.046 32.449 23.933c17.529 7.379 52.295 11.139 52.295 11.139l-49.014 4.368 33.133 2.875"/>
    <path fill="#92BD64" stroke="#92BD64" stroke-linejoin="round" stroke-miterlimit="100" stroke-width="2.287" d="M382.197 203.798s-9.501-39.524-10.741-51.704c-1.177-11.56 5.207-34.469 5.207-34.469s-2.463 23.552-.651 35.119c2.696 17.202 16.899 49.431 16.899 49.431l-10.714 1.623Zm13.67 13.982s29.111 4.694 41.012 1.301c14.675-4.184 81.373-42.924 81.373-42.924s-45.82 23.128-63.796 27.966c-8.061 2.169-58.589 13.657-58.589 13.657Zm7.32 12.395s27.81 8.883 47.873 8.278c9.968-.3 46.491 6.438 46.491 6.438s-27.632-.897-37.055-.23c-21.034 1.491-57.309-14.486-57.309-14.486ZM358.17 242.58s-13.052-4.963-19.054 1.82c-3.925 4.436-34.436 42.57-34.436 42.57s17.766-15.269 23.035-20.346c5.151-4.965 30.455-24.044 30.455-24.044Zm13.246 12.36-3.673 43.527s5.269-8.115 6.895-13.852c1.369-4.832-3.222-29.675-3.222-29.675Zm10.596-9.359s-5.771-8.75 41.889 34.951c5.314 4.873 14.803 16.965 12.889 23.913-3.446 12.508-24.857 22.994-24.857 22.994s16.986-12.02 20.714-21.154c2.086-5.11-10.349-20.853-12.889-25.753-5.011-9.669-37.746-34.951-37.746-34.951Z"/>
    <path fill="#92BD64" stroke="#92BD64" stroke-linejoin="round" stroke-miterlimit="100" stroke-width="7.559" d="M387.043 394.579s12.701 64.326 15.085 101.386c2.556 39.733 16.837 79.642 36.697 114.015 8.616 14.912 15.483 28.793 27.557 41.148 21.596 22.099 40.567 59.219 69.197 70.872 21.134 8.603 74.22 13.336 74.22 13.336l-12.613 9.657s-51.968-12.235-73.818-25.174c-23.316-13.807-35.598-32.897-53.06-51.941-18.131-19.772-35.578-58.795-47.645-82.75-14.713-29.209-19.981-52.346-24.392-79.367-6-36.762-11.228-111.182-11.228-111.182Z"/>
    <path stroke="#92BD64" stroke-linejoin="round" stroke-miterlimit="100" stroke-width="7.559" d="M466.84 657.271s18.124 11.734 35.859 9.58c12.79-1.554 24.933-15.624 32.031-21.492 11.912-9.848 47.539-95.743 47.539-95.743s-61.194 52.229-72.583 59.718c-15.832 10.41-42.846 47.937-42.846 47.937Z"/>
    <path fill="#92BD64" stroke="#92BD64" stroke-linejoin="round" stroke-miterlimit="100" stroke-width="3.78" d="M469.804 657.895s22.527-6.425 33.257-14.521c7.36-5.553 29.095-28.482 29.095-28.482s-20.365 24.209-28.257 29.729c-4.804 3.361-18.866 11.466-25.604 14.204-7.522 3.056-8.491-.93-8.491-.93Z"/>
    <path stroke="#92BD64" stroke-linejoin="round" stroke-miterlimit="100" stroke-width="7.559" d="M415.314 564.386s-44.859-56.567-77.089-72.417c-31.742-15.612-137.756-12.459-137.756-12.459s63.577 17.261 93.489 43.036c18.719 16.128 30.471 34.854 43.787 41.155 30.268 14.324 77.569.685 77.569.685Z"/>
    <path fill="#92BD64" stroke="#92BD64" stroke-linejoin="round" stroke-miterlimit="100" stroke-width="3.78" d="M412.771 560.89s.785 4.111-10.371 1.169c-13.668-3.604-40.499-14.914-49.945-21.813-7.128-5.206-8.908-15.725-15.787-21.257-5.448-4.382-40.524-17.604-40.524-17.604s35.613 12.881 41.235 17.334c6.798 5.384 9.644 14.358 16.599 19.537 17.027 12.679 58.793 22.634 58.793 22.634Z"/>
  </g>
  <defs>
    <clipPath id="a">
      <path fill="#fff" d="M0 0h751v751H0z"/>
    </clipPath>
  </defs>
</svg>
