<svg width="751" height="751" viewBox="0 0 751 751" fill="none" xmlns="http://www.w3.org/2000/svg">
<g clip-path="url(#clip0_249_1515)">
<mask id="mask0_249_1515" style="mask-type:luminance" maskUnits="userSpaceOnUse" x="0" y="0" width="751" height="751">
<path d="M0 0H751V751H0V0Z" fill="white"/>
</mask>
<g mask="url(#mask0_249_1515)">
<path fill-rule="evenodd" clip-rule="evenodd" d="M182.789 524.586L191.262 467.595L204.297 469.532L195.825 526.524L182.789 524.586Z" fill="#3DB7FF"/>
<path fill-rule="evenodd" clip-rule="evenodd" d="M146.748 438.938L199.779 461.468L194.626 473.597L141.595 451.068L146.748 438.938ZM580.801 527.381L572.328 470.389L559.293 472.327L567.765 529.319L580.801 527.381Z" fill="#3DB7FF"/>
<path fill-rule="evenodd" clip-rule="evenodd" d="M616.842 441.733L563.811 464.263L568.965 476.392L621.995 453.862L616.842 441.733ZM337.318 612.641L382.895 577.391L374.832 566.966L329.255 602.216L337.318 612.641Z" fill="#3DB7FF"/>
<path fill-rule="evenodd" clip-rule="evenodd" d="M429.654 602.216L384.077 566.966L376.014 577.391L421.591 612.641L429.654 602.216ZM184.466 200.659L192.939 257.651L205.974 255.713L197.502 198.721L184.466 200.659Z" fill="#3DB7FF"/>
<path fill-rule="evenodd" clip-rule="evenodd" d="M148.425 286.307L201.455 263.777L196.302 251.648L143.272 274.178L148.425 286.307ZM582.478 197.865L574.005 254.856L560.97 252.918L569.442 195.927L582.478 197.865Z" fill="#3DB7FF"/>
<path fill-rule="evenodd" clip-rule="evenodd" d="M618.519 283.513L565.488 260.983L570.641 248.853L623.672 271.383L618.519 283.513ZM338.994 112.604L384.572 147.854L376.509 158.279L330.932 123.029L338.994 112.604Z" fill="#3DB7FF"/>
<path fill-rule="evenodd" clip-rule="evenodd" d="M431.33 123.029L385.753 158.279L377.691 147.854L423.268 112.604L431.33 123.029Z" fill="#3DB7FF"/>
<path fill-rule="evenodd" clip-rule="evenodd" d="M338.994 112.604L384.572 147.854L376.509 158.279L330.932 123.029L338.994 112.604Z" fill="#3DB7FF"/>
<path fill-rule="evenodd" clip-rule="evenodd" d="M431.33 123.029L385.753 158.279L377.69 147.854L423.268 112.604L431.33 123.029Z" fill="#3DB7FF"/>
<path fill-rule="evenodd" clip-rule="evenodd" d="M338.995 112.604L384.572 147.854L376.509 158.279L330.932 123.029L338.995 112.604Z" fill="#3DB7FF"/>
<path fill-rule="evenodd" clip-rule="evenodd" d="M431.331 123.029L385.754 158.279L377.691 147.854L423.268 112.604L431.331 123.029ZM353.763 64.101L384.246 92.789L378.13 99.287L347.647 70.599L353.763 64.101Z" fill="#3DB7FF"/>
<path fill-rule="evenodd" clip-rule="evenodd" d="M415.517 69.6679L385.034 98.356L378.923 91.8619L409.406 63.174L415.517 69.6679ZM631.005 185.177L622.171 226.094L613.451 224.211L622.286 183.295L631.005 185.177Z" fill="#3DB7FF"/>
<path fill-rule="evenodd" clip-rule="evenodd" d="M657.321 241.422L617.015 230.122L619.423 221.536L659.728 232.836L657.321 241.422ZM133.743 187.147L142.578 228.063L151.298 226.181L142.463 185.264L133.743 187.147Z" fill="#3DB7FF"/>
<path fill-rule="evenodd" clip-rule="evenodd" d="M107.428 243.391L147.734 232.092L145.326 223.506L105.021 234.805L107.428 243.391ZM352.086 663.44L382.569 634.753L376.453 628.254L345.97 656.942L352.086 663.44Z" fill="#3DB7FF"/>
<path fill-rule="evenodd" clip-rule="evenodd" d="M413.84 657.601L383.357 628.913L377.246 635.407L407.729 664.095L413.84 657.601ZM629.329 542.092L620.494 501.175L611.774 503.058L620.609 543.975L629.329 542.092Z" fill="#3DB7FF"/>
<path fill-rule="evenodd" clip-rule="evenodd" d="M655.644 485.847L615.338 497.147L617.746 505.733L658.051 494.433L655.644 485.847ZM132.067 540.122L140.902 499.206L149.621 501.088L140.786 542.005L132.067 540.122Z" fill="#3DB7FF"/>
<path fill-rule="evenodd" clip-rule="evenodd" d="M105.752 483.878L146.057 495.177L143.65 503.763L103.344 492.464L105.752 483.878ZM387.595 35.987L386.127 691.666L372.949 691.637L374.416 35.957L387.595 35.987Z" fill="#3DB7FF"/>
<path fill-rule="evenodd" clip-rule="evenodd" d="M666.394 536.029L92.1924 203.21L98.8024 191.808L673.003 524.627L666.394 536.029Z" fill="#3DB7FF"/>
<path fill-rule="evenodd" clip-rule="evenodd" d="M672.397 201.414L97.473 534.141L90.873 522.735L665.795 190.008L672.397 201.414Z" fill="#3DB7FF"/>
<path d="M380.878 45.42C383.342 45.42 385.705 44.4412 387.447 42.699C389.19 40.9568 390.168 38.5938 390.168 36.13C390.168 33.6661 389.19 31.3032 387.447 29.5609C385.705 27.8187 383.342 26.84 380.878 26.84C378.414 26.84 376.052 27.8187 374.309 29.5609C372.567 31.3032 371.588 33.6661 371.588 36.13C371.588 38.5938 372.567 40.9568 374.309 42.699C376.052 44.4412 378.414 45.42 380.878 45.42Z" fill="#3DB7FF"/>
<path fill-rule="evenodd" clip-rule="evenodd" d="M380.878 33.43C380.162 33.43 379.475 33.7145 378.968 34.2209C378.462 34.7274 378.178 35.4143 378.178 36.1305C378.178 36.8467 378.462 37.5336 378.968 38.04C379.475 38.5465 380.162 38.831 380.878 38.831C381.594 38.831 382.281 38.5465 382.787 38.0402C383.294 37.5338 383.578 36.8471 383.578 36.131C383.578 35.4149 383.294 34.7281 382.787 34.2218C382.281 33.7154 381.594 33.43 380.878 33.43ZM364.999 36.131C364.999 27.361 372.108 20.251 380.878 20.251C389.648 20.251 396.757 27.361 396.757 36.131C396.757 44.901 389.648 52.011 380.878 52.011C372.108 52.011 364.999 44.901 364.999 36.131Z" fill="#3DB7FF"/>
<path d="M94.9243 205.676C96.7617 205.676 98.5579 205.131 100.086 204.11C101.613 203.089 102.804 201.638 103.507 199.941C104.21 198.243 104.394 196.375 104.036 194.573C103.677 192.771 102.792 191.116 101.493 189.817C100.194 188.517 98.5382 187.633 96.7361 187.274C94.9339 186.916 93.066 187.1 91.3685 187.803C89.6709 188.507 88.2201 189.698 87.1994 191.225C86.1788 192.753 85.6341 194.55 85.6343 196.387C85.6345 198.851 86.6134 201.213 88.3556 202.955C90.0978 204.697 92.4606 205.676 94.9243 205.676Z" fill="#3DB7FF"/>
<path fill-rule="evenodd" clip-rule="evenodd" d="M94.924 193.686C94.2077 193.686 93.5208 193.97 93.0144 194.477C92.508 194.983 92.2234 195.67 92.2234 196.386C92.2234 197.103 92.508 197.79 93.0144 198.296C93.5208 198.802 94.2077 199.087 94.924 199.087C95.6402 199.087 96.327 198.802 96.8335 198.296C97.3399 197.79 97.6244 197.103 97.6244 196.386C97.6244 195.67 97.3399 194.983 96.8335 194.477C96.327 193.97 95.6402 193.686 94.924 193.686ZM79.0439 196.387C79.0439 187.617 86.1539 180.508 94.924 180.508C103.693 180.508 110.803 187.617 110.803 196.387C110.803 205.156 103.693 212.266 94.9229 212.266C86.1529 212.266 79.0439 205.156 79.0439 196.387Z" fill="#3DB7FF"/>
<path d="M667.077 204.599C668.297 204.599 669.505 204.359 670.632 203.892C671.759 203.425 672.783 202.741 673.646 201.878C674.509 201.015 675.193 199.991 675.66 198.864C676.127 197.737 676.367 196.529 676.367 195.309C676.367 194.089 676.127 192.881 675.66 191.754C675.193 190.627 674.509 189.603 673.646 188.74C672.783 187.877 671.759 187.193 670.632 186.726C669.505 186.259 668.297 186.019 667.077 186.019C664.613 186.019 662.25 186.998 660.508 188.74C658.766 190.482 657.787 192.845 657.787 195.309C657.787 197.773 658.766 200.136 660.508 201.878C662.25 203.62 664.613 204.599 667.077 204.599Z" fill="#3DB7FF"/>
<path fill-rule="evenodd" clip-rule="evenodd" d="M667.077 192.608C666.723 192.608 666.371 192.678 666.044 192.814C665.716 192.95 665.418 193.149 665.168 193.4C664.917 193.651 664.718 193.948 664.582 194.276C664.447 194.604 664.377 194.955 664.377 195.31C664.377 195.665 664.447 196.016 664.583 196.343C664.719 196.671 664.918 196.969 665.169 197.22C665.42 197.47 665.718 197.669 666.046 197.805C666.373 197.94 666.725 198.01 667.079 198.01C667.796 198.01 668.482 197.725 668.989 197.218C669.495 196.711 669.78 196.024 669.779 195.308C669.779 194.592 669.494 193.905 668.987 193.398C668.481 192.892 667.794 192.608 667.077 192.608ZM651.198 195.309C651.198 186.539 658.307 179.43 667.077 179.43C675.847 179.43 682.956 186.539 682.956 195.309C682.956 204.079 675.847 211.188 667.077 211.188C658.307 211.188 651.198 204.079 651.198 195.309Z" fill="#3DB7FF"/>
<path d="M379.639 680.073C382.103 680.073 384.466 681.052 386.208 682.794C387.95 684.536 388.929 686.899 388.929 689.363C388.929 691.827 387.95 694.19 386.208 695.932C384.466 697.674 382.103 698.653 379.639 698.653C377.175 698.653 374.812 697.674 373.07 695.932C371.328 694.19 370.349 691.827 370.349 689.363C370.349 686.899 371.328 684.536 373.07 682.794C374.812 681.052 377.175 680.073 379.639 680.073Z" fill="#3DB7FF"/>
<path fill-rule="evenodd" clip-rule="evenodd" d="M379.639 692.063C378.923 692.063 378.236 691.779 377.73 691.272C377.224 690.766 376.939 690.079 376.939 689.363C376.939 688.647 377.224 687.96 377.73 687.454C378.236 686.947 378.923 686.663 379.639 686.663C380.355 686.663 381.042 686.947 381.548 687.454C382.055 687.96 382.339 688.647 382.339 689.363C382.339 690.079 382.055 690.766 381.548 691.272C381.042 691.779 380.355 692.063 379.639 692.063ZM363.76 689.363C363.76 698.132 370.87 705.242 379.639 705.242C388.409 705.242 395.518 698.132 395.518 689.363C395.518 680.593 388.409 673.483 379.639 673.483C370.87 673.483 363.76 680.593 363.76 689.363Z" fill="#3DB7FF"/>
<path d="M93.685 519.817C96.1489 519.817 98.5118 520.796 100.254 522.538C101.996 524.28 102.975 526.643 102.975 529.107C102.975 531.571 101.996 533.934 100.254 535.676C98.5118 537.418 96.1489 538.397 93.685 538.397C91.2212 538.397 88.8582 537.418 87.116 535.676C85.3738 533.934 84.395 531.571 84.395 529.107C84.395 526.643 85.3738 524.28 87.116 522.538C88.8582 520.796 91.2212 519.817 93.685 519.817Z" fill="#3DB7FF"/>
<path fill-rule="evenodd" clip-rule="evenodd" d="M93.6852 531.807C93.3306 531.807 92.9795 531.737 92.6519 531.602C92.3244 531.466 92.0267 531.267 91.776 531.016C91.5253 530.765 91.3264 530.468 91.1907 530.14C91.055 529.813 90.9852 529.462 90.9852 529.107C90.9852 528.752 91.055 528.401 91.1907 528.074C91.3264 527.746 91.5253 527.449 91.776 527.198C92.0267 526.947 92.3244 526.748 92.6519 526.613C92.9795 526.477 93.3306 526.407 93.6852 526.407C94.4013 526.407 95.088 526.691 95.5944 527.198C96.1007 527.704 96.3852 528.391 96.3852 529.107C96.3852 529.823 96.1007 530.51 95.5944 531.016C95.088 531.523 94.4013 531.807 93.6852 531.807ZM77.8052 529.107C77.8052 537.877 84.9152 544.986 93.6852 544.986C102.455 544.986 109.564 537.877 109.564 529.107C109.564 520.337 102.455 513.228 93.6842 513.228C84.9152 513.228 77.8052 520.337 77.8052 529.107Z" fill="#3DB7FF"/>
<path d="M665.838 520.895C668.302 520.895 670.665 521.874 672.407 523.616C674.15 525.358 675.128 527.721 675.128 530.185C675.128 532.649 674.15 535.012 672.407 536.754C670.665 538.496 668.302 539.475 665.838 539.475C663.375 539.475 661.012 538.496 659.269 536.754C657.527 535.012 656.548 532.649 656.548 530.185C656.548 527.721 657.527 525.358 659.269 523.616C661.012 521.874 663.375 520.895 665.838 520.895Z" fill="#3DB7FF"/>
<path fill-rule="evenodd" clip-rule="evenodd" d="M665.838 532.885C665.484 532.885 665.133 532.815 664.805 532.679C664.477 532.544 664.18 532.345 663.929 532.094C663.678 531.843 663.479 531.546 663.344 531.218C663.208 530.891 663.138 530.54 663.138 530.185C663.138 529.83 663.208 529.479 663.344 529.152C663.479 528.824 663.678 528.527 663.929 528.276C664.18 528.025 664.477 527.826 664.805 527.691C665.133 527.555 665.484 527.485 665.838 527.485C666.554 527.485 667.241 527.769 667.747 528.276C668.254 528.782 668.538 529.469 668.538 530.185C668.538 530.901 668.254 531.588 667.747 532.094C667.241 532.6 666.554 532.885 665.838 532.885ZM649.959 530.185C649.959 538.954 657.069 546.064 665.838 546.064C674.608 546.064 681.717 538.954 681.717 530.185C681.717 521.415 674.608 514.306 665.838 514.306C657.069 514.306 649.959 521.415 649.959 530.185ZM320.108 517.286L306.675 482.449L315.898 478.894L329.33 513.73L320.108 517.286Z" fill="#3DB7FF"/>
<path fill-rule="evenodd" clip-rule="evenodd" d="M272.975 479.607L310.07 475.365L311.193 485.185L274.098 489.427L272.975 479.607ZM546.539 391.042L523.554 361.619L515.765 367.704L538.75 397.126L546.539 391.042Z" fill="#3DB7FF"/>
<path fill-rule="evenodd" clip-rule="evenodd" d="M538.43 331.247L515.732 360.891L523.58 366.9L546.278 337.256L538.43 331.247ZM436.605 517.574L451.037 483.14L441.921 479.319L427.489 513.753L436.605 517.574Z" fill="#3DB7FF"/>
<path fill-rule="evenodd" clip-rule="evenodd" d="M484.805 481.271L447.848 475.96L446.442 485.744L483.399 491.054L484.805 481.271ZM217.656 334.305L240.641 363.728L248.43 357.643L225.445 328.221L217.656 334.305Z" fill="#3DB7FF"/>
<path fill-rule="evenodd" clip-rule="evenodd" d="M225.765 394.1L248.463 364.456L240.615 358.447L217.917 388.091L225.765 394.1ZM442.302 204.91L455.734 239.747L446.512 243.303L433.08 208.466L442.302 204.91Z" fill="#3DB7FF"/>
<path fill-rule="evenodd" clip-rule="evenodd" d="M489.434 242.589L452.34 246.831L451.217 237.011L488.311 232.769L489.434 242.589ZM277.264 234.213L314.221 239.524L312.815 249.307L275.858 243.997L277.264 234.213Z" fill="#3DB7FF"/>
<path fill-rule="evenodd" clip-rule="evenodd" d="M333.174 211.514L318.742 245.948L309.626 242.128L324.059 207.693L333.174 211.514Z" fill="#3DB7FF"/>
<path fill-rule="evenodd" clip-rule="evenodd" d="M277.264 234.213L314.221 239.524L312.815 249.307L275.858 243.997L277.264 234.213Z" fill="#3DB7FF"/>
<path fill-rule="evenodd" clip-rule="evenodd" d="M333.174 211.514L318.742 245.948L309.626 242.128L324.059 207.693L333.174 211.514Z" fill="#3DB7FF"/>
<path fill-rule="evenodd" clip-rule="evenodd" d="M277.264 234.213L314.221 239.524L312.815 249.307L275.858 243.997L277.264 234.213Z" fill="#3DB7FF"/>
<path fill-rule="evenodd" clip-rule="evenodd" d="M333.174 211.514L318.742 245.948L309.626 242.128L324.059 207.693L333.174 211.514ZM270.094 202.423L296.445 208.856L294.881 215.26L268.53 208.826L270.094 202.423Z" fill="#3DB7FF"/>
<path fill-rule="evenodd" clip-rule="evenodd" d="M306.977 186.343L298.958 212.256L292.665 210.308L300.685 184.396L306.977 186.343ZM465.366 182.374L473.458 208.264L467.169 210.23L459.077 184.34L465.366 182.374Z" fill="#3DB7FF"/>
<path fill-rule="evenodd" clip-rule="evenodd" d="M497.882 206.188L471.549 212.695L469.969 206.3L496.302 199.793L497.882 206.188ZM184.971 342.749L203.025 362.993L207.943 358.608L189.889 338.363L184.971 342.749Z" fill="#3DB7FF"/>
<path fill-rule="evenodd" clip-rule="evenodd" d="M188.695 382.881L207.807 363.633L203.133 358.992L184.02 378.24L188.695 382.881ZM460.927 541.354L468.947 515.442L462.65 513.493L454.63 539.405L460.927 541.354Z" fill="#3DB7FF"/>
<path fill-rule="evenodd" clip-rule="evenodd" d="M493.586 517.819L467.235 511.386L465.673 517.785L492.024 524.218L493.586 517.819ZM578.37 383.975L560.316 363.731L555.398 368.116L573.452 388.361L578.37 383.975Z" fill="#3DB7FF"/>
<path fill-rule="evenodd" clip-rule="evenodd" d="M574.646 343.843L555.534 363.091L560.208 367.732L579.321 348.484L574.646 343.843ZM296.717 542.129L288.625 516.24L294.914 514.274L303.006 540.164L296.717 542.129Z" fill="#3DB7FF"/>
<path fill-rule="evenodd" clip-rule="evenodd" d="M264.201 518.315L290.534 511.808L292.114 518.203L265.781 524.71L264.201 518.315ZM280.674 175.827L489.336 545.941L480.726 550.795L272.064 180.681L280.674 175.827Z" fill="#3DB7FF"/>
<path fill-rule="evenodd" clip-rule="evenodd" d="M597.021 369.656L166.974 365.483L167.07 355.6L597.117 359.772L597.021 369.656Z" fill="#3DB7FF"/>
<path fill-rule="evenodd" clip-rule="evenodd" d="M494.082 178.764L276.269 550.029L267.744 545.028L485.556 173.763L494.082 178.764Z" fill="#3DB7FF"/>
<path d="M279.316 183.621C280.016 183.238 280.633 182.719 281.131 182.096C281.63 181.472 281.999 180.755 282.217 179.988C282.436 179.22 282.499 178.417 282.405 177.624C282.31 176.832 282.058 176.066 281.665 175.372C281.271 174.677 280.744 174.068 280.113 173.579C279.481 173.091 278.759 172.732 277.989 172.525C277.218 172.318 276.413 172.267 275.622 172.373C274.831 172.48 274.07 172.743 273.381 173.147C272.017 173.947 271.023 175.251 270.613 176.778C270.203 178.305 270.41 179.932 271.19 181.307C271.969 182.683 273.258 183.696 274.779 184.129C276.299 184.562 277.929 184.38 279.316 183.621Z" fill="#3DB7FF"/>
<path fill-rule="evenodd" clip-rule="evenodd" d="M275.485 176.862C275.28 176.973 275.1 177.123 274.954 177.304C274.808 177.486 274.7 177.695 274.635 177.918C274.571 178.142 274.552 178.376 274.58 178.607C274.607 178.839 274.68 179.062 274.795 179.265C274.91 179.467 275.064 179.645 275.248 179.787C275.432 179.929 275.643 180.033 275.868 180.093C276.093 180.152 276.328 180.167 276.558 180.135C276.789 180.103 277.011 180.025 277.211 179.906C277.605 179.672 277.891 179.293 278.009 178.85C278.126 178.408 278.066 177.937 277.84 177.538C277.614 177.14 277.241 176.846 276.8 176.719C276.36 176.593 275.888 176.644 275.485 176.862ZM267.396 183.457C264.594 178.513 266.331 172.234 271.275 169.432C276.219 166.63 282.498 168.367 285.3 173.311C288.102 178.255 286.365 184.534 281.421 187.336C276.477 190.138 270.198 188.401 267.396 183.457Z" fill="#3DB7FF"/>
<path d="M169.308 365.329C170.002 364.943 170.613 364.423 171.106 363.799C171.598 363.175 171.962 362.461 172.177 361.696C172.392 360.931 172.453 360.131 172.357 359.342C172.261 358.553 172.01 357.791 171.618 357.1C171.226 356.409 170.701 355.802 170.074 355.315C169.447 354.827 168.729 354.469 167.962 354.26C167.196 354.051 166.395 353.996 165.607 354.099C164.819 354.201 164.059 354.458 163.371 354.855C161.996 355.649 160.989 356.955 160.572 358.487C160.155 360.02 160.36 361.655 161.144 363.037C161.927 364.419 163.225 365.435 164.754 365.865C166.283 366.294 167.92 366.101 169.308 365.329Z" fill="#3DB7FF"/>
<path fill-rule="evenodd" clip-rule="evenodd" d="M165.477 358.57C165.274 358.681 165.095 358.832 164.95 359.013C164.806 359.195 164.698 359.403 164.635 359.626C164.572 359.849 164.553 360.082 164.581 360.313C164.608 360.543 164.681 360.765 164.796 360.967C164.91 361.169 165.063 361.346 165.247 361.488C165.43 361.63 165.639 361.734 165.863 361.794C166.087 361.855 166.321 361.87 166.551 361.839C166.78 361.808 167.002 361.732 167.202 361.615C167.599 361.383 167.889 361.004 168.008 360.559C168.128 360.115 168.068 359.642 167.841 359.242C167.614 358.842 167.239 358.547 166.797 358.421C166.354 358.295 165.88 358.349 165.477 358.57ZM157.388 365.165C154.586 360.221 156.322 353.942 161.266 351.14C166.21 348.338 172.49 350.075 175.292 355.019C178.094 359.963 176.357 366.242 171.413 369.044C166.469 371.846 160.19 370.109 157.388 365.165Z" fill="#3DB7FF"/>
<path d="M491.52 181.919C492.208 181.529 492.812 181.008 493.299 180.385C493.785 179.761 494.144 179.048 494.355 178.287C494.565 177.525 494.624 176.729 494.527 175.944C494.43 175.159 494.179 174.402 493.789 173.714C493.405 173.016 492.886 172.402 492.262 171.906C491.638 171.41 490.922 171.044 490.156 170.827C489.389 170.61 488.587 170.547 487.796 170.642C487.006 170.738 486.241 170.989 485.548 171.382C484.855 171.775 484.247 172.301 483.759 172.931C483.271 173.56 482.913 174.28 482.705 175.049C482.497 175.818 482.444 176.621 482.549 177.411C482.654 178.201 482.914 178.962 483.315 179.65C484.102 181.039 485.409 182.058 486.948 182.484C488.486 182.909 490.131 182.706 491.52 181.919Z" fill="#3DB7FF"/>
<path fill-rule="evenodd" clip-rule="evenodd" d="M487.689 175.159C487.487 175.271 487.308 175.422 487.164 175.603C487.021 175.785 486.914 175.993 486.851 176.216C486.788 176.438 486.77 176.671 486.798 176.901C486.826 177.131 486.899 177.353 487.013 177.554C487.128 177.756 487.281 177.932 487.464 178.074C487.647 178.216 487.856 178.32 488.079 178.38C488.303 178.441 488.536 178.456 488.766 178.426C488.995 178.395 489.216 178.319 489.416 178.203C489.814 177.971 490.105 177.592 490.225 177.147C490.345 176.702 490.285 176.228 490.058 175.827C489.83 175.426 489.454 175.131 489.011 175.006C488.567 174.881 488.092 174.936 487.689 175.159ZM479.6 181.755C476.798 176.811 478.535 170.532 483.479 167.73C488.423 164.928 494.702 166.664 497.504 171.608C500.306 176.552 498.57 182.832 493.626 185.634C488.682 188.436 482.402 186.699 479.6 181.755Z" fill="#3DB7FF"/>
<path d="M481.388 541.808C482.076 541.418 482.834 541.168 483.618 541.071C484.403 540.974 485.199 541.032 485.961 541.243C486.723 541.454 487.435 541.812 488.059 542.299C488.682 542.785 489.203 543.389 489.593 544.077C490.18 545.113 490.447 546.3 490.36 547.487C490.272 548.675 489.835 549.809 489.103 550.748C488.37 551.687 487.376 552.388 486.245 552.761C485.115 553.135 483.899 553.165 482.751 552.848C481.604 552.531 480.576 551.88 479.798 550.978C479.02 550.077 478.527 548.965 478.381 547.783C478.235 546.602 478.443 545.403 478.978 544.34C479.514 543.276 480.352 542.395 481.388 541.808Z" fill="#3DB7FF"/>
<path fill-rule="evenodd" clip-rule="evenodd" d="M485.219 548.567C485.019 548.686 484.797 548.764 484.567 548.796C484.336 548.828 484.102 548.814 483.877 548.754C483.652 548.694 483.441 548.59 483.257 548.448C483.072 548.306 482.918 548.128 482.803 547.926C482.688 547.723 482.615 547.5 482.588 547.269C482.56 547.037 482.579 546.803 482.644 546.579C482.708 546.356 482.816 546.147 482.962 545.966C483.108 545.784 483.289 545.634 483.493 545.523C483.896 545.305 484.368 545.254 484.809 545.38C485.249 545.507 485.622 545.801 485.848 546.199C486.074 546.598 486.135 547.069 486.017 547.511C485.9 547.954 485.613 548.333 485.219 548.567ZM475.404 552.118C478.206 557.062 484.485 558.799 489.43 555.997C494.374 553.195 496.11 546.916 493.308 541.972C490.506 537.028 484.227 535.291 479.283 538.093C474.339 540.895 472.602 547.174 475.404 552.118Z" fill="#3DB7FF"/>
<path d="M268.977 542.824C270.367 542.037 272.012 541.834 273.551 542.26C275.09 542.685 276.397 543.705 277.184 545.094C277.971 546.484 278.174 548.129 277.748 549.668C277.322 551.207 276.303 552.514 274.913 553.301C274.225 553.691 273.467 553.941 272.683 554.038C271.898 554.135 271.102 554.076 270.34 553.865C269.578 553.655 268.865 553.296 268.241 552.809C267.618 552.323 267.096 551.718 266.707 551.031C266.317 550.343 266.066 549.585 265.97 548.8C265.873 548.015 265.931 547.219 266.142 546.457C266.353 545.695 266.712 544.982 267.198 544.359C267.685 543.735 268.289 543.214 268.977 542.824Z" fill="#3DB7FF"/>
<path fill-rule="evenodd" clip-rule="evenodd" d="M272.808 549.584C272.608 549.697 272.388 549.77 272.159 549.798C271.931 549.826 271.7 549.809 271.478 549.748C271.257 549.686 271.05 549.582 270.868 549.441C270.687 549.299 270.536 549.124 270.422 548.924C270.309 548.723 270.236 548.503 270.208 548.275C270.18 548.047 270.197 547.815 270.259 547.594C270.32 547.372 270.424 547.165 270.566 546.984C270.707 546.803 270.883 546.651 271.083 546.538C271.487 546.309 271.965 546.25 272.412 546.374C272.86 546.498 273.24 546.795 273.468 547.198C273.697 547.602 273.756 548.081 273.632 548.528C273.508 548.975 273.212 549.355 272.808 549.584ZM262.994 553.135C265.795 558.079 272.075 559.816 277.019 557.014C281.963 554.212 283.699 547.932 280.897 542.988C278.096 538.044 271.816 536.308 266.872 539.11C261.928 541.912 260.192 548.191 262.994 553.135Z" fill="#3DB7FF"/>
<path d="M591.878 360.629C593.267 359.842 594.912 359.639 596.451 360.065C597.99 360.49 599.296 361.51 600.083 362.899C600.67 363.935 600.937 365.122 600.849 366.309C600.762 367.497 600.324 368.631 599.592 369.57C598.859 370.509 597.865 371.209 596.735 371.583C595.604 371.956 594.388 371.986 593.241 371.669C592.093 371.351 591.065 370.701 590.288 369.799C589.51 368.898 589.017 367.786 588.871 366.604C588.725 365.422 588.933 364.224 589.468 363.16C590.004 362.097 590.842 361.216 591.878 360.629Z" fill="#3DB7FF"/>
<path fill-rule="evenodd" clip-rule="evenodd" d="M595.709 367.389C595.509 367.506 595.288 367.582 595.058 367.613C594.828 367.644 594.594 367.628 594.371 367.568C594.147 367.508 593.937 367.404 593.754 367.262C593.57 367.12 593.417 366.943 593.303 366.741C593.189 366.539 593.116 366.317 593.088 366.087C593.06 365.856 593.079 365.623 593.142 365.4C593.206 365.177 593.313 364.969 593.457 364.787C593.602 364.606 593.781 364.455 593.984 364.344C594.387 364.123 594.862 364.069 595.304 364.195C595.746 364.321 596.122 364.616 596.348 365.016C596.575 365.416 596.635 365.889 596.515 366.333C596.396 366.778 596.106 367.157 595.709 367.389ZM585.894 370.94C588.696 375.884 594.975 377.62 599.92 374.819C604.864 372.017 606.6 365.737 603.798 360.793C600.996 355.849 594.717 354.113 589.773 356.915C584.829 359.717 583.092 365.996 585.894 370.94ZM504.548 359.739C505.384 360.174 506.078 360.838 506.548 361.654C507.019 362.47 507.246 363.404 507.204 364.345C507.161 365.286 506.851 366.195 506.309 366.966C505.767 367.736 505.016 368.336 504.145 368.694L504.119 368.704L504.027 368.743L503.651 368.9C503.317 369.04 502.822 369.25 502.184 369.525C500.909 370.075 499.07 370.884 496.83 371.909C492.346 373.962 486.287 376.873 479.961 380.311C473.618 383.758 467.106 387.682 461.67 391.75C456.112 395.909 452.193 399.848 450.429 403.201L441.681 398.601C444.506 393.23 449.906 388.209 455.748 383.836C461.712 379.373 468.679 375.192 475.242 371.626C481.102 368.442 486.719 365.704 491.142 363.648C486.742 361.145 481.105 357.821 475.239 354.049C468.801 349.91 462.001 345.179 456.234 340.359C450.601 335.652 445.434 330.441 442.86 325.275L451.707 320.867C453.315 324.094 457.112 328.212 462.572 332.775C467.899 337.227 474.322 341.709 480.584 345.735C486.83 349.751 492.832 353.258 497.278 355.764C499.04 356.758 500.812 357.737 502.592 358.698C503.226 359.04 503.719 359.302 504.052 359.479L504.428 359.677L504.521 359.725L504.548 359.739ZM311.181 468.503C311.102 469.442 311.294 470.384 311.733 471.218C312.172 472.052 312.84 472.743 313.659 473.209C314.477 473.675 315.413 473.898 316.354 473.85C317.295 473.803 318.203 473.487 318.97 472.94L318.992 472.924L319.073 472.866L319.407 472.632C319.704 472.425 320.146 472.118 320.719 471.725C321.864 470.94 323.529 469.816 325.591 468.469C329.72 465.771 335.414 462.199 341.697 458.682C347.996 455.156 354.789 451.742 361.13 449.314C367.613 446.832 373.035 445.618 376.812 445.916L377.588 436.062C371.538 435.586 364.41 437.475 357.596 440.084C350.639 442.747 343.386 446.41 336.869 450.058C331.049 453.315 325.737 456.606 321.639 459.25C321.869 454.194 322.064 447.652 322.003 440.678C321.937 433.025 321.563 424.749 320.563 417.301C319.586 410.024 317.936 402.875 314.94 397.942L306.492 403.072C308.363 406.154 309.82 411.563 310.767 418.616C311.691 425.496 312.055 433.319 312.12 440.764C312.184 448.189 311.949 455.137 311.697 460.234C311.598 462.255 311.48 464.275 311.343 466.294C311.294 467.012 311.253 467.57 311.224 467.945L311.192 468.369L311.183 468.473L311.181 468.503Z" fill="#3DB7FF"/>
<path fill-rule="evenodd" clip-rule="evenodd" d="M437.008 473.714C437.766 474.273 438.668 474.603 439.607 474.667C440.547 474.73 441.485 474.524 442.311 474.073C443.137 473.622 443.817 472.944 444.272 472.119C444.726 471.295 444.935 470.358 444.875 469.418L444.873 469.388L444.867 469.283C444.825 468.591 444.787 467.899 444.752 467.206C444.652 465.185 444.57 463.163 444.507 461.14C444.345 456.039 444.234 449.089 444.431 441.666C444.628 434.224 445.132 426.408 446.179 419.545C447.251 412.511 448.804 407.129 450.73 404.081L442.375 398.8C439.292 403.679 437.514 410.798 436.407 418.056C435.275 425.485 434.753 433.753 434.55 441.404C434.366 448.376 434.444 454.92 434.584 459.98C430.533 457.262 425.281 453.878 419.52 450.517C413.069 446.753 405.883 442.962 398.974 440.175C392.207 437.445 385.114 435.429 379.057 435.797L379.657 445.663C383.438 445.433 388.838 446.744 395.276 449.341C401.573 451.881 408.303 455.416 414.539 459.054C420.758 462.682 426.387 466.355 430.468 469.126C432.084 470.223 433.689 471.337 435.281 472.469C435.847 472.872 436.284 473.187 436.576 473.399L436.906 473.639L436.986 473.698L437.008 473.714ZM321.235 251.126C320.478 250.566 319.576 250.234 318.636 250.169C317.696 250.105 316.757 250.31 315.93 250.762C315.103 251.214 314.422 251.892 313.969 252.718C313.515 253.544 313.306 254.482 313.368 255.422L313.37 255.452L313.376 255.556L313.401 255.981C313.544 258.553 313.656 261.126 313.736 263.7C313.897 268.8 314.008 275.751 313.812 283.174C313.615 290.616 313.11 298.432 312.064 305.295C310.992 312.329 309.439 317.711 307.512 320.759L315.867 326.04C318.951 321.16 320.729 314.042 321.835 306.784C322.968 299.355 323.49 291.087 323.692 283.436C323.877 276.464 323.799 269.92 323.659 264.86C327.709 267.578 332.962 270.962 338.723 274.323C345.174 278.087 352.36 281.878 359.269 284.665C366.035 287.395 373.128 289.411 379.186 289.043L378.586 279.177C374.804 279.407 369.404 278.096 362.966 275.499C356.67 272.959 349.939 269.424 343.703 265.786C337.485 262.158 331.855 258.485 327.775 255.714C325.716 254.322 323.68 252.898 321.666 251.441L321.337 251.201L321.257 251.142L321.235 251.126ZM445.745 255.789C445.806 254.849 445.597 253.912 445.142 253.087C444.688 252.263 444.008 251.585 443.182 251.133C442.355 250.682 441.417 250.476 440.478 250.54C439.539 250.604 438.637 250.934 437.879 251.493L437.856 251.509L437.776 251.568L437.447 251.808C435.434 253.265 433.397 254.689 431.338 256.081C427.258 258.852 421.628 262.525 415.41 266.153C409.174 269.791 402.443 273.326 396.147 275.866C389.709 278.463 384.309 279.774 380.527 279.544L379.927 289.41C385.985 289.778 393.078 287.762 399.845 285.032C406.753 282.245 413.939 278.454 420.39 274.69C426.151 271.329 431.404 267.945 435.454 265.227C435.314 270.287 435.236 276.831 435.421 283.803C435.623 291.454 436.145 299.722 437.278 307.151C438.384 314.409 440.162 321.528 443.246 326.407L451.601 321.126C449.675 318.078 448.121 312.696 447.049 305.662C446.003 298.799 445.498 290.983 445.301 283.541C445.105 276.118 445.216 269.168 445.377 264.067C445.458 261.493 445.57 258.92 445.712 256.348L445.737 255.924L445.744 255.819L445.745 255.789Z" fill="#3DB7FF"/>
<path fill-rule="evenodd" clip-rule="evenodd" d="M253.144 364.366C252.309 363.931 251.616 363.266 251.146 362.45C250.676 361.634 250.449 360.701 250.491 359.76C250.533 358.82 250.843 357.911 251.385 357.14C251.926 356.37 252.676 355.77 253.547 355.412L253.573 355.401L253.665 355.363L254.041 355.206C256.328 354.235 258.602 353.231 260.861 352.196C265.346 350.143 271.405 347.232 277.731 343.795C284.074 340.348 290.586 336.424 296.022 332.356C301.58 328.196 305.499 324.257 307.263 320.904L316.011 325.504C313.186 330.876 307.786 335.897 301.944 340.269C295.98 344.733 289.013 348.913 282.45 352.479C276.59 355.664 270.973 358.402 266.55 360.457C270.95 362.96 276.587 366.285 282.453 370.056C288.891 374.195 295.691 378.927 301.458 383.746C307.091 388.454 312.258 393.664 314.832 398.83L305.985 403.238C304.377 400.011 300.58 395.893 295.12 391.33C289.793 386.879 283.37 382.396 277.108 378.371C270.862 374.355 264.86 370.847 260.414 368.341C258.171 367.076 255.913 365.838 253.64 364.627L253.264 364.429L253.171 364.38L253.144 364.366Z" fill="#3DB7FF"/>
</g>
</g>
<defs>
<clipPath id="clip0_249_1515">
<rect width="751" height="751" fill="white"/>
</clipPath>
</defs>
</svg>
