<svg xmlns="http://www.w3.org/2000/svg" width="751" height="751" fill="none" viewBox="0 0 751 751">
  <g clip-path="url(#a)">
    <path fill="#84D0FF" fill-rule="evenodd" d="m182.789 524.586 8.473-56.991 13.035 1.937-8.472 56.992-13.036-1.938Z" clip-rule="evenodd"/>
    <path fill="#84D0FF" fill-rule="evenodd" d="m146.748 438.938 53.031 22.53-5.153 12.13-53.031-22.53 5.153-12.13Zm434.053 88.443-8.473-56.992-13.035 1.938 8.472 56.992 13.036-1.938Z" clip-rule="evenodd"/>
    <path fill="#84D0FF" fill-rule="evenodd" d="m616.842 441.733-53.031 22.53 5.154 12.129 53.03-22.53-5.153-12.129ZM337.318 612.641l45.577-35.25-8.063-10.424-45.577 35.249 8.063 10.425Z" clip-rule="evenodd"/>
    <path fill="#84D0FF" fill-rule="evenodd" d="m429.654 602.216-45.577-35.249-8.063 10.424 45.577 35.25 8.063-10.425ZM184.466 200.66l8.473 56.991 13.035-1.938-8.472-56.991-13.036 1.938Z" clip-rule="evenodd"/>
    <path fill="#84D0FF" fill-rule="evenodd" d="m148.425 286.308 53.03-22.53-5.153-12.13-53.03 22.53 5.153 12.13Zm434.053-88.443-8.473 56.992-13.035-1.938 8.472-56.992 13.036 1.938Z" clip-rule="evenodd"/>
    <path fill="#84D0FF" fill-rule="evenodd" d="m618.519 283.513-53.031-22.53 5.153-12.129 53.031 22.529-5.153 12.13ZM338.994 112.604l45.578 35.25-8.063 10.425-45.577-35.25 8.062-10.425Z" clip-rule="evenodd"/>
    <path fill="#84D0FF" fill-rule="evenodd" d="m431.33 123.029-45.577 35.25-8.062-10.425 45.577-35.249 8.062 10.424Z" clip-rule="evenodd"/>
    <path fill="#84D0FF" fill-rule="evenodd" d="m338.994 112.604 45.578 35.25-8.063 10.425-45.577-35.25 8.062-10.425Z" clip-rule="evenodd"/>
    <path fill="#84D0FF" fill-rule="evenodd" d="m431.33 123.029-45.577 35.25-8.063-10.425 45.578-35.249 8.062 10.424Z" clip-rule="evenodd"/>
    <path fill="#84D0FF" fill-rule="evenodd" d="m338.995 112.604 45.577 35.25-8.063 10.425-45.577-35.25 8.063-10.425Z" clip-rule="evenodd"/>
    <path fill="#84D0FF" fill-rule="evenodd" d="m431.331 123.029-45.577 35.25-8.063-10.425 45.577-35.249 8.063 10.424Zm-77.568-58.928 30.483 28.688-6.116 6.498-30.483-28.688 6.116-6.498Z" clip-rule="evenodd"/>
    <path fill="#84D0FF" fill-rule="evenodd" d="m415.517 69.668-30.483 28.688-6.111-6.494 30.483-28.688 6.111 6.494Zm215.488 115.509-8.834 40.917-8.72-1.883 8.835-40.916 8.719 1.882Z" clip-rule="evenodd"/>
    <path fill="#84D0FF" fill-rule="evenodd" d="m657.321 241.422-40.306-11.3 2.408-8.586 40.305 11.3-2.407 8.586Zm-523.578-54.275 8.835 40.916 8.72-1.882-8.835-40.917-8.72 1.883Z" clip-rule="evenodd"/>
    <path fill="#84D0FF" fill-rule="evenodd" d="m107.428 243.391 40.306-11.299-2.408-8.586-40.305 11.299 2.407 8.586ZM352.086 663.44l30.483-28.688-6.116-6.498-30.483 28.688 6.116 6.498Z" clip-rule="evenodd"/>
    <path fill="#84D0FF" fill-rule="evenodd" d="m413.84 657.601-30.483-28.688-6.111 6.494 30.483 28.688 6.111-6.494Zm215.489-115.509-8.835-40.917-8.72 1.883 8.835 40.916 8.72-1.882Z" clip-rule="evenodd"/>
    <path fill="#84D0FF" fill-rule="evenodd" d="m655.644 485.847-40.306 11.3 2.408 8.586 40.305-11.3-2.407-8.586Zm-523.577 54.275 8.835-40.917 8.719 1.883-8.835 40.917-8.719-1.883Z" clip-rule="evenodd"/>
    <path fill="#84D0FF" fill-rule="evenodd" d="m105.752 483.877 40.305 11.3-2.407 8.586-40.306-11.3 2.408-8.586Zm281.843-447.89-1.468 655.679-13.178-.029 1.467-655.68 13.179.03Z" clip-rule="evenodd"/>
    <path fill="#84D0FF" fill-rule="evenodd" d="M666.394 536.029 92.192 203.21l6.61-11.402 574.201 332.819-6.609 11.402Z" clip-rule="evenodd"/>
    <path fill="#84D0FF" fill-rule="evenodd" d="M672.397 201.414 97.473 534.141l-6.6-11.406 574.922-332.727 6.602 11.406Z" clip-rule="evenodd"/>
    <path fill="#84D0FF" d="M380.878 45.42a9.29 9.29 0 1 0 0-18.579 9.29 9.29 0 0 0 0 18.58Z"/>
    <path fill="#84D0FF" fill-rule="evenodd" d="M380.878 33.43a2.7 2.7 0 1 0 0 5.401 2.7 2.7 0 0 0 0-5.4Zm-15.879 2.701c0-8.77 7.109-15.879 15.879-15.879s15.879 7.11 15.879 15.88c0 8.769-7.109 15.878-15.879 15.878s-15.879-7.11-15.879-15.879Z" clip-rule="evenodd"/>
    <path fill="#84D0FF" d="M94.924 205.676a9.29 9.29 0 1 0-9.29-9.289 9.29 9.29 0 0 0 9.29 9.289Z"/>
    <path fill="#84D0FF" fill-rule="evenodd" d="M94.924 193.686a2.7 2.7 0 1 0 0 5.401 2.7 2.7 0 0 0 0-5.401Zm-15.88 2.701c0-8.77 7.11-15.879 15.88-15.879 8.769 0 15.879 7.109 15.879 15.879 0 8.769-7.11 15.879-15.88 15.879s-15.879-7.11-15.879-15.879Z" clip-rule="evenodd"/>
    <path fill="#84D0FF" d="M667.077 204.599a9.29 9.29 0 0 0 9.29-9.29 9.29 9.29 0 1 0-9.29 9.29Z"/>
    <path fill="#84D0FF" fill-rule="evenodd" d="M667.077 192.609a2.7 2.7 0 1 0 0 5.4 2.7 2.7 0 0 0 0-5.4Zm-15.879 2.7c0-8.77 7.109-15.879 15.879-15.879s15.879 7.109 15.879 15.879-7.109 15.879-15.879 15.879-15.879-7.109-15.879-15.879Z" clip-rule="evenodd"/>
    <path fill="#84D0FF" d="M379.639 680.073a9.29 9.29 0 1 1 0 18.58 9.29 9.29 0 0 1 0-18.58Z"/>
    <path fill="#84D0FF" fill-rule="evenodd" d="M379.639 692.063a2.7 2.7 0 1 1 0-5.4 2.7 2.7 0 0 1 0 5.4Zm-15.879-2.7c0 8.769 7.11 15.879 15.879 15.879 8.77 0 15.879-7.11 15.879-15.879 0-8.77-7.109-15.879-15.879-15.879-8.769 0-15.879 7.109-15.879 15.879Z" clip-rule="evenodd"/>
    <path fill="#84D0FF" d="M93.685 519.817a9.29 9.29 0 1 1 0 18.58 9.29 9.29 0 0 1 0-18.58Z"/>
    <path fill="#84D0FF" fill-rule="evenodd" d="M93.685 531.807a2.7 2.7 0 1 1 0-5.4 2.7 2.7 0 0 1 0 5.4Zm-15.88-2.7c0 8.77 7.11 15.879 15.88 15.879s15.879-7.109 15.879-15.879-7.109-15.879-15.88-15.879c-8.769 0-15.878 7.109-15.878 15.879Z" clip-rule="evenodd"/>
    <path fill="#84D0FF" d="M665.838 520.895a9.29 9.29 0 1 1 0 18.58 9.29 9.29 0 0 1 0-18.58Z"/>
    <path fill="#84D0FF" fill-rule="evenodd" d="M665.838 532.885a2.7 2.7 0 1 1 0-5.4 2.7 2.7 0 0 1 0 5.4Zm-15.879-2.7c0 8.769 7.11 15.879 15.879 15.879 8.77 0 15.879-7.11 15.879-15.879 0-8.77-7.109-15.879-15.879-15.879-8.769 0-15.879 7.109-15.879 15.879Zm-329.851-12.899-13.433-34.836 9.223-3.556 13.432 34.836-9.222 3.556Z" clip-rule="evenodd"/>
    <path fill="#84D0FF" fill-rule="evenodd" d="m272.975 479.607 37.095-4.242 1.123 9.82-37.095 4.242-1.123-9.82Zm273.564-88.565-22.985-29.423-7.789 6.085 22.985 29.423 7.789-6.085Z" clip-rule="evenodd"/>
    <path fill="#84D0FF" fill-rule="evenodd" d="m538.43 331.247-22.698 29.645 7.848 6.008 22.698-29.644-7.848-6.009ZM436.605 517.574l14.432-34.434-9.116-3.821-14.432 34.435 9.116 3.82Z" clip-rule="evenodd"/>
    <path fill="#84D0FF" fill-rule="evenodd" d="m484.805 481.271-36.957-5.311-1.406 9.784 36.957 5.31 1.406-9.783ZM217.656 334.306l22.985 29.422 7.789-6.085-22.985-29.422-7.789 6.085Z" clip-rule="evenodd"/>
    <path fill="#84D0FF" fill-rule="evenodd" d="m225.765 394.1 22.698-29.644-7.848-6.009-22.698 29.645 7.848 6.008Zm216.537-189.19 13.432 34.837-9.222 3.556-13.432-34.837 9.222-3.556Z" clip-rule="evenodd"/>
    <path fill="#84D0FF" fill-rule="evenodd" d="m489.434 242.589-37.094 4.242-1.123-9.82 37.094-4.242 1.123 9.82Zm-212.17-8.376 36.957 5.311-1.406 9.783-36.957-5.31 1.406-9.784Z" clip-rule="evenodd"/>
    <path fill="#84D0FF" fill-rule="evenodd" d="m333.174 211.514-14.432 34.434-9.116-3.82 14.433-34.435 9.115 3.821Z" clip-rule="evenodd"/>
    <path fill="#84D0FF" fill-rule="evenodd" d="m277.264 234.213 36.957 5.311-1.406 9.783-36.957-5.31 1.406-9.784Z" clip-rule="evenodd"/>
    <path fill="#84D0FF" fill-rule="evenodd" d="m333.174 211.514-14.432 34.434-9.116-3.82 14.433-34.435 9.115 3.821Z" clip-rule="evenodd"/>
    <path fill="#84D0FF" fill-rule="evenodd" d="m277.264 234.213 36.957 5.311-1.406 9.783-36.957-5.31 1.406-9.784Z" clip-rule="evenodd"/>
    <path fill="#84D0FF" fill-rule="evenodd" d="m333.174 211.514-14.432 34.434-9.116-3.82 14.433-34.434 9.115 3.82Zm-63.08-9.091 26.351 6.433-1.564 6.404-26.351-6.434 1.564-6.403Z" clip-rule="evenodd"/>
    <path fill="#84D0FF" fill-rule="evenodd" d="m306.977 186.343-8.019 25.913-6.293-1.948 8.02-25.912 6.292 1.947Zm158.389-3.969 8.092 25.89-6.289 1.966-8.092-25.89 6.289-1.966Z" clip-rule="evenodd"/>
    <path fill="#84D0FF" fill-rule="evenodd" d="m497.882 206.188-26.333 6.507-1.58-6.394 26.333-6.508 1.58 6.395ZM184.971 342.749l18.054 20.244 4.918-4.385-18.054-20.245-4.918 4.386Z" clip-rule="evenodd"/>
    <path fill="#84D0FF" fill-rule="evenodd" d="m188.695 382.881 19.112-19.248-4.674-4.641-19.113 19.248 4.675 4.641Zm272.232 158.473 8.02-25.912-6.297-1.949-8.02 25.913 6.297 1.948Z" clip-rule="evenodd"/>
    <path fill="#84D0FF" fill-rule="evenodd" d="m493.586 517.819-26.351-6.433-1.562 6.399 26.351 6.433 1.562-6.399Zm84.784-133.844-18.054-20.244-4.918 4.386 18.054 20.244 4.918-4.386Z" clip-rule="evenodd"/>
    <path fill="#84D0FF" fill-rule="evenodd" d="m574.646 343.843-19.112 19.248 4.674 4.641 19.113-19.248-4.675-4.641ZM296.717 542.13l-8.092-25.89 6.289-1.966 8.092 25.89-6.289 1.966Z" clip-rule="evenodd"/>
    <path fill="#84D0FF" fill-rule="evenodd" d="m264.201 518.316 26.333-6.508 1.58 6.395-26.333 6.507-1.58-6.394Zm16.473-342.489L489.336 545.94l-8.61 4.855-208.662-370.114 8.61-4.854Z" clip-rule="evenodd"/>
    <path fill="#84D0FF" fill-rule="evenodd" d="m597.021 369.656-430.047-4.173.096-9.883 430.047 4.172-.096 9.884Z" clip-rule="evenodd"/>
    <path fill="#84D0FF" fill-rule="evenodd" d="M494.082 178.764 276.269 550.029l-8.525-5.001 217.812-371.265 8.526 5.001Z" clip-rule="evenodd"/>
    <path fill="#84D0FF" d="M279.316 183.621a6.02 6.02 0 1 0-5.935-10.474 6.02 6.02 0 0 0 5.935 10.474Z"/>
    <path fill="#84D0FF" fill-rule="evenodd" d="M275.485 176.862a1.75 1.75 0 1 0 1.726 3.044 1.75 1.75 0 0 0-1.726-3.044Zm-8.089 6.596c-2.802-4.944-1.065-11.224 3.879-14.026 4.944-2.802 11.223-1.065 14.025 3.879 2.802 4.944 1.065 11.223-3.879 14.025-4.944 2.802-11.223 1.066-14.025-3.878Z" clip-rule="evenodd"/>
    <path fill="#84D0FF" d="M169.308 365.329a6.02 6.02 0 1 0-5.937-10.474 6.02 6.02 0 0 0 5.937 10.474Z"/>
    <path fill="#84D0FF" fill-rule="evenodd" d="M165.477 358.57a1.75 1.75 0 1 0 1.725 3.045 1.75 1.75 0 0 0-1.725-3.045Zm-8.089 6.595c-2.802-4.944-1.066-11.223 3.878-14.025 4.944-2.802 11.224-1.065 14.026 3.879 2.802 4.944 1.065 11.223-3.879 14.025-4.944 2.802-11.223 1.065-14.025-3.879Z" clip-rule="evenodd"/>
    <path fill="#84D0FF" d="M491.52 181.919a6.018 6.018 0 0 0 2.269-8.205 6.02 6.02 0 1 0-2.269 8.205Z"/>
    <path fill="#84D0FF" fill-rule="evenodd" d="M487.689 175.159a1.751 1.751 0 1 0 1.729 3.045 1.751 1.751 0 0 0-1.729-3.045Zm-8.089 6.596c-2.802-4.944-1.065-11.223 3.879-14.025 4.944-2.802 11.223-1.066 14.025 3.878 2.802 4.945 1.066 11.224-3.878 14.026-4.944 2.802-11.224 1.065-14.026-3.879Z" clip-rule="evenodd"/>
    <path fill="#84D0FF" d="M481.388 541.808a6.018 6.018 0 0 1 8.205 2.269 6.02 6.02 0 1 1-8.205-2.269Z"/>
    <path fill="#84D0FF" fill-rule="evenodd" d="M485.219 548.567a1.749 1.749 0 1 1-1.726-3.043 1.749 1.749 0 0 1 1.726 3.043Zm-9.815 3.551c2.802 4.944 9.081 6.681 14.026 3.879 4.944-2.802 6.68-9.082 3.878-14.026-2.802-4.944-9.081-6.68-14.025-3.878-4.944 2.802-6.681 9.081-3.879 14.025Z" clip-rule="evenodd"/>
    <path fill="#84D0FF" d="M268.977 542.824a6.02 6.02 0 1 1 5.936 10.477 6.02 6.02 0 0 1-5.936-10.477Z"/>
    <path fill="#84D0FF" fill-rule="evenodd" d="M272.808 549.584a1.75 1.75 0 1 1-1.725-3.046 1.75 1.75 0 0 1 1.725 3.046Zm-9.814 3.551c2.801 4.944 9.081 6.68 14.025 3.879 4.944-2.802 6.68-9.082 3.878-14.026-2.801-4.944-9.081-6.68-14.025-3.878-4.944 2.802-6.68 9.081-3.878 14.025Z" clip-rule="evenodd"/>
    <path fill="#84D0FF" d="M591.878 360.629a6.02 6.02 0 1 1 5.936 10.475 6.02 6.02 0 0 1-5.936-10.475Z"/>
    <path fill="#84D0FF" fill-rule="evenodd" d="M595.709 367.389a1.75 1.75 0 1 1-1.725-3.045 1.75 1.75 0 0 1 1.725 3.045Zm-9.815 3.551c2.802 4.944 9.081 6.68 14.026 3.878 4.944-2.801 6.68-9.081 3.878-14.025-2.802-4.944-9.081-6.68-14.025-3.878-4.944 2.801-6.681 9.081-3.879 14.025Zm-81.346-11.2a4.94 4.94 0 0 1-.403 8.954l-.026.01-.092.039-.376.157c-.334.14-.829.35-1.467.625-1.275.55-3.114 1.359-5.354 2.384-4.484 2.054-10.543 4.964-16.869 8.402-6.343 3.447-12.855 7.371-18.291 11.439-5.558 4.159-9.477 8.098-11.241 11.451l-8.748-4.6c2.825-5.371 8.225-10.392 14.067-14.764 5.964-4.464 12.931-8.645 19.494-12.211 5.86-3.184 11.477-5.922 15.9-7.978-4.4-2.503-10.037-5.827-15.903-9.599-6.438-4.139-13.238-8.87-19.005-13.69-5.633-4.707-10.8-9.917-13.374-15.084l8.847-4.408c1.608 3.227 5.405 7.345 10.865 11.908 5.327 4.452 11.75 8.934 18.012 12.96 6.246 4.016 12.248 7.523 16.694 10.029a324.89 324.89 0 0 0 5.314 2.934c.634.342 1.127.604 1.46.781l.376.198.093.048.027.015ZM311.181 468.503a4.94 4.94 0 0 0 7.789 4.437c-.001 0 0 0 0 0l.022-.016.081-.058.334-.234c.297-.207.739-.514 1.312-.907 1.145-.785 2.81-1.909 4.872-3.256 4.129-2.698 9.823-6.27 16.106-9.787 6.299-3.526 13.092-6.94 19.433-9.368 6.483-2.482 11.905-3.696 15.682-3.398l.776-9.854c-6.05-.476-13.178 1.413-19.992 4.022-6.957 2.663-14.21 6.326-20.727 9.974-5.82 3.257-11.132 6.548-15.23 9.192.23-5.056.425-11.598.364-18.572-.066-7.653-.44-15.929-1.44-23.377-.977-7.277-2.627-14.426-5.623-19.359l-8.448 5.131c1.871 3.081 3.328 8.49 4.275 15.543.924 6.88 1.288 14.703 1.353 22.148.064 7.425-.171 14.373-.423 19.47a328.229 328.229 0 0 1-.354 6.06c-.049.718-.09 1.276-.119 1.651l-.032.424-.009.105-.002.029Z" clip-rule="evenodd"/>
    <path fill="#84D0FF" fill-rule="evenodd" d="M437.008 473.714a4.944 4.944 0 0 0 7.867-4.296l-.002-.03-.006-.105a199.803 199.803 0 0 1-.115-2.077 327.935 327.935 0 0 1-.245-6.066c-.162-5.101-.273-12.051-.076-19.474.197-7.442.701-15.258 1.748-22.121 1.072-7.034 2.625-12.416 4.551-15.464l-8.355-5.281c-3.083 4.879-4.861 11.998-5.968 19.256-1.132 7.429-1.654 15.697-1.857 23.348-.184 6.972-.106 13.516.034 18.576-4.051-2.718-9.303-6.102-15.064-9.463-6.451-3.764-13.637-7.555-20.546-10.342-6.767-2.73-13.86-4.746-19.917-4.378l.6 9.866c3.781-.23 9.181 1.081 15.619 3.678 6.297 2.54 13.027 6.075 19.263 9.713 6.219 3.628 11.848 7.301 15.929 10.072a271.92 271.92 0 0 1 4.813 3.343c.566.403 1.003.718 1.295.93l.33.24.08.059.022.016s.001.001 0 0ZM321.235 251.126a4.94 4.94 0 0 0-7.867 4.296l.002.03.006.104.025.425a317.378 317.378 0 0 1 .335 7.719c.161 5.1.272 12.051.076 19.474-.197 7.442-.702 15.258-1.748 22.121-1.072 7.034-2.625 12.416-4.552 15.464l8.355 5.281c3.084-4.88 4.862-11.998 5.968-19.256 1.133-7.429 1.655-15.697 1.857-23.348.185-6.972.107-13.516-.033-18.576 4.05 2.718 9.303 6.102 15.064 9.463 6.451 3.764 13.637 7.555 20.546 10.342 6.766 2.73 13.859 4.746 19.917 4.378l-.6-9.866c-3.782.23-9.182-1.081-15.62-3.678-6.296-2.54-13.027-6.075-19.263-9.713-6.218-3.628-11.848-7.301-15.928-10.072a234.708 234.708 0 0 1-6.109-4.273l-.329-.24-.08-.059-.022-.016Zm124.51 4.663a4.943 4.943 0 0 0-7.866-4.296l-.023.016-.08.059-.329.24a234.708 234.708 0 0 1-6.109 4.273c-4.08 2.771-9.71 6.444-15.928 10.072-6.236 3.638-12.967 7.173-19.263 9.713-6.438 2.597-11.838 3.908-15.62 3.678l-.6 9.866c6.058.368 13.151-1.648 19.918-4.378 6.908-2.787 14.094-6.578 20.545-10.342 5.761-3.361 11.014-6.745 15.064-9.463-.14 5.06-.218 11.604-.033 18.576.202 7.651.724 15.919 1.857 23.348 1.106 7.258 2.884 14.377 5.968 19.256l8.355-5.281c-1.926-3.048-3.48-8.43-4.552-15.464-1.046-6.863-1.551-14.679-1.748-22.121-.196-7.423-.085-14.373.076-19.474a326.32 326.32 0 0 1 .335-7.719l.025-.424.007-.105.001-.03Z" clip-rule="evenodd"/>
    <path fill="#84D0FF" fill-rule="evenodd" d="M253.144 364.366a4.943 4.943 0 0 1 .403-8.954l.026-.011.092-.038.376-.157c.334-.14.829-.351 1.467-.626 1.275-.55 3.114-1.358 5.353-2.383 4.485-2.054 10.544-4.965 16.87-8.402 6.343-3.447 12.855-7.371 18.291-11.439 5.558-4.16 9.477-8.098 11.241-11.452l8.748 4.601c-2.825 5.371-8.225 10.392-14.067 14.764-5.964 4.464-12.931 8.644-19.494 12.21-5.86 3.185-11.477 5.923-15.9 7.978 4.4 2.503 10.037 5.828 15.903 9.6 6.438 4.138 13.238 8.87 19.005 13.689 5.633 4.708 10.8 9.918 13.374 15.084l-8.847 4.409c-1.608-3.228-5.405-7.345-10.865-11.909-5.327-4.451-11.75-8.934-18.012-12.959-6.246-4.016-12.248-7.523-16.694-10.029a321.478 321.478 0 0 0-6.774-3.715l-.376-.198-.093-.049-.027-.014Z" clip-rule="evenodd"/>
  </g>
  <defs>
    <clipPath id="a">
      <path fill="#fff" d="M0 0h751v751H0z"/>
    </clipPath>
  </defs>
</svg>
