<svg xmlns="http://www.w3.org/2000/svg" width="751" height="751" fill="none" viewBox="0 0 751 751">
  <path fill="#FFE6A2" fill-rule="evenodd" d="M372.717 218.918c4.411 0 9.352-10.68 8.231-23.186l-8.845-168.193-7.54 167.914c-.862 12.854 3.743 23.465 8.154 23.465Zm28.98 2.478c4.168.574 9.803-7.697 9.878-18.283l8.557-145.07-24.012 142.703c-1.979 10.618 1.41 20.075 5.577 20.65Zm50.573 16.99c3.825 2.196 13.428-4.606 18.682-16.01l72.317-149.18-86.388 140.78c-7.147 10.718-8.437 22.214-4.611 24.41Zm41.568 5.64c-5.335 9.143-14.341 13.511-17.67 10.938-3.328-2.574-1.558-12.463 5.445-20.685l88.927-109.374-76.702 119.121Zm17.647 25.585c-4.4 6.13-12.257 7.192-15.322 4.071-3.065-3.121-1.871-10.908 4.052-15.784l80.95-68.079-69.68 79.792Zm32.559 51.768c-9.32 5.019-19.282 4.05-20.78.118-1.498-3.931 5.169-11.446 15.432-14.81l131.315-40.772-125.967 55.464Zm-13.481 26.517c.988 4.262 8.246 7.452 15.198 4.516l101.262-25.257-104.771 9.385c-7.596 1.072-12.676 7.094-11.689 11.356Zm5.243-56.925c-10.43 6.991-22.171 7.788-24.29 3.919-2.119-3.869 4.976-13.005 16.664-18.424l144.094-69.691-136.468 84.196Zm-96.188-74.456c-.764 7.507-7.049 12.34-11.261 11.159-4.213-1.18-7.054-8.529-4.345-15.706l35.938-103.215-20.332 107.762Zm106.566 196.372c-10.58-.352-18.701-6.203-18.018-10.354.684-4.151 10.227-7.29 20.789-5.033l134.136 27.909-136.907-12.522Zm-24.993 16.132c-1.291 4.18 3.376 10.589 10.861 11.55l100.735 24.671-95.781-40.153c-7.104-2.895-14.524-.248-15.815 3.932Zm33.175-46.555c-12.532.793-23.078-4.426-22.963-8.836.116-4.409 10.844-8.734 23.671-7.536L714 376.578l-159.634 5.886Zm-337.528-36.261c.722-4.145-7.345-10.071-17.921-10.521L66.392 321.536l129.611 29.508c10.541 2.354 20.113-.697 20.835-4.841Zm-3.533-38.07c7.476 1.029 12.083 7.482 10.753 11.65-1.329 4.168-8.773 6.746-15.85 3.785l-92.111-42.034 97.208 26.599Zm.029 66.943c.156-4.408-10.342-9.724-22.88-9.048l-154.822 4.84 153.962 11.525c12.815 1.317 23.583-2.908 23.74-7.317Zm27.304-118.563c9.06 5.476 13.289 14.548 10.664 17.836-2.624 3.288-12.484 1.366-20.598-5.763l-98.917-98.639 108.851 86.566Zm29.689-1.867c3.168-3.017 2.227-10.889-3.835-15.384l-72.7-79.477 60.814 90.566c4.785 5.997 12.553 7.312 15.721 4.295Zm-51.689 24.417c11.322 5.43 17.975 15.135 15.721 18.927-2.255 3.791-13.729 2.324-24.336-4.987l-127.92-95.212 136.535 81.272Zm98.93-51.037c3.959-1.424 5.115-11.366.272-20.779L266.929 67.165l36.121 145.153c3.171 10.324 10.559 17.132 14.518 15.708Zm31.332-21.912c2.805 7.006-.521 14.202-4.801 15.11-4.28.907-10.205-4.285-11.134-11.9l-8.133-116.878L348.9 206.114Zm-58.156 33.157c3.908-2.046 3.332-13.799-3.461-24.359l-76.647-151.23 62.001 158.582c5.198 11.788 14.199 19.053 18.107 17.007Zm-35.922 269.325c5.335-9.144 14.341-13.511 17.669-10.938 3.328 2.573 1.558 12.462-5.445 20.685l-97.649 107.234 85.425-116.981Zm-2.325-29.656c-3.066-3.122-10.922-2.06-15.323 4.071l-78.869 78.339 90.14-66.626c5.922-4.876 7.117-12.663 4.052-15.784Zm25.211 51.306c5.254-11.404 14.856-18.206 18.682-16.01 3.825 2.196 2.536 13.691-4.611 24.41l-93.912 138.093 79.841-146.493Zm-52.312-99.122c-1.498-3.931-11.46-4.901-20.781.119l-139.06 54.816 144.408-40.124c10.264-3.364 16.931-10.88 15.433-14.811Zm-22.497-30.914c6.951-2.937 14.209.254 15.197 4.516.988 4.262-4.092 10.283-11.688 11.356l-116.856 9.384 113.347-25.256Zm34.244 57.522c-2.119-3.869-13.859-3.072-24.289 3.919L63.191 544.573l157.289-68.417c11.687-5.419 18.782-14.555 16.663-18.424Zm99.942 91.777c.074-10.586 5.71-18.858 9.878-18.283 4.167.574 7.556 10.032 5.577 20.65l-26.123 139.855 10.668-142.222Zm-16.782-24.562c-4.212-1.18-10.497 3.652-11.261 11.16l-24.194 105.451 39.8-100.904c2.709-7.178-.132-14.526-4.345-15.707Zm47.409 31.943c-1.121-12.506 3.819-23.186 8.231-23.186 4.411 0 9.015 10.611 8.154 23.465l-7.54 164.744-8.845-165.023Zm129.645-78.618c-2.624 3.289 1.604 12.361 10.664 17.836l112.595 84.381-102.66-96.454c-8.114-7.129-17.975-9.051-20.599-5.763Zm-15.189 35.087c-6.062-4.494-7.003-12.366-3.835-15.383 3.168-3.017 10.936-1.702 15.72 4.295l63.356 88.218-75.241-77.13Zm32.133-58.727c-2.255 3.791 4.399 13.497 15.72 18.926l141.242 79.534-132.626-93.473c-10.607-7.312-22.081-8.778-24.336-4.987Zm-83.481 90.743c-4.844-9.413-3.687-19.355.272-20.779 3.958-1.424 11.347 5.383 14.518 15.708l37.243 141.319-52.033-136.248Zm-26.259-13.977c-4.28.908-7.606 8.104-4.801 15.11l24.068 110.239-8.133-113.449c-.93-7.615-6.855-12.808-11.134-11.9Zm56.816 6.312c-6.793-10.56-7.37-22.313-3.462-24.359 3.908-2.046 12.909 5.219 18.108 17.007l64.215 154.691-78.861-147.339Z" clip-rule="evenodd"/>
</svg>
