<svg width="679" height="695" viewBox="0 0 679 695" fill="none" xmlns="http://www.w3.org/2000/svg">
<path fill-rule="evenodd" clip-rule="evenodd" d="M337.717 191.918C342.128 191.918 347.069 181.238 345.948 168.732L337.103 0.53894L329.563 168.453C328.701 181.307 333.306 191.918 337.717 191.918ZM366.697 194.396C370.865 194.97 376.5 186.699 376.575 176.113L385.132 31.0429L361.12 173.746C359.141 184.364 362.53 193.821 366.697 194.396ZM417.27 211.386C421.095 213.582 430.698 206.78 435.952 195.376L508.269 46.1959L421.881 186.976C414.734 197.695 413.444 209.19 417.27 211.386ZM458.838 217.026C453.503 226.169 444.497 230.537 441.168 227.964C437.84 225.391 439.61 215.501 446.613 207.279L535.54 97.9049L458.838 217.026ZM476.485 242.611C472.085 248.741 464.228 249.803 461.163 246.682C458.098 243.561 459.292 235.774 465.215 230.898L546.165 162.819L476.485 242.611ZM509.044 294.379C499.724 299.398 489.762 298.429 488.264 294.497C486.766 290.566 493.433 283.051 503.696 279.687L635.011 238.915L509.044 294.379ZM495.563 320.896C496.551 325.158 503.809 328.348 510.761 325.412L612.023 300.156L507.252 309.54C499.656 310.612 494.576 316.634 495.563 320.896ZM500.806 263.971C490.376 270.962 478.635 271.759 476.516 267.89C474.397 264.021 481.492 254.885 493.18 249.466L637.274 179.775L500.806 263.971ZM404.618 189.515C403.854 197.022 397.569 201.855 393.357 200.674C389.144 199.494 386.303 192.146 389.012 184.968L424.95 81.7529L404.618 189.515ZM511.184 385.887C500.604 385.535 492.483 379.684 493.166 375.533C493.85 371.382 503.393 368.243 513.955 370.5L648.091 398.409L511.184 385.887ZM486.191 402.019C484.9 406.199 489.567 412.608 497.052 413.569L597.787 438.241L502.006 398.087C494.902 395.192 487.482 397.839 486.191 402.019ZM519.366 355.464C506.834 356.257 496.288 351.038 496.403 346.628C496.519 342.219 507.247 337.894 520.074 339.092L679 349.578L519.366 355.464ZM181.838 319.203C182.56 315.058 174.493 309.133 163.917 308.683L31.3918 294.536L161.003 324.044C171.544 326.398 181.116 323.347 181.838 319.203ZM178.305 281.133C185.781 282.163 190.388 288.615 189.058 292.783C187.729 296.951 180.285 299.529 173.208 296.568L81.0968 254.534L178.305 281.133ZM178.334 348.076C178.49 343.668 167.992 338.352 155.454 339.028L0.631836 343.868L154.594 355.393C167.409 356.71 178.177 352.485 178.334 348.076ZM205.638 229.514C214.698 234.989 218.927 244.061 216.302 247.349C213.678 250.637 203.818 248.715 195.704 241.586L96.7868 142.948L205.638 229.514ZM235.327 227.646C238.495 224.629 237.554 216.757 231.492 212.262L158.792 132.785L219.606 223.351C224.391 229.348 232.159 230.663 235.327 227.646ZM183.638 252.063C194.96 257.493 201.613 267.198 199.359 270.99C197.104 274.781 185.63 273.314 175.023 266.003L47.1028 170.791L183.638 252.063ZM282.568 201.026C286.527 199.602 287.683 189.66 282.84 180.247L231.929 40.1649L268.05 185.318C271.221 195.643 278.609 202.45 282.568 201.026ZM313.9 179.114C316.705 186.12 313.379 193.316 309.099 194.224C304.819 195.131 298.894 189.939 297.965 182.324L289.832 65.4459L313.9 179.114ZM255.744 212.271C259.652 210.225 259.076 198.472 252.283 187.912L175.636 36.6819L237.637 195.264C242.835 207.052 251.836 214.317 255.744 212.271ZM219.822 481.596C225.157 472.453 234.163 468.085 237.491 470.658C240.819 473.231 239.049 483.12 232.046 491.343L134.397 598.577L219.822 481.596ZM217.497 451.94C214.431 448.818 206.575 449.88 202.174 456.011L123.305 534.35L213.445 467.724C219.367 462.848 220.562 455.061 217.497 451.94ZM242.708 503.246C247.962 491.842 257.564 485.04 261.39 487.236C265.215 489.432 263.926 500.927 256.779 511.646L162.867 649.739L242.708 503.246ZM190.396 404.124C188.898 400.193 178.936 399.224 169.615 404.243L30.5548 459.059L174.963 418.935C185.227 415.571 191.894 408.055 190.396 404.124ZM167.899 373.21C174.85 370.274 182.108 373.464 183.096 377.726C184.084 381.988 179.004 388.009 171.408 389.082L54.5518 398.466L167.899 373.21ZM202.143 430.732C200.024 426.863 188.284 427.66 177.854 434.651L28.1908 517.573L185.48 449.156C197.167 443.737 204.262 434.601 202.143 430.732ZM302.085 522.509C302.159 511.923 307.795 503.651 311.963 504.226C316.13 504.8 319.519 514.258 317.54 524.876L291.417 664.731L302.085 522.509ZM285.303 497.947C281.091 496.767 274.806 501.599 274.042 509.107L249.848 614.558L289.648 513.654C292.357 506.476 289.516 499.128 285.303 497.947ZM332.712 529.89C331.591 517.384 336.531 506.704 340.943 506.704C345.354 506.704 349.958 517.315 349.097 530.169L341.557 694.913L332.712 529.89ZM462.357 451.272C459.733 454.561 463.961 463.633 473.021 469.108L585.616 553.489L482.956 457.035C474.842 449.906 464.981 447.984 462.357 451.272ZM447.168 486.359C441.106 481.865 440.165 473.993 443.333 470.976C446.501 467.959 454.269 469.274 459.053 475.271L522.409 563.489L447.168 486.359ZM479.301 427.632C477.046 431.423 483.7 441.129 495.021 446.558L636.263 526.092L503.637 432.619C493.03 425.307 481.556 423.841 479.301 427.632ZM395.82 518.375C390.976 508.962 392.133 499.02 396.092 497.596C400.05 496.172 407.439 502.979 410.61 513.304L447.853 654.623L395.82 518.375ZM369.561 504.398C365.281 505.306 361.955 512.502 364.76 519.508L388.828 629.747L380.695 516.298C379.765 508.683 373.84 503.491 369.561 504.398ZM426.377 510.71C419.584 500.15 419.007 488.397 422.915 486.351C426.823 484.305 435.824 491.57 441.023 503.358L505.238 658.049L426.377 510.71Z" fill="#F9D164"/>
</svg>
