<svg width="1141" height="328" viewBox="0 0 1141 328" fill="none" xmlns="http://www.w3.org/2000/svg">
<path d="M333.1 165.119L326.626 171.253C321.969 166.672 316.858 163.208 311.293 160.86C305.765 158.475 300.37 157.283 295.108 157.283C288.558 157.283 282.312 158.892 276.368 162.11C270.462 165.328 265.881 169.7 262.625 175.228C259.369 180.717 257.741 186.529 257.741 192.662C257.741 198.947 259.426 204.928 262.795 210.607C266.165 216.248 270.821 220.697 276.765 223.952C282.709 227.17 289.221 228.78 296.301 228.78C304.895 228.78 312.164 226.357 318.107 221.511C324.051 216.665 327.572 210.38 328.67 202.657H302.036V194.593H338.04C337.964 207.503 334.122 217.763 326.512 225.372C318.94 232.944 308.794 236.73 296.073 236.73C280.627 236.73 268.398 231.468 259.388 220.943C252.46 212.841 248.996 203.471 248.996 192.832C248.996 184.92 250.983 177.556 254.958 170.742C258.934 163.927 264.385 158.608 271.314 154.784C278.242 150.922 286.079 148.991 294.824 148.991C301.904 148.991 308.567 150.279 314.814 152.853C321.06 155.39 327.156 159.478 333.1 165.119Z" fill="black"/>
<path d="M183.111 151.093L222.068 234.629H213.096L199.977 207.143H163.973L150.912 234.629H141.599L181.067 151.093H183.111ZM182.089 168.811L167.721 199.079H196.286L182.089 168.811Z" fill="black"/>
<path d="M44.9878 234.629V151.093H62.3083C74.8018 151.093 83.8691 152.096 89.5101 154.103C97.6119 156.942 103.934 161.864 108.478 168.868C113.058 175.872 115.349 184.219 115.349 193.911C115.349 202.278 113.532 209.642 109.897 216.002C106.301 222.363 101.606 227.057 95.8136 230.086C90.059 233.115 81.9761 234.629 71.5649 234.629H44.9878ZM52.995 226.735H62.6491C74.1961 226.735 82.2033 226.016 86.6707 224.577C92.9553 222.533 97.8959 218.861 101.492 213.56C105.089 208.222 106.887 201.71 106.887 194.025C106.887 185.961 104.938 179.071 101.038 173.354C97.1387 167.637 91.7059 163.719 84.7398 161.599C79.5153 160.009 70.9023 159.214 58.901 159.214H52.995V226.735Z" fill="black"/>
<path d="M0 151.093H8.34793V234.629H0V151.093Z" fill="black"/>
<path d="M598.886 68.9668C598.676 68.941 598.58 69.0557 598.68 69.3858C598.68 69.3858 608.911 82.871 610.455 88.7749C611.708 93.5643 611.189 99.43 611.08 100.506C606.487 99.5621 600.991 89.6232 600.991 89.6232C600.991 89.6232 602.41 94.5117 600.597 95.9795C596.494 99.2999 580.221 92.1863 577.437 91.5424C575.146 91.0121 573.393 90.2834 572.951 90.9716C572.188 92.1602 574.795 92.7046 577.625 94.5271C579.742 95.8913 592.372 102.706 590.62 104.949C584.202 113.17 560.527 112.472 560.527 112.472C560.527 112.472 567.794 114.723 566.518 117.025C564.669 120.361 557.847 122.458 557.847 122.458C557.847 122.458 560.989 121.238 561.401 124.324C562.131 129.801 552.983 138.86 552.983 138.86C552.983 138.86 561.498 132.712 565.291 135.992C567.451 137.859 561.767 145.984 561.767 145.984C561.767 145.984 585.757 132.375 588.842 132.181C593.312 131.901 594.66 133.153 589.01 140.952C584.735 146.853 579.926 163.676 579.926 163.676C579.926 163.676 585.577 158.421 588.117 161.208C591.432 164.847 588.859 174.351 588.859 174.351C588.859 174.351 590.011 171.365 592.665 173.784C596.038 176.858 594.66 185.238 594.66 185.238C594.66 185.238 596.525 177.205 600.862 175.506C604.275 174.169 603.839 177.607 603.839 177.607C603.839 177.607 604.408 167.855 608.913 165.611C612.363 163.892 615.264 170.963 615.264 170.963C615.264 170.963 618.749 153.18 617.073 146.217C614.859 137.016 614.846 136.002 618.896 137.802C621.691 139.044 640.458 160.277 640.458 160.277C640.458 160.277 638.339 150.76 641.077 149.767C645.886 148.021 651.41 156.673 651.41 156.673C651.41 156.673 645.894 144.678 649.249 140.25C650.278 138.891 652.46 140.604 652.46 140.604C652.46 140.604 645.433 133.429 645.014 129.688C644.725 127.108 652.866 127.605 652.866 127.605C652.866 127.605 632.386 122.022 629.622 112.164C628.873 109.496 643.221 106.001 645.442 106.097C647.188 106.173 650.543 106.114 650.597 105.457C650.654 104.768 648.771 104.265 647.85 104.495C645.102 105.184 626.46 105.063 623.84 100.384C622.725 98.3945 623.128 96.4712 623.128 96.4712C623.128 96.4712 618.73 99.5209 614.503 100.395C614.258 97.4371 613.731 92.0174 612.926 88.8923C611.334 82.7109 604.19 73.4461 601.03 70.4098C600.359 69.7646 599.348 69.0237 598.886 68.9668ZM592.927 99.0433C592.927 99.0433 597.884 101.187 600.451 102.002C603.931 103.107 611.094 104.606 611.094 104.606C611.094 104.606 618.332 105.661 621.979 106.003C624.691 106.257 630.148 106.489 630.148 106.489L621.727 107.252C618.662 107.53 615.744 106.828 612.686 106.772L623.994 120.436L635.315 123.263L626.306 122.627L630.941 129.116L638.697 133.087L632.74 131.701L642.787 145.139L633.761 136.021L633.493 140.893C633.493 140.893 632.545 135.519 631.431 133.15C630.254 130.649 625.013 123.477 625.013 123.477C620.187 118.41 621.784 118.504 610.75 109.177C610.75 109.177 606.212 130.583 606.079 132.284C605.8 135.858 607.571 137.093 608.548 140.743C609.826 145.512 612.717 157.571 612.717 157.571L609.412 148.085L605.209 137.306L602.156 149.541L603.98 159.895L601.525 152.663L597.63 171.218L599.044 160.633L594.219 166.566L599.035 158.528L600.332 150.671L590.625 154.925L597.812 150.222L600.719 148.759L603.628 133.224L589.623 147.55C593.639 141.76 603.74 133.234 605.345 126.048L608.135 109.196C608.135 109.196 595.756 113.303 588.659 117.289C585.562 119.028 580.939 120.913 577.653 124.385C575.311 126.86 572.229 132.558 572.229 132.558L574.657 127.005L563.27 130.96L576.668 123.157L571.4 123.027L578.471 121.053L586.39 116.318L575.403 116.138L589.826 115.04L607.474 106.005C607.474 106.005 602.248 104.363 599.779 103.177C597.385 102.027 592.927 99.0433 592.927 99.0433ZM623.437 182.238C622.457 182.228 621.47 182.753 620.917 183.685C620.273 184.77 620.399 186.1 621.134 186.976L621.142 186.964C621.17 186.997 621.204 187.026 621.233 187.059C621.204 187.028 621.162 187.008 621.134 186.976L617.055 193.816L615.365 187.324L614.122 187.994L616.069 195.47L610.895 204.144L607.468 194.829C607.354 194.536 607.095 194.334 606.786 194.298C606.744 194.294 606.704 194.289 606.663 194.292C606.643 194.292 606.623 194.294 606.603 194.296C606.583 194.297 606.563 194.3 606.543 194.304C606.539 194.304 606.535 194.305 606.529 194.306C606.515 194.308 606.499 194.312 606.485 194.316C606.471 194.32 606.456 194.322 606.442 194.326C606.438 194.327 606.434 194.328 606.428 194.33C606.41 194.336 606.391 194.342 606.373 194.348C605.92 194.517 605.628 195.043 605.801 195.542L609.701 206.145L596.332 228.559C595.049 227.598 593.386 225.155 592.17 222.851C590.999 220.633 590.187 218.668 589.976 218.148L590.057 216.322L596.09 211.661C596.384 211.427 596.452 211.003 596.242 210.709C596.12 210.539 595.924 210.443 595.712 210.448C595.573 210.452 595.436 210.501 595.322 210.588L590.134 214.595L590.417 208.246L594.284 204.641L593.826 203.851L590.474 206.976L590.696 202.002C591.408 201.716 591.94 201.011 591.974 200.2C592.019 199.144 591.206 198.278 590.175 198.285C589.143 198.291 588.256 199.167 588.212 200.224C588.177 201.045 588.662 201.751 589.364 202.021L589.144 206.934L586.229 204.023L585.704 204.82L589.088 208.199L588.806 214.526L584.05 210.658C583.962 210.59 583.858 210.547 583.748 210.533C583.732 210.531 583.714 210.529 583.697 210.529C583.689 210.528 583.679 210.528 583.671 210.527C583.039 210.519 582.715 211.337 583.19 211.742L588.73 216.247L588.675 217.519C588.508 217.606 588.369 217.743 588.277 217.91C588.277 217.91 587.034 220.333 585.373 222.977C584.05 225.084 582.37 227.326 581.1 228.5L569.483 206.556L573.99 195.77L572.362 195.125L568.424 204.554L563.583 195.409L566.15 188.006L564.965 187.349L562.729 193.797L559.109 186.958C558.692 187.446 558.139 187.773 557.551 187.911L561.309 195.011L554.489 193.31L554.356 194.718L562.188 196.672L566.942 205.653L556.943 204.539L556.665 206.346L567.976 207.605L579.553 229.474C577.99 230.096 575.116 230.371 572.59 230.341C569.681 230.306 567.187 229.999 567.187 229.999C566.982 229.976 566.771 230.029 566.593 230.148L565.738 229.635L564.973 222.191L563.647 222.4L564.303 228.773L558.755 225.44L557.924 220.518L557.006 220.546L557.728 224.822L553.617 222.352C553.627 222.282 553.635 222.21 553.638 222.138C553.682 221.082 552.869 220.217 551.838 220.223C550.807 220.229 549.918 221.106 549.874 222.162C549.829 223.218 550.643 224.084 551.675 224.077C552.156 224.073 552.606 223.881 552.953 223.569L557.014 226.01L552.806 227.23L553.179 228.068L558.076 226.648L563.586 229.96L557.712 232.506L558.179 233.758L564.991 230.805L566.428 231.669C566.772 232.263 567.822 234.107 568.884 236.356C570.049 238.822 571.1 241.777 571.18 243.377L546.163 243.764L539.58 234.475C539.416 234.25 539.153 234.124 538.871 234.134C538.685 234.142 538.504 234.208 538.351 234.325C537.954 234.629 537.853 235.192 538.125 235.589L543.942 243.799L533.181 243.966L528.02 238.434C527.895 238.305 527.709 238.228 527.508 238.221C527.479 238.22 527.451 238.22 527.422 238.222C527.268 238.232 527.119 238.282 526.996 238.365C526.675 238.582 526.607 238.968 526.845 239.23L531.292 243.995L523.803 244.112C523.991 244.685 523.995 245.326 523.792 245.932L531.57 245.825L526.651 251.243C526.041 251.914 527.191 252.631 527.801 251.96L533.394 245.8L543.625 245.659L537.277 253.581C536.539 254.536 537.859 255.62 538.629 254.69L545.889 245.628L570.993 245.282C570.48 246.94 569.355 249.266 568.191 251.265C566.619 253.963 565.05 256.19 565.05 256.19C564.913 256.384 564.853 256.62 564.88 256.85L563.755 257.508L557.078 254.592L556.505 255.85L562.278 258.371L556.191 261.929L551.582 260.619L551.137 261.463L555.074 262.582L550.919 265.009C550.611 264.758 550.218 264.608 549.787 264.611C548.756 264.617 547.869 265.493 547.824 266.549C547.78 267.605 548.593 268.472 549.624 268.465C550.655 268.459 551.543 267.581 551.587 266.525C551.593 266.403 551.586 266.283 551.569 266.166L555.903 263.634L554.775 268.097L555.692 268.113L556.983 263.003L562.761 259.627L561.588 265.887L562.896 266.079L564.27 258.745L566.308 257.554C567.175 257.474 569.1 257.321 571.25 257.319C574.019 257.317 577.164 257.684 578.503 258.454L572.411 268.668L565.168 280.811L563.971 282.819L558.539 291.925L550.893 293.864L550.903 295.271L557.549 293.585L553.639 300.14C553.692 300.15 553.74 300.184 553.793 300.197C553.738 300.185 553.685 300.166 553.63 300.157L553.639 300.14C553.491 300.113 553.343 300.099 553.194 300.098C552.213 300.088 551.228 300.612 550.674 301.544C549.87 302.9 550.266 304.64 551.552 305.397C552.838 306.154 554.561 305.661 555.366 304.305C556.008 303.222 555.883 301.895 555.151 301.019L555.143 301.031C555.116 300.998 555.082 300.969 555.053 300.937C555.082 300.968 555.124 300.987 555.151 301.019L559.036 294.505L560.792 301.253L562.036 300.583L560.023 292.85L565.421 283.799L568.851 293.123L570.517 292.41L566.615 281.799L573.915 269.559L579.988 259.378C581.211 260.486 582.685 262.698 583.79 264.792C585.146 267.36 586.074 269.717 586.074 269.717C586.133 269.852 586.223 269.967 586.337 270.054L586.267 271.648L580.239 276.305L581.008 277.377L586.19 273.374L585.894 280.02L582.156 283.506L582.614 284.295L585.837 281.291L585.628 285.994C584.914 286.278 584.38 286.984 584.345 287.798C584.301 288.854 585.113 289.719 586.144 289.713C587.175 289.707 588.062 288.83 588.107 287.774C588.142 286.954 587.659 286.249 586.958 285.978L587.166 281.305L590.202 284.336L590.727 283.539L587.222 280.041L587.516 273.433L592.279 277.306L593.139 276.221L587.593 271.711L587.682 269.735L587.683 269.733C587.683 269.733 588.926 267.311 590.587 264.667C592.007 262.406 593.838 259.99 595.132 258.905L605.39 278.281L605.714 278.643L607.052 277.381L606.866 277.171L596.656 257.885C598.264 257.331 600.964 257.086 603.355 257.114C606.264 257.149 608.758 257.456 608.758 257.456C608.91 257.474 609.064 257.45 609.208 257.389L611.175 258.571L611.955 266.144C612.068 267.015 613.346 266.813 613.279 265.935L612.61 259.434L618.108 262.739L618.824 261.554L618.761 261.517L618.773 261.499L613.476 258.317L619.216 255.83C619.555 255.677 619.725 255.28 619.597 254.938C619.497 254.669 619.237 254.504 618.951 254.528C618.881 254.534 618.813 254.551 618.748 254.578L612.071 257.472L609.652 256.019C609.593 255.919 608.314 253.75 607.062 251.099C606.059 248.976 605.141 246.491 604.853 244.819L628.886 244.487L628.919 244.504L628.928 244.487L628.993 244.487L628.997 244.35L629.957 242.469L604.827 242.857C605.182 241.197 606.404 238.49 607.687 236.201C608.76 234.283 609.809 232.646 610.352 231.817L613.273 230.11L619.881 232.996L620.453 231.737L614.751 229.246L620.31 225.997L625.073 227.351L625.518 226.508L621.426 225.345L625.59 222.911C625.901 223.175 626.303 223.333 626.745 223.33C627.776 223.324 628.662 222.447 628.707 221.391C628.752 220.335 627.939 219.47 626.908 219.476C625.877 219.482 624.989 220.359 624.944 221.415C624.94 221.527 624.945 221.637 624.958 221.744L620.792 224.178L621.881 219.874L620.964 219.858L619.712 224.81L614.182 228.041L615.371 221.702L614.063 221.509L612.674 228.923L610.679 230.089C610.649 230.056 610.616 230.025 610.581 229.997C610.404 229.86 610.18 229.8 609.954 229.829C609.954 229.829 607.431 230.155 604.518 230.211C602.092 230.257 599.376 230.025 597.827 229.468L611.142 207.144L622.551 205.403C623.033 205.322 623.382 204.863 623.334 204.372C623.293 203.957 622.983 203.649 622.596 203.604C622.594 203.604 622.592 203.603 622.588 203.603C622.582 203.603 622.576 203.603 622.572 203.602C622.556 203.6 622.541 203.6 622.526 203.6C622.505 203.599 622.485 203.598 622.464 203.599C622.435 203.6 622.404 203.603 622.374 203.607L612.338 205.137L617.529 196.434L625.434 194.429L625.424 193.021L618.521 194.773L622.648 187.854C622.353 187.801 622.065 187.698 621.796 187.54C622.066 187.699 622.358 187.791 622.654 187.843L622.648 187.854C623.762 188.052 624.972 187.521 625.608 186.449C626.413 185.093 626.016 183.354 624.729 182.597C624.327 182.36 623.884 182.246 623.438 182.241L623.437 182.238ZM622.526 203.597C622.532 203.597 622.54 203.596 622.546 203.597C622.534 203.596 622.522 203.596 622.51 203.596C622.516 203.596 622.52 203.596 622.526 203.597ZM563.971 282.819L565.168 280.811L553.768 282.551L553.943 284.349L563.971 282.819ZM523.792 245.932L524.861 245.289C525.065 244.681 523.98 244.686 523.791 244.112L523.803 244.112C523.608 243.515 523.216 242.992 522.65 242.658C522.248 242.422 521.803 242.307 521.357 242.303C520.377 242.293 519.39 242.817 518.837 243.749C518.032 245.105 518.429 246.845 519.715 247.602C521.002 248.359 522.724 247.865 523.528 246.509C523.639 246.323 524.186 245.455 524.252 245.258L523.792 245.932ZM557.551 187.911L557.548 187.904C558.137 187.766 558.689 187.443 559.107 186.953L559.109 186.958C559.219 186.829 559.32 186.69 559.409 186.54C560.214 185.184 559.818 183.445 558.532 182.688C558.13 182.451 557.685 182.337 557.239 182.332C556.259 182.322 555.273 182.846 554.72 183.778C553.916 185.134 554.311 186.873 555.598 187.63C556.2 187.985 556.897 188.065 557.551 187.911ZM588.514 221.119L587.636 240.846L581.956 230.116C583.738 228.704 585.402 226.218 586.854 223.905C587.484 222.902 588.047 221.941 588.514 221.119ZM589.797 222.184C590.042 222.692 590.307 223.224 590.598 223.776C591.889 226.221 593.447 228.883 595.379 230.158L588.964 240.914L589.797 222.184ZM580.393 231.061L586.12 241.88L569.758 232.05C570.57 232.102 571.49 232.148 572.481 232.159C575.204 232.192 578.248 232.097 580.393 231.061ZM596.859 231.088C598.905 232.012 601.829 232.076 604.462 232.025C605.638 232.003 606.723 231.936 607.636 231.865L590.381 241.948L596.859 231.088ZM569.512 233.523L585.532 243.154L572.969 243.349C572.97 240.998 571.714 238.091 570.491 235.501C570.159 234.797 569.825 234.131 569.512 233.523ZM607.109 233.708C606.8 234.227 606.48 234.774 606.155 235.354C604.768 237.83 603.324 240.594 603.009 242.883L591.094 243.068L607.109 233.708ZM603.014 244.842C603.232 247.046 604.355 249.627 605.453 251.953C605.828 252.747 606.201 253.486 606.549 254.154L591.318 245.003L603.014 244.842ZM585.007 245.089L567.879 255.099C568.42 254.264 569.057 253.252 569.705 252.139C571.011 249.896 572.369 247.412 572.864 245.257L585.007 245.089ZM590.41 246.087L605.876 255.385C605.141 255.341 604.331 255.306 603.463 255.295C600.846 255.264 597.931 255.349 595.803 256.275L590.41 246.087ZM585.852 246.131L579.449 256.865C577.425 255.64 574.209 255.498 571.336 255.501C570.791 255.501 570.271 255.513 569.771 255.529L585.852 246.131ZM588.703 246.76L594.287 257.309C592.398 258.673 590.635 261.301 589.105 263.737C588.648 264.465 588.23 265.165 587.855 265.812L588.703 246.76ZM587.363 247.011L586.509 266.187C586.179 265.478 585.799 264.694 585.362 263.867C584.157 261.583 582.716 259.107 580.956 257.752L587.363 247.011ZM611.387 258.698L611.389 258.699C611.401 258.713 611.412 258.729 611.425 258.742C611.411 258.728 611.399 258.713 611.387 258.698ZM555.989 62.1635C555.571 62.2318 555.156 62.3335 554.736 62.3631C552.79 62.5003 550.833 62.523 548.901 62.7603C544.289 63.3269 539.651 63.7898 535.091 64.6555C522.726 67.0025 510.941 71.1044 499.737 76.8524C483.882 84.9871 470.185 95.8506 458.691 109.461C450.203 119.512 443.389 130.61 438.233 142.716C433.146 154.66 429.718 167.054 428.382 179.98C427.913 184.52 427.628 189.089 427.501 193.65C427.404 197.087 427.559 200.545 427.844 203.974C428.211 208.394 428.646 212.821 429.362 217.194C430.826 226.14 433.275 234.836 436.601 243.276C444.841 264.179 457.485 281.955 474.642 296.465C487.064 306.97 500.989 314.882 516.382 320.218C528.647 324.469 541.242 326.982 554.201 327.579C564.876 328.069 575.478 327.299 585.965 325.198C600.244 322.336 613.715 317.309 626.355 310.066C666.426 287.101 690.769 245.764 692.911 200.963C693.394 190.85 692.674 180.798 690.803 170.829C687.868 155.187 682.414 140.488 674.169 126.883C656.527 97.7767 631.313 78.2689 598.906 68.0052C592.153 65.8664 585.252 64.311 578.21 63.489C574.102 63.0095 569.971 62.7362 565.851 62.3621C565.431 62.324 565.015 62.2309 564.598 62.1635L555.989 62.1635ZM558.584 63.9548C560.235 63.9322 561.887 63.9417 563.541 63.9818C577.643 64.3245 591.322 66.9566 604.593 71.6969C605.53 72.0311 606.328 72.8016 607.132 73.4424C617.954 82.0678 626.545 91.5945 633.038 102.979C639.258 103.859 647.495 103.631 649.374 103.166C650.325 102.931 652.9 105.074 652.348 105.514C651.335 106.322 650.523 107.198 648.719 107.121C647.252 107.058 640.489 107.814 636.128 109.568C638.065 113.535 639.799 117.63 641.283 121.885C648.472 125.911 659.096 128.377 659.096 128.377C659.096 128.377 647.784 127.892 648.082 130.526C648.515 134.345 655.852 142.065 655.852 142.065C655.852 142.065 651.98 141.394 650.956 142.811C648.211 146.609 654.143 161.196 654.284 161.734C654.284 161.734 651.589 157.071 648.202 154.981C648.304 156.203 648.055 156.159 648.138 157.381C648.327 160.147 648.365 162.923 648.46 165.426C648.346 169.08 648.369 172.474 648.101 175.844C647.76 180.138 647.246 184.422 646.691 188.695C645.672 196.515 643.92 204.188 641.733 211.76C638.644 222.453 634.678 232.715 629.793 242.519L631.37 242.491L638.791 233.229C638.791 233.229 639.474 232.863 639.883 233.229C640.367 233.663 640.143 234.338 640.143 234.338L633.642 242.45L643.468 242.275L648.937 236.252C648.937 236.252 649.585 235.638 649.978 236.006C650.441 236.44 650.087 236.969 650.087 236.969L645.299 242.243L652.581 242.112C652.65 241.837 652.758 241.566 652.911 241.309C653.715 239.954 655.436 239.461 656.722 240.219C658.009 240.976 658.406 242.714 657.601 244.069C656.797 245.425 655.075 245.919 653.788 245.162C653.293 244.87 652.93 244.433 652.716 243.928L645.307 244.067L649.894 248.982C649.894 248.982 650.389 249.5 649.778 250.035C649.321 250.435 648.719 249.778 648.719 249.778L643.423 244.102L633.597 244.287L639.295 252.329C639.295 252.329 639.705 253.204 639.06 253.678C638.537 254.062 637.84 253.443 637.84 253.443L631.38 244.328L628.863 244.375L628.863 244.352L628.833 244.353C625.749 250.361 618.732 261.658 618.839 261.538L619.088 261.693L623.452 260.428C623.497 260.416 623.544 260.41 623.592 260.412C623.791 260.42 623.979 260.545 624.059 260.725C624.162 260.954 624.058 261.196 623.826 261.266L620.236 262.307L623.823 264.593C624.155 264.332 624.565 264.173 625 264.17C626.031 264.164 626.846 265.03 626.801 266.086C626.756 267.142 625.869 268.017 624.838 268.024C623.807 268.03 622.992 267.166 623.037 266.11C623.041 266.001 623.055 265.894 623.078 265.79L619.125 263.344L619.862 267.713C619.899 267.952 619.726 268.151 619.475 268.158C619.224 268.166 618.987 267.98 618.944 267.741L618.116 262.676C617.958 262.538 618.088 262.527 617.969 262.646C616.348 265.03 614.678 267.391 612.918 269.706C610.872 272.399 606.97 277.265 606.97 277.265L609.131 281.354L620.156 282.582C620.634 282.642 620.957 283.087 620.882 283.581C620.806 284.074 620.359 284.434 619.878 284.388L610.163 283.307L614.696 291.883L621.872 293.672C622.215 293.764 622.462 294.146 622.426 294.531C622.389 294.916 622.083 295.161 621.739 295.08L615.574 293.543L619.055 300.13C619.721 299.962 620.435 300.038 621.05 300.4C622.337 301.157 622.734 302.896 621.93 304.252C621.125 305.607 619.404 306.099 618.117 305.342C616.831 304.585 616.434 302.846 617.239 301.491C617.319 301.354 617.41 301.227 617.508 301.109L613.883 294.273L611.351 301.574C611.053 302.428 609.871 301.772 610.165 300.917L613.029 292.662L608.502 284.123L604.458 293.802C603.984 294.936 602.356 294.291 602.83 293.158L607.441 282.122L605.584 278.621C596.438 288.978 586.004 297.925 573.875 304.987C564.735 310.308 555.031 314.22 544.69 316.474C540.095 317.474 535.45 318.232 530.729 318.358C528.565 318.416 526.401 318.55 524.237 318.525C515.34 318.418 516.174 318.632 508.195 315.198C496.401 310.121 485.54 303.481 475.767 295.143C454.655 277.129 440.544 254.682 433.423 227.858C432.015 222.554 431.012 217.173 430.288 211.73C429.399 205.041 429.003 198.324 429.268 191.596C429.46 186.714 429.907 181.828 430.517 176.979C431.944 165.639 435.065 154.732 439.492 144.208C446.602 127.305 456.748 112.479 470.113 99.8911C486.449 84.5055 505.486 73.9559 527.178 68.2209C532.629 66.7795 538.169 65.7598 543.768 65.023C548.695 64.3746 553.632 64.0224 558.584 63.9548ZM456.637 111.985L418.274 136.84L452.659 117.817C460.934 106.946 458.863 110.166 456.637 111.985ZM454.97 96.8491C454.622 95.7671 452.686 95.113 450.966 96.0413L422.406 105.307L452.219 100.075C454.146 99.615 455.318 97.9311 454.97 96.8491ZM457.43 103.523C456.958 102.539 454.377 102.526 452.094 104.051L417.584 121.602L453.794 107.735C456.356 106.617 457.902 104.507 457.43 103.523ZM473.822 55.2051C474.83 54.669 474.682 51.6089 472.929 48.865L453.16 9.55023L469.151 50.792C470.491 53.857 472.813 55.7412 473.822 55.2051ZM487.587 50.4599C488.692 50.2198 489.55 48.343 488.827 46.5211L482.621 16.9425L484.715 47.3706C484.955 49.3528 486.483 50.6999 487.587 50.4599ZM480.742 52.2539C481.764 51.8797 482.063 49.2897 480.813 46.8428L467.684 10.4088L476.997 48.1759C477.815 50.8617 479.721 52.628 480.742 52.2539ZM459.273 70.5438C459.854 69.5546 458.138 67.0329 455.217 65.6288L419.995 44.5823L452.994 69.2661C455.73 71.1609 458.691 71.533 459.273 70.5438ZM468.554 59.2262C469.371 58.4378 469.129 56.3888 467.565 55.2236L448.811 34.5898L464.498 58.1213C465.732 59.6788 467.736 60.0145 468.554 59.2262ZM463.645 64.3733C464.322 63.5148 463.231 61.156 460.894 59.738L432.814 37.2892L458.331 62.8903C460.424 64.7397 462.968 65.2318 463.645 64.3733ZM453.846 90.6353C453.886 89.4872 451.178 88.1118 447.943 88.2988L408 89.6914L447.721 92.5609C451.027 92.8929 453.805 91.7833 453.846 90.6353ZM456.614 76.2276C456.957 75.1411 455.769 73.4648 453.841 73.2031L428.762 66.36L452.525 77.2267C454.351 77.9918 456.271 77.314 456.614 76.2276ZM454.751 83.1136C454.937 82.0337 452.856 80.4975 450.128 80.3894L415.938 76.8191L449.375 84.3919C452.095 84.9961 454.564 84.1934 454.751 83.1136ZM494.971 49.8349C496.109 49.8313 497.384 47.0458 497.095 43.7902L494.819 0L492.868 43.7315C492.645 47.0794 493.833 49.8387 494.971 49.8349ZM509.325 52.0675C510.412 52.3714 512.033 51.1075 512.231 49.1518L517.48 21.0732L508.205 47.9813C507.506 49.8526 508.238 51.7636 509.325 52.0675ZM502.447 50.4554C503.522 50.6015 504.977 48.4426 504.996 45.686L507.209 7.9025L501.009 45.0829C500.498 47.8495 501.372 50.3094 502.447 50.4554ZM545.034 64.2869L571.796 52.0237L532.642 65.2904C531.461 65.6692 527.681 67.3444 545.034 64.2869ZM514.665 54.6217C515.562 55.3292 518.263 53.9318 520.021 51.1879L543.934 15.4263L516.732 48.5029C514.515 51.0002 513.767 53.9143 514.665 54.6217ZM524.594 65.3403C525.263 66.258 527.309 66.2751 528.657 64.8583L549.367 46.8777L526.204 61.4233C524.513 62.4605 523.924 64.4227 524.594 65.3403ZM520.167 59.7775C520.923 60.5637 523.384 59.7715 525.08 57.6131L549.018 29.7588L522.312 54.6493C520.223 56.5088 519.41 58.9913 520.167 59.7775ZM487.453 155.947C484.548 155.912 481.568 156.582 478.928 158.165C475.603 160.157 472.912 163.596 471.632 168.666C469.699 164.114 468.923 161.027 467.014 159.058C466.526 158.555 465.955 158.149 465.297 157.84C464.639 157.532 463.893 157.322 463.054 157.215C462.635 157.161 462.192 157.129 461.72 157.119C460.305 157.088 458.633 157.247 456.573 157.558C450.954 158.406 447.471 159.938 445.224 162.354C442.977 164.769 442.123 167.849 441.321 171.499C440.229 176.465 440.148 179.963 441.704 182.837C443.26 185.712 446.273 187.76 450.974 190.257C452.265 190.943 453.652 191.44 455.085 191.793C453.125 192.129 451.343 192.603 449.902 193.365C449.004 193.839 448.218 194.437 447.666 195.232C447.286 195.78 447.044 196.42 446.957 197.094C446.603 197.843 446.412 198.666 446.457 199.561C446.729 204.962 448.747 209.193 451.958 212.521C455.17 215.849 459.552 218.29 464.587 220.253C464.911 220.379 465.237 220.494 465.562 220.618C465.142 221.716 461.506 231.244 459.687 237.326C459.045 239.472 458.508 241.525 458.1 243.66C458.01 243.135 457.915 242.595 457.807 242.033C457.087 238.28 455.987 233.894 454.24 231.187C452.453 228.416 447.597 225.176 443.131 222.464C438.664 219.752 434.608 217.671 434.608 217.671C434.46 217.596 434.285 217.576 434.115 217.617C433.945 217.658 433.79 217.755 433.679 217.893C433.569 218.03 433.509 218.197 433.512 218.365C433.515 218.532 433.579 218.688 433.694 218.804C433.694 218.804 435.629 220.755 437.811 223.5C439.992 226.246 442.403 229.8 443.339 232.846C444.536 236.739 444.383 240.543 445.966 242.911C447.656 245.439 450.645 247.094 453.196 248.163C455.025 248.93 456.619 249.379 457.393 249.577C457.357 250.377 457.336 251.196 457.345 252.058C457.393 256.693 458.16 264.594 457.78 269.435C457.604 271.666 457.637 272.564 457.784 274.148C457.931 275.732 458.408 278.387 459.524 280.48C461.453 284.096 464.64 287.225 464.64 287.225C465.092 287.985 466.308 287.257 465.906 286.467C463.101 280.911 461.614 278.295 460.919 275.827C460.389 273.946 460.288 272.059 460.404 268.9C461.31 269.781 462.579 270.724 464.15 271.136C465.443 271.475 466.853 271.184 468.131 270.794C469.41 270.404 470.589 269.887 471.302 269.66C471.797 269.502 472.294 269.197 472.912 268.776C473.53 268.356 474.243 267.817 475.018 267.199C476.567 265.962 478.365 264.407 480.079 262.879C483.507 259.825 486.597 256.881 486.597 256.881C486.717 256.766 486.798 256.617 486.827 256.459C486.855 256.3 486.83 256.141 486.755 256.007C486.68 255.873 486.56 255.772 486.413 255.72C486.267 255.668 486.103 255.668 485.947 255.719C485.947 255.719 482.508 256.874 478.772 258.089C475.036 259.304 470.901 260.598 469.88 260.809C468.014 261.196 465.403 262.49 463.165 263.688C462.135 264.24 461.219 264.759 460.503 265.174C459.629 262.544 459.606 259.946 459.402 256.976C458.935 250.185 459.772 242.856 462.406 236.338C464.709 230.636 466.576 222.692 466.934 221.133C471.34 222.776 475.77 224.148 479.893 224.11C484.748 224.064 489.218 221.907 492.174 216.153C492.71 215.11 492.906 213.985 492.879 212.832C492.992 212.002 492.904 211.152 492.705 210.305C494.429 211.669 496.196 212.822 497.953 213.594C500.328 214.638 502.348 214.976 503.994 214.601C505.64 214.227 506.723 213.253 507.697 212.101C509.647 209.797 511.308 206.577 515.028 203.992C521.217 199.69 521.653 194.079 517.895 189.964C515.076 186.877 510.087 184.745 504.006 184.452C502.585 184.383 501.101 184.421 499.574 184.565C501.236 183.247 502.496 181.788 503.389 180.241C505.184 177.13 505.471 173.716 504.77 170.519C504.068 167.322 502.42 164.305 500.239 161.872C498.059 159.44 495.347 157.591 492.511 156.73C490.912 156.245 489.196 155.969 487.453 155.947ZM487.533 158.018C488.996 158.049 490.44 158.282 491.794 158.693C496.456 160.108 501.373 165.34 502.609 170.969C503.227 173.783 502.97 176.659 501.453 179.288C499.936 181.917 497.134 184.349 492.441 186.181L492.445 186.189C490.543 186.844 488.654 187.638 486.897 188.459L486.835 187.132C486.829 187.004 486.795 186.882 486.733 186.774C486.672 186.665 486.585 186.575 486.48 186.508C486.375 186.441 486.254 186.4 486.127 186.387C485.999 186.374 485.868 186.391 485.742 186.435L483.144 187.347L483.157 183.539C483.149 183.328 483.062 183.134 482.912 182.994C483.068 181.947 483.261 180.949 483.5 180.17C484.113 178.166 486.337 174.477 486.337 174.477C486.337 174.477 483.542 177.81 482.828 179.773C482.591 180.426 482.271 181.589 481.945 182.857C481.774 182.943 481.631 183.081 481.538 183.248L480.248 185.599L479.134 184.488C479.129 184.483 479.124 184.479 479.118 184.474L477.254 182.709C477.094 182.582 476.887 182.523 476.673 182.542C476.459 182.562 476.253 182.659 476.096 182.816C475.605 180.562 474.889 177.825 473.955 174.929C474.831 168.788 477.357 164.244 480.501 161.418C482.666 159.472 485.106 158.334 487.533 158.018ZM460.815 159.484C461.643 159.498 462.332 159.599 462.912 159.776C464.071 160.13 464.829 160.764 465.486 161.734C466.8 163.674 467.539 167.017 469.312 171.217C471.389 176.135 472.177 180.883 472.504 183.972C472.349 184.007 472.202 184.084 472.081 184.193C471.959 184.302 471.867 184.439 471.815 184.59C470.284 183.898 468.727 183.05 467.866 182.327C467.756 182.221 467.551 182.116 467.453 182.013C467.443 182.003 467.437 181.987 467.426 181.976C467.267 181.802 466.957 181.34 466.622 180.759C466.279 180.165 465.897 179.449 465.542 178.762C464.833 177.387 464.232 176.124 464.232 176.124C464.202 176.062 464.157 176.009 464.099 175.97C464.041 175.932 463.973 175.91 463.902 175.905C463.83 175.9 463.757 175.914 463.689 175.944C463.621 175.974 463.561 176.02 463.513 176.078C463.465 176.136 463.432 176.203 463.416 176.274C463.4 176.346 463.402 176.418 463.422 176.485L463.443 176.542C463.47 176.637 464.558 180.3 466.75 182.558C466.762 182.572 466.779 182.608 466.791 182.621C466.796 182.627 466.808 182.631 466.813 182.637C466.862 182.686 466.894 182.755 466.944 182.802C467.127 182.977 467.462 183.141 467.7 183.314C468.781 184.269 470.029 185.251 471.272 186.041L466.584 184.644C466.485 184.615 466.376 184.624 466.277 184.67C466.178 184.715 466.097 184.794 466.048 184.891C465.999 184.987 465.987 185.096 466.012 185.195C466.038 185.294 466.101 185.378 466.188 185.43L470.408 187.899L470.626 188.198C469.718 188.485 468.518 188.79 466.865 189.021C462.636 189.615 457.464 189.654 453.687 187.642C449.712 185.524 447.405 183.855 446.316 181.812C445.227 179.768 445.239 177.21 446.171 173.028C446.871 169.885 447.588 166.876 449.201 164.539C450.814 162.202 453.292 160.442 457.886 159.724C459.02 159.546 459.987 159.471 460.815 159.484ZM480.199 159.836C479.961 160.028 479.724 160.227 479.492 160.435C476.953 162.718 474.845 165.968 473.547 170.092C474.591 164.888 477.091 161.694 480.093 159.895C480.128 159.874 480.164 159.856 480.199 159.836ZM450.45 161.262C449.488 162.016 448.689 162.87 448.043 163.807C446.198 166.48 445.478 169.682 444.776 172.833C443.816 177.139 443.74 180.115 445.04 182.553C445.896 184.16 447.31 185.472 449.32 186.795C446.399 185.044 444.574 183.491 443.612 181.714C442.375 179.428 442.363 176.563 443.414 171.784C444.2 168.209 444.994 165.604 446.743 163.724C447.63 162.77 448.807 161.948 450.45 161.262ZM502.841 186.29C503.307 186.288 503.764 186.296 504.213 186.317C509.601 186.563 513.731 188.432 515.961 190.874C518.934 194.129 518.866 198.602 513.238 202.512C510.604 204.342 508.921 206.432 507.586 208.245C507.12 208.754 506.694 209.2 506.28 209.548C505.487 210.215 504.805 210.532 503.823 210.539C502.841 210.545 501.431 210.201 499.307 209.267C495.605 207.639 491.003 204.087 487.224 200.782C486.863 200.318 486.518 199.887 486.196 199.5L485.921 198.992L486.345 199.096C486.514 199.131 486.693 199.114 486.86 199.046C487.823 199.716 488.816 200.28 489.734 200.572C491.28 201.065 495.59 202.976 495.59 202.976C495.59 202.976 490.325 199.543 488.721 198.956C488.304 198.803 487.879 198.615 487.455 198.406C487.484 198.295 487.491 198.182 487.476 198.072L487.076 195.332C487.086 195.31 487.097 195.287 487.106 195.265L487.755 194.858C487.833 194.871 487.909 194.881 487.982 194.888C490.634 195.141 504.225 193.073 504.225 193.073C504.225 193.073 495.159 193.925 491.933 193.567C491.544 193.524 490.595 193.392 489.448 193.226C489.433 193.018 489.341 192.828 489.189 192.694L487.002 190.79L487.001 190.77C489.141 189.712 491.607 188.617 494.129 187.779C494.153 187.771 494.179 187.761 494.204 187.753V187.755C495.667 187.273 497.172 186.845 498.43 186.65C499.969 186.413 501.442 186.298 502.841 186.29ZM470 192.9L469.354 193.389C466.927 194.689 461.738 197.532 461.738 197.532C461.738 197.532 465.744 196.174 466.974 195.681C467.282 195.558 467.874 195.368 468.579 195.154C468.693 195.277 468.846 195.36 469.016 195.391L472.595 195.873C472.785 196.373 472.931 196.848 473.096 197.299L472.482 200.18L470.655 203.342C470.63 203.385 470.62 203.433 470.626 203.48C470.632 203.526 470.654 203.568 470.688 203.599C470.722 203.63 470.766 203.648 470.814 203.65C470.862 203.652 470.91 203.638 470.951 203.61C470.951 203.61 472.422 202.633 473.173 201.745C473.285 201.613 473.387 201.429 473.49 201.205L477.089 200.747L479.422 202.372C479.529 202.445 479.655 202.491 479.788 202.506C479.922 202.52 480.059 202.503 480.19 202.455C480.364 203.009 480.475 203.489 480.482 203.828C480.503 204.791 481.248 208.156 480.52 208.857C479.217 210.11 475.589 210.988 475.589 210.988C475.589 210.988 479.8 210.643 481.32 208.821C482.165 207.808 481.602 205.228 481.139 204.093C480.882 203.461 480.641 202.876 480.416 202.333C480.519 202.264 480.608 202.174 480.677 202.071L482.187 199.709L482.342 199.772C483.051 200.618 483.811 201.508 484.634 202.431C485.851 203.796 487.169 205.203 488.542 206.564C489.23 207.614 489.831 208.677 490.228 209.682C490.876 211.323 490.966 212.716 490.471 213.675C489.359 215.825 488.132 216.933 486.765 217.503C485.398 218.072 483.782 218.104 481.912 217.729C478.172 216.98 473.616 214.588 468.854 212.726C464.298 210.946 459.444 209.217 455.711 206.89C451.977 204.563 449.425 201.746 449.071 197.661C449.021 197.088 449.139 196.714 449.4 196.338C449.662 195.962 450.115 195.576 450.783 195.223C452.12 194.517 454.248 193.995 456.666 193.67C460.972 193.091 466.104 193.066 470 192.9ZM448.304 202.609C449.658 205.123 451.871 207.103 454.464 208.719C458.464 211.212 463.415 212.953 467.929 214.716C472.546 216.521 477.097 218.969 481.322 219.816C483.435 220.239 485.517 220.261 487.453 219.455C487.968 219.241 488.463 218.964 488.939 218.632C486.481 221.609 483.472 222.659 479.998 222.691C475.532 222.733 470.342 220.929 465.202 218.926C460.272 217.004 456.059 214.633 453.031 211.496C450.681 209.06 449.044 206.164 448.304 202.609ZM490.084 204.867C492.907 207.081 495.897 209.111 498.67 210.33C500.933 211.325 502.631 211.803 504.091 211.793C504.348 211.791 504.581 211.754 504.817 211.72C504.211 212.283 503.612 212.646 502.977 212.79C502.077 212.995 500.918 212.882 498.906 211.998C496.486 210.934 493.53 208.544 490.718 205.838C490.514 205.511 490.303 205.187 490.084 204.867ZM437.619 221.039C439.207 221.9 439.849 222.183 442.299 223.671C446.719 226.355 451.558 229.763 453 231.999C454.534 234.377 455.68 238.705 456.388 242.393C456.68 243.92 456.866 245.11 456.991 246.022C456.488 245.543 455.875 244.944 455.205 244.242C453.679 242.64 451.979 240.613 451.304 239.048C450.781 237.833 451.173 236.221 450.584 234.725C450.437 234.354 450.087 233.865 449.623 233.251C449.159 232.637 448.585 231.932 448.027 231.262C446.911 229.924 445.857 228.732 445.854 228.729L445.851 228.725C445.792 228.657 445.705 228.617 445.61 228.614C445.516 228.612 445.421 228.646 445.346 228.709C445.272 228.773 445.224 228.861 445.213 228.954C445.202 229.047 445.229 229.138 445.288 229.206L445.29 229.21L445.3 229.22C445.312 229.234 446.321 230.408 447.394 231.732C447.934 232.397 448.485 233.096 448.926 233.693C449.367 234.291 449.703 234.819 449.775 235.007C450.011 235.619 449.982 236.364 449.95 237.155C449.918 237.947 449.883 238.788 450.224 239.558C451.079 241.486 454.091 245.274 455.886 246.944C456.453 247.471 456.857 247.725 457.203 247.809C457.207 247.845 457.218 247.936 457.222 247.97C456.539 247.798 455.684 247.635 453.852 246.867C451.42 245.847 448.64 244.243 447.196 242.082C446.02 240.325 445.993 236.471 444.725 232.347C443.692 228.987 441.204 225.39 438.977 222.588C438.259 221.684 438.228 221.736 437.619 221.039ZM483.32 258.044C482.13 259.16 481.35 259.92 479.172 261.86C477.471 263.377 475.688 264.918 474.178 266.123C473.424 266.725 472.736 267.243 472.172 267.627C471.607 268.011 471.139 268.259 470.97 268.312C470.101 268.59 468.981 269.087 467.816 269.442C466.652 269.798 465.476 269.987 464.62 269.763C463.3 269.416 462.304 268.639 461.577 267.916C463.03 267.832 465.39 267.47 466.36 267.241C467.3 267.018 468.969 266.255 470.463 265.54C471.947 264.829 473.203 264.178 473.222 264.168L473.243 264.158C473.327 264.114 473.394 264.04 473.428 263.952C473.463 263.864 473.463 263.769 473.428 263.687C473.393 263.605 473.326 263.543 473.241 263.513C473.156 263.483 473.06 263.487 472.973 263.526L472.954 263.536C472.935 263.544 471.657 264.119 470.165 264.756C468.662 265.397 466.934 266.098 466.201 266.299C465.108 266.597 463.522 266.665 462.228 266.647C461.679 266.639 461.205 266.616 460.815 266.594C461.359 266.265 462.197 265.759 463.759 264.923C465.953 263.748 468.605 262.498 470.059 262.196C471.427 261.913 475.369 260.651 479.113 259.433C481.304 258.72 481.964 258.495 483.32 258.044Z" fill="black"/>
<path d="M1094.41 159.213V151.093H1140.24V159.213H1121.61V234.629H1113.1V159.213H1094.41Z" fill="black"/>
<path d="M1027.45 159.213V151.093H1073.28V159.213H1054.65V234.629H1046.13V159.213H1027.45Z" fill="black"/>
<path d="M966.331 151.093L1005.29 234.629H996.316L983.198 207.143H947.194L934.132 234.629H924.819L964.287 151.093H966.331ZM965.309 168.811L950.942 199.079H979.506L965.309 168.811Z" fill="black"/>
<path d="M828.719 234.629V151.093H830.537L886.076 215.037V151.093H894.31V234.629H892.436L837.351 171.48V234.629H828.719Z" fill="black"/>
<path d="M783.677 151.093H792.025V234.629H783.677V151.093Z" fill="black"/>
</svg>
