<svg xmlns="http://www.w3.org/2000/svg" width="247" height="244" fill="none" viewBox="0 0 247 244">
  <path fill="#000" d="M147.708 43.611c-.133-.016-.194.057-.13.265 0 0 6.469 8.528 7.446 12.261.792 3.029.463 6.738.395 7.419-2.905-.597-6.38-6.882-6.38-6.882s.897 3.09-.25 4.02c-2.594 2.099-12.884-2.4-14.644-2.807-1.45-.335-2.558-.796-2.837-.36-.483.751 1.166 1.095 2.955 2.248 1.339.862 9.326 5.172 8.218 6.59-4.059 5.198-19.03 4.757-19.03 4.757s4.596 1.424 3.789 2.88c-1.17 2.109-5.484 3.435-5.484 3.435s1.987-.772 2.248 1.18c.462 3.463-5.323 9.192-5.323 9.192s5.384-3.888 7.783-1.814c1.365 1.18-2.229 6.318-2.229 6.318s15.17-8.605 17.122-8.727c2.826-.178 3.678.614.105 5.546-2.703 3.731-5.744 14.369-5.744 14.369s3.574-3.323 5.18-1.56c2.096 2.301.469 8.311.469 8.311s.729-1.888 2.407-.359c2.133 1.944 1.261 7.243 1.261 7.243s1.18-5.08 3.922-6.154c2.159-.846 1.883 1.329 1.883 1.329s.36-6.167 3.209-7.586c2.181-1.087 4.015 3.384 4.015 3.384s2.204-11.245 1.144-15.648c-1.4-5.818-1.408-6.46 1.153-5.322 1.768.786 13.635 14.213 13.635 14.213s-1.34-6.018.391-6.646c3.041-1.104 6.535 4.367 6.535 4.367s-3.489-7.585-1.367-10.385c.651-.86 2.03.224 2.03.224s-4.443-4.538-4.708-6.903c-.183-1.632 4.965-1.317 4.965-1.317s-12.95-3.53-14.698-9.764c-.474-1.688 8.599-3.898 10.004-3.837 1.104.048 3.225.01 3.26-.405.036-.435-1.155-.754-1.737-.608-1.739.435-13.526.36-15.184-2.6-.704-1.258-.45-2.474-.45-2.474s-2.781 1.928-5.454 2.481c-.155-1.87-.488-5.297-.997-7.273-1.007-3.91-5.524-9.768-7.522-11.688-.425-.408-1.064-.877-1.356-.913Zm-3.768 19.02s3.134 1.355 4.757 1.87c2.201.699 6.73 1.647 6.73 1.647s4.577.667 6.883.883c1.715.161 5.166.308 5.166.308l-5.325.482c-1.938.176-3.783-.268-5.717-.303l7.151 8.64 7.159 1.788-5.697-.402 2.931 4.103 4.904 2.511-3.767-.876 6.354 8.498-5.708-5.767-.17 3.082s-.599-3.4-1.303-4.897c-.744-1.582-4.059-6.117-4.059-6.117-3.052-3.204-2.042-3.144-9.019-9.043 0 0-2.87 13.537-2.954 14.613-.176 2.26.944 3.04 1.562 5.348.808 3.017 2.636 10.642 2.636 10.642l-2.09-5.999-2.658-6.816-1.93 7.737 1.153 6.547-1.552-4.573-2.463 11.734.894-6.694-3.052 3.752 3.046-5.083.82-4.968-6.138 2.69 4.545-2.974 1.838-.925 1.84-9.824-8.857 9.06c2.54-3.662 8.927-9.054 9.942-13.598l1.764-10.656s-7.828 2.597-12.315 5.117c-1.959 1.1-4.882 2.292-6.96 4.488-1.481 1.565-3.43 5.167-3.43 5.167l1.536-3.51-7.201 2.5 8.472-4.934-3.331-.082 4.471-1.248 5.008-2.995-6.948-.114 9.121-.694 11.16-5.713s-3.305-1.039-4.866-1.789c-1.515-.727-4.333-2.614-4.333-2.614Zm19.293 52.608a1.852 1.852 0 0 0-1.594.915c-.407.686-.327 1.527.138 2.081l.005-.007c.017.021.038.039.057.059-.018-.019-.045-.031-.062-.052l-2.58 4.326-1.069-4.106-.786.424 1.231 4.728-3.271 5.484-2.167-5.89a.528.528 0 0 0-.548-.337c-.012.001-.025.002-.037.005l-.009.001-.028.006-.027.007-.009.002a.607.607 0 0 0-.397.767l2.467 6.705-8.454 14.173c-.812-.608-1.863-2.152-2.632-3.609a34.074 34.074 0 0 1-1.387-2.974l.051-1.155 3.815-2.947a.446.446 0 0 0 .096-.602.398.398 0 0 0-.335-.165.44.44 0 0 0-.247.088l-3.28 2.534.178-4.014 2.445-2.28-.289-.5-2.12 1.976.14-3.145c.451-.181.787-.627.809-1.14.028-.668-.486-1.215-1.138-1.211-.652.004-1.213.559-1.241 1.226-.022.52.284.966.728 1.137l-.139 3.107-1.843-1.841-.332.504 2.14 2.136-.178 4.001-3.008-2.445a.405.405 0 0 0-.223-.082l-.016-.001c-.4-.005-.605.512-.305.768l3.504 2.849-.036.804a.615.615 0 0 0-.251.247s-.786 1.532-1.836 3.205c-.837 1.332-1.899 2.75-2.702 3.492l-7.346-13.876 2.85-6.821-1.03-.408-2.49 5.963-3.062-5.783 1.624-4.681-.749-.416-1.414 4.077-2.29-4.324a1.864 1.864 0 0 1-.985.603l2.377 4.489-4.313-1.075-.084.89 4.953 1.236 3.006 5.678-6.323-.704-.176 1.143 7.152.796 7.321 13.829c-.988.393-2.805.567-4.403.548a34.805 34.805 0 0 1-3.416-.216.57.57 0 0 0-.376.094l-.541-.324-.483-4.707-.839.132.415 4.03-3.508-2.108-.526-3.112-.58.018.456 2.704-2.599-1.562c.006-.045.011-.09.013-.136.028-.668-.486-1.215-1.138-1.211-.653.004-1.214.558-1.242 1.226-.029.668.486 1.215 1.138 1.211.305-.002.589-.124.809-.321l2.567 1.543-2.66.772.236.53 3.096-.898 3.484 2.095-3.714 1.61.296.791 4.307-1.867.909.546c.218.376.881 1.542 1.553 2.964.737 1.559 1.401 3.428 1.452 4.439l-15.82.246-4.162-5.874a.527.527 0 0 0-.449-.216.596.596 0 0 0-.472.92l3.679 5.191-6.805.106-3.264-3.498a.475.475 0 0 0-.324-.135l-.054.001a.55.55 0 0 0-.269.09c-.203.138-.246.381-.096.547l2.812 3.014-4.735.073c.118.363.121.768-.007 1.151l4.918-.067-3.11 3.426c-.386.424.341.878.727.453l3.536-3.895 6.47-.089-4.014 5.009c-.467.604.368 1.289.855.701l4.591-5.73 15.874-.218c-.324 1.048-1.035 2.519-1.772 3.783a47.67 47.67 0 0 1-1.986 3.114.608.608 0 0 0-.107.418l-.711.416-4.223-1.844-.362.795 3.65 1.594-3.849 2.25-2.914-.828-.282.534 2.49.707-2.628 1.535a1.11 1.11 0 0 0-.715-.252c-.652.004-1.213.558-1.241 1.226-.029.667.486 1.215 1.138 1.211.652-.004 1.213-.559 1.241-1.227a1.206 1.206 0 0 0-.011-.226l2.74-1.602-.713 2.823.58.01.816-3.232 3.654-2.135-.742 3.959.827.121.869-4.637 1.289-.754c.548-.05 1.766-.147 3.125-.148 1.751-.002 3.739.231 4.587.718l-3.853 6.459-4.58 7.678-.757 1.27-3.435 5.758-4.835 1.226.007.89 4.202-1.066-2.473 4.145c.034.006.064.028.098.036-.035-.008-.069-.019-.103-.025l.005-.011a1.66 1.66 0 0 0-.281-.027 1.85 1.85 0 0 0-1.593.915c-.509.857-.259 1.957.555 2.436.813.479 1.903.167 2.411-.69.407-.685.328-1.524-.135-2.078l-.005.007c-.018-.021-.039-.039-.057-.059.018.019.045.031.062.052l2.456-4.119 1.111 4.267.786-.424-1.273-4.89 3.414-5.723 2.169 5.896 1.053-.451-2.467-6.71 4.616-7.74 3.84-6.438c.774.701 1.706 2.099 2.405 3.423.857 1.624 1.444 3.115 1.444 3.115a.53.53 0 0 0 .167.213l-.045 1.008-3.812 2.945.486.678 3.277-2.532-.187 4.203-2.364 2.204.29.499 2.038-1.899-.132 2.974c-.452.18-.789.626-.811 1.14-.028.668.485 1.215 1.137 1.211.652-.004 1.213-.558 1.242-1.226a1.154 1.154 0 0 0-.727-1.135l.132-2.955 1.919 1.916.332-.504-2.216-2.212.186-4.178 3.012 2.449.544-.686-3.507-2.852.056-1.25v-.001s.787-1.531 1.837-3.203c.898-1.43 2.055-2.958 2.874-3.644l6.486 12.252.205.229.847-.798-.118-.133-6.456-12.195c1.016-.351 2.724-.506 4.236-.488 1.839.022 3.417.217 3.417.217a.559.559 0 0 0 .284-.043l1.244.747.493 4.79c.071.55.88.422.837-.132l-.423-4.112 3.477 2.09.453-.749-.04-.023.007-.012-3.349-2.012 3.629-1.573a.454.454 0 0 0 .242-.564.398.398 0 0 0-.538-.227l-4.222 1.83-1.529-.919a42.102 42.102 0 0 1-1.638-3.111c-.634-1.343-1.215-2.914-1.397-3.971l15.198-.21.021.01.005-.01.041-.001.003-.086.606-1.19-15.89.246c.224-1.05.997-2.762 1.808-4.209a47.804 47.804 0 0 1 1.686-2.773l1.846-1.079 4.179 1.825.362-.796-3.606-1.575 3.515-2.055 3.012.857.282-.533-2.588-.736 2.633-1.539c.197.167.451.267.73.265.652-.004 1.213-.558 1.241-1.226.028-.668-.485-1.215-1.137-1.211-.652.004-1.214.558-1.242 1.226-.003.071 0 .14.009.208l-2.635 1.539.688-2.721-.579-.01-.792 3.131-3.497 2.043.752-4.009-.827-.121-.879 4.687-1.261.738a.53.53 0 0 0-.459-.164s-1.595.206-3.437.241c-1.534.029-3.251-.117-4.231-.47l8.42-14.117 7.214-1.1a.608.608 0 0 0 .496-.652.534.534 0 0 0-.467-.486l-.005-.001h-.011l-.029-.002h-.038a.39.39 0 0 0-.058.005l-6.346.968 3.283-5.504 4.998-1.268-.006-.89-4.365 1.108 2.609-4.376a1.614 1.614 0 0 1-.538-.198c.171.1.355.158.542.192l-.004.006c.705.126 1.47-.21 1.872-.888.509-.857.258-1.957-.555-2.436a1.633 1.633 0 0 0-.817-.225v-.002Zm-.577 13.506h.013-.023.01Zm-37.027 50.097.757-1.27-7.209 1.101.111 1.136 6.341-.967Zm-25.407-23.326.676-.406c.128-.385-.558-.381-.677-.745h.008a1.652 1.652 0 0 0-.73-.919 1.645 1.645 0 0 0-.817-.225 1.851 1.851 0 0 0-1.594.915c-.508.857-.258 1.958.556 2.436.813.479 1.902.166 2.411-.691.07-.117.416-.666.458-.791l-.291.426Zm21.347-36.689-.002-.005a1.85 1.85 0 0 0 .986-.601l.001.003c.07-.081.134-.17.19-.265.509-.857.259-1.957-.554-2.436a1.638 1.638 0 0 0-.818-.224 1.847 1.847 0 0 0-1.593.914c-.509.857-.258 1.957.555 2.436a1.67 1.67 0 0 0 1.235.178Zm19.58 20.999-.555 12.474-3.592-6.785c1.127-.893 2.179-2.465 3.097-3.928.398-.634.755-1.241 1.05-1.761Zm.811.673c.155.321.323.658.507 1.007.816 1.546 1.801 3.229 3.023 4.036l-4.057 6.801.527-11.844Zm-5.946 5.614 3.621 6.841-10.347-6.216c.514.033 1.095.062 1.722.069 1.722.021 3.647-.039 5.004-.694Zm10.412.017c1.294.584 3.143.624 4.808.592a34.172 34.172 0 0 0 2.007-.101l-10.911 6.376 4.096-6.867Zm-17.293 1.54 10.13 6.09-7.944.123c.001-1.487-.793-3.325-1.567-4.963a39.71 39.71 0 0 0-.619-1.25Zm23.775.117c-.196.327-.398.674-.604 1.04-.877 1.566-1.79 3.314-1.989 4.761l-7.534.117 10.127-5.918Zm-2.59 7.04c.138 1.394.848 3.026 1.542 4.497.238.502.473.969.693 1.391l-9.631-5.786 7.396-.102Zm-11.387.156-10.831 6.33c.342-.528.745-1.168 1.155-1.872.826-1.418 1.685-2.989 1.997-4.352l7.679-.106Zm3.417.631 9.78 5.88c-.465-.028-.977-.05-1.526-.057-1.655-.019-3.498.034-4.844.62l-3.41-6.443Zm-2.882.028-4.049 6.788c-1.28-.775-3.314-.864-5.13-.863-.346.001-.674.008-.991.018l10.17-5.943Zm1.802.398 3.532 6.671c-1.195.862-2.31 2.524-3.277 4.064-.289.461-.553.903-.791 1.313l.536-12.048Zm-.847.159-.54 12.126a32.14 32.14 0 0 0-.725-1.467c-.762-1.445-1.673-3.01-2.786-3.867l4.051-6.792Zm15.192 7.39h.001l.023.028a.21.21 0 0 1-.024-.028Zm-35.032-124.28c-.264.044-.526.108-.792.127-1.23.086-2.468.1-3.69.25-2.916.36-5.849.652-8.732 1.2-7.82 1.483-15.272 4.077-22.357 7.712-10.026 5.144-18.687 12.014-25.956 20.62a82.541 82.541 0 0 0-12.936 21.03c-3.217 7.552-5.385 15.389-6.23 23.564-.296 2.87-.476 5.759-.557 8.644-.06 2.173.037 4.36.217 6.528.233 2.795.508 5.594.96 8.36.926 5.657 2.474 11.155 4.578 16.493 5.21 13.218 13.206 24.459 24.055 33.634 7.855 6.643 16.66 11.646 26.395 15.02 7.756 2.688 15.72 4.278 23.915 4.655 6.75.31 13.455-.177 20.086-1.506 9.029-1.809 17.548-4.988 25.541-9.568 25.339-14.523 40.733-40.662 42.087-68.992a81.875 81.875 0 0 0-1.333-19.056c-1.856-9.89-5.305-19.186-10.519-27.789-11.155-18.405-27.1-30.741-47.593-37.232-4.27-1.352-8.634-2.336-13.087-2.855-2.597-.304-5.21-.477-7.815-.713-.266-.024-.529-.083-.793-.126h-5.444Zm1.642 1.133a82.722 82.722 0 0 1 3.134.017c8.918.217 17.568 1.881 25.96 4.879.592.211 1.097.698 1.605 1.104 6.844 5.454 12.276 11.478 16.382 18.677 3.933.557 9.142.413 10.33.119.601-.149 2.23 1.206 1.881 1.484-.641.511-1.154 1.065-2.295 1.016-.928-.04-5.205.439-7.962 1.548a71.16 71.16 0 0 1 3.26 7.788c4.545 2.546 11.264 4.106 11.264 4.106s-7.154-.307-6.965 1.359c.274 2.415 4.913 7.297 4.913 7.297s-2.448-.425-3.096.471c-1.735 2.402 2.016 11.626 2.105 11.967 0 0-1.704-2.95-3.846-4.27.065.771-.093.744-.04 1.517.119 1.749.143 3.504.203 5.087-.072 2.311-.057 4.457-.227 6.588-.216 2.715-.54 5.424-.892 8.126-.644 4.945-1.752 9.797-3.135 14.585-1.953 6.763-4.461 13.251-7.55 19.451l.997-.018 4.693-5.857s.432-.231.69.001c.307.274.165.701.165.701l-4.111 5.13 6.213-.111 3.459-3.809s.41-.388.658-.156c.293.275.069.609.069.609l-3.028 3.335 4.605-.082c.043-.174.112-.346.209-.508.508-.857 1.596-1.168 2.41-.69.813.479 1.064 1.578.555 2.435-.508.858-1.597 1.17-2.411.691a1.637 1.637 0 0 1-.677-.78l-4.686.088 2.901 3.108s.313.328-.073.666c-.29.253-.67-.163-.67-.163l-3.349-3.589-6.214.117 3.604 5.086s.259.553-.149.852c-.331.243-.772-.148-.772-.148l-4.085-5.764-1.591.03v-.015l-.019.001c-1.95 3.799-6.387 10.943-6.32 10.867l.158.098 2.759-.8a.262.262 0 0 1 .089-.01.343.343 0 0 1 .295.198c.065.145 0 .297-.147.342l-2.27.658 2.268 1.446c.21-.165.469-.266.744-.268.652-.004 1.167.544 1.139 1.212-.028.668-.589 1.221-1.241 1.225-.653.004-1.167-.542-1.139-1.21.002-.069.011-.137.026-.203l-2.5-1.546.466 2.763c.023.151-.086.276-.245.281a.338.338 0 0 1-.336-.264l-.523-3.203c-.1-.087-.018-.093-.093-.019a103.4 103.4 0 0 1-3.194 4.465c-1.294 1.703-3.761 4.78-3.761 4.78l1.366 2.586 6.972.776a.54.54 0 0 1 .459.632.599.599 0 0 1-.635.51l-6.143-.683 2.867 5.423 4.537 1.131c.217.058.373.3.35.543-.023.244-.216.398-.434.347l-3.899-.972 2.202 4.165a1.673 1.673 0 0 1 1.261.171c.814.479 1.065 1.579.557 2.436-.509.857-1.598 1.169-2.411.69-.814-.479-1.065-1.579-.556-2.436.051-.086.108-.166.17-.241l-2.292-4.323-1.601 4.617c-.188.54-.936.125-.75-.416l1.811-5.22-2.863-5.399-2.557 6.12c-.3.717-1.329.309-1.029-.407l2.916-6.979-1.175-2.214c-5.784 6.55-12.381 12.207-20.051 16.673-5.78 3.365-11.916 5.839-18.455 7.264-2.906.632-5.843 1.111-8.829 1.192-1.368.036-2.737.121-4.105.105-5.626-.068-5.099.068-10.144-2.104-7.458-3.211-14.326-7.409-20.506-12.682-13.35-11.391-22.274-25.586-26.777-42.548-.89-3.354-1.525-6.757-1.982-10.198-.562-4.23-.813-8.478-.645-12.733.121-3.087.404-6.176.79-9.242.902-7.171 2.876-14.068 5.675-20.723 4.496-10.689 10.912-20.064 19.364-28.024 10.33-9.73 22.367-16.4 36.085-20.027 3.447-.912 6.95-1.556 10.49-2.022a80.139 80.139 0 0 1 9.37-.676ZM57.756 70.814l-24.26 15.717 21.745-12.029c5.232-6.874 3.923-4.838 2.515-3.688Zm-1.054-9.571c-.22-.684-1.444-1.098-2.532-.51L36.11 66.59l18.852-3.308c1.219-.291 1.96-1.356 1.74-2.04Zm1.556 4.22c-.299-.622-1.931-.63-3.375.335L33.061 76.895l22.897-8.77c1.62-.707 2.598-2.04 2.3-2.663ZM68.623 34.91c.637-.339.544-2.274-.565-4.009l-12.5-24.86 10.111 26.078c.848 1.939 2.316 3.13 2.954 2.791Zm8.704-3c.699-.152 1.242-1.339.784-2.491l-3.924-18.704 1.324 19.241c.152 1.254 1.118 2.105 1.817 1.954ZM73 33.042c.646-.237.835-1.874.045-3.422L64.74 6.582l5.89 23.882c.517 1.699 1.722 2.816 2.368 2.579ZM59.422 44.609c.368-.626-.717-2.22-2.564-3.108L34.585 28.19 55.452 43.8c1.73 1.198 3.602 1.433 3.97.808Zm5.87-7.157c.516-.499.363-1.794-.626-2.531L52.807 21.873l9.92 14.88c.78.985 2.047 1.197 2.564.699Zm-3.105 3.255c.428-.543-.261-2.035-1.74-2.931L42.692 23.58l16.136 16.189c1.323 1.17 2.932 1.48 3.36.938Zm-6.196 16.607c.025-.726-1.687-1.596-3.733-1.478L27 56.716l25.117 1.815c2.091.21 3.848-.491 3.874-1.217Zm1.75-9.111c.218-.687-.534-1.747-1.754-1.913L40.13 41.963l15.027 6.872c1.154.483 2.369.055 2.586-.632Zm-1.178 4.354c.118-.683-1.198-1.654-2.923-1.722l-21.62-2.258 21.144 4.789c1.72.382 3.281-.126 3.399-.809Zm25.433-21.044c.72-.002 1.526-1.763 1.344-3.822L81.9 0l-1.233 27.654c-.141 2.117.61 3.862 1.33 3.86Zm9.077 1.412c.688.192 1.713-.607 1.838-1.844l3.32-17.755-5.866 17.015c-.442 1.184.021 2.392.708 2.584Zm-4.349-1.02c.68.093 1.6-1.272 1.612-3.015l1.4-23.893-3.921 23.511c-.323 1.75.23 3.305.91 3.398Zm26.93 8.747 16.923-7.755-24.759 8.39c-.747.24-3.137 1.299 7.836-.635ZM94.45 34.54c.567.448 2.275-.436 3.387-2.171l15.121-22.614-17.2 20.916c-1.402 1.58-1.876 3.422-1.308 3.87Zm6.279 6.778c.423.58 1.717.591 2.569-.304l13.096-11.37-14.647 9.197c-1.069.656-1.442 1.897-1.018 2.477Zm-2.8-3.517c.479.497 2.034-.004 3.107-1.369l15.137-17.614-16.888 15.74c-1.32 1.176-1.834 2.745-1.356 3.243ZM77.242 98.614c-1.837-.023-3.72.402-5.39 1.402-2.103 1.26-3.804 3.435-4.614 6.641-1.223-2.879-1.713-4.831-2.92-6.076a3.651 3.651 0 0 0-1.086-.77 4.732 4.732 0 0 0-1.418-.396 8.025 8.025 0 0 0-.844-.06c-.894-.02-1.952.08-3.255.277-3.553.537-5.755 1.506-7.176 3.033-1.421 1.527-1.96 3.475-2.468 5.783-.69 3.141-.742 5.352.242 7.17.984 1.818 2.89 3.113 5.862 4.692a11.23 11.23 0 0 0 2.6.971c-1.24.213-2.367.513-3.278.994-.568.3-1.065.678-1.414 1.181a2.66 2.66 0 0 0-.448 1.177 3.226 3.226 0 0 0-.316 1.56c.172 3.416 1.447 6.091 3.478 8.196 2.031 2.104 4.802 3.648 7.986 4.889.205.08.411.152.617.231-.266.694-2.565 6.72-3.716 10.565a40.23 40.23 0 0 0-1.003 4.005 50.274 50.274 0 0 0-.185-1.028c-.455-2.373-1.152-5.147-2.256-6.859-1.13-1.752-4.2-3.801-7.025-5.516a97.023 97.023 0 0 0-5.39-3.031.462.462 0 0 0-.311-.034.512.512 0 0 0-.276.174.467.467 0 0 0-.105.299.403.403 0 0 0 .115.278s1.224 1.233 2.603 2.97c1.38 1.736 2.904 3.983 3.496 5.909.757 2.462.66 4.868 1.661 6.365 1.069 1.599 2.959 2.645 4.572 3.321a19.55 19.55 0 0 0 2.654.894 28.452 28.452 0 0 0-.03 1.569c.03 2.931.515 7.927.274 10.989-.11 1.41-.09 1.978.003 2.98s.395 2.681 1.1 4.004c1.22 2.287 3.236 4.265 3.236 4.265.286.481 1.055.02.8-.479-1.773-3.514-2.714-5.168-3.154-6.729-.335-1.189-.398-2.382-.325-4.38.573.557 1.375 1.154 2.369 1.414.817.215 1.71.031 2.517-.216.809-.247 1.554-.573 2.005-.717.313-.1.628-.293 1.019-.559.39-.266.84-.606 1.33-.997a81.334 81.334 0 0 0 3.201-2.732 188.668 188.668 0 0 0 4.122-3.793.495.495 0 0 0 .146-.267.425.425 0 0 0-.046-.285.399.399 0 0 0-.216-.182.457.457 0 0 0-.295-.001s-2.174.73-4.537 1.499c-2.362.768-4.978 1.586-5.623 1.72-1.18.245-2.831 1.063-4.246 1.821-.651.348-1.231.677-1.684.939-.552-1.663-.567-3.306-.696-5.184-.295-4.295.234-8.929 1.9-13.051 1.456-3.605 2.637-8.629 2.863-9.614 2.787 1.039 5.588 1.906 8.195 1.882 3.07-.029 5.897-1.393 7.766-5.031.339-.66.463-1.371.446-2.101.07-.524.015-1.062-.11-1.597 1.09.862 2.208 1.591 3.318 2.079 1.502.66 2.78.874 3.82.637 1.041-.237 1.726-.853 2.342-1.581 1.233-1.457 2.283-3.493 4.635-5.128 3.915-2.72 4.19-6.268 1.814-8.87-1.783-1.952-4.938-3.301-8.783-3.486a19.836 19.836 0 0 0-2.803.072c1.051-.834 1.848-1.757 2.413-2.734 1.135-1.968 1.317-4.127.873-6.149-.444-2.021-1.486-3.929-2.865-5.467-1.379-1.538-3.094-2.708-4.887-3.252a11.557 11.557 0 0 0-3.199-.495Zm.05 1.31c.926.02 1.84.167 2.695.426 2.949.895 6.058 4.203 6.84 7.763.39 1.78.228 3.598-.732 5.261-.959 1.662-2.73 3.2-5.698 4.358l.002.005a36.345 36.345 0 0 0-3.508 1.436l-.04-.839a.48.48 0 0 0-.448-.471.563.563 0 0 0-.242.03l-1.643.577.008-2.408a.492.492 0 0 0-.155-.345c.099-.662.22-1.293.372-1.785.388-1.268 1.794-3.6 1.794-3.6s-1.768 2.107-2.22 3.348c-.15.413-.352 1.149-.557 1.95a.615.615 0 0 0-.258.248l-.815 1.487-.705-.703-.01-.009-1.179-1.116a.507.507 0 0 0-.367-.105.6.6 0 0 0-.365.172 54.202 54.202 0 0 0-1.354-4.987c.554-3.883 2.152-6.757 4.14-8.544 1.369-1.23 2.911-1.949 4.446-2.15Zm-16.894.927c.523.008.96.072 1.326.184.733.224 1.212.625 1.628 1.238.83 1.227 1.298 3.341 2.42 5.997 1.312 3.11 1.81 6.112 2.018 8.065a.609.609 0 0 0-.436.391c-.968-.437-1.953-.973-2.497-1.431-.07-.066-.2-.133-.261-.198-.007-.007-.01-.017-.017-.023-.101-.111-.297-.403-.51-.77a31.743 31.743 0 0 1-.682-1.263 65.251 65.251 0 0 1-.828-1.668.236.236 0 0 0-.085-.097.259.259 0 0 0-.124-.042.3.3 0 0 0-.307.234.263.263 0 0 0 .017.169c.017.061.705 2.377 2.09 3.804.009.009.019.032.027.04.003.004.01.007.014.01.03.032.05.075.082.105.116.11.328.214.478.323a18.516 18.516 0 0 0 2.26 1.725l-2.965-.884a.28.28 0 0 0-.194.017.305.305 0 0 0-.145.14.273.273 0 0 0-.023.192.239.239 0 0 0 .111.148l2.67 1.562.137.189c-.574.182-1.333.374-2.379.521-2.674.375-5.944.4-8.332-.873-2.514-1.339-3.973-2.394-4.662-3.687-.688-1.292-.68-2.909-.091-5.554.443-1.987.896-3.89 1.916-5.368 1.02-1.477 2.587-2.591 5.491-3.045.718-.112 1.33-.16 1.853-.151Zm12.258.222c-.151.121-.3.247-.447.379-1.606 1.444-2.94 3.499-3.76 6.107.66-3.291 2.241-5.311 4.14-6.449l.067-.037Zm-18.813.902a7.343 7.343 0 0 0-1.522 1.609c-1.166 1.69-1.622 3.715-2.066 5.708-.606 2.723-.654 4.605.167 6.147.542 1.015 1.436 1.845 2.707 2.682-1.847-1.108-3.001-2.09-3.61-3.213-.782-1.446-.79-3.258-.125-6.28.497-2.26 1-3.908 2.105-5.096.561-.604 1.306-1.124 2.344-1.557Zm33.13 15.826c.295-.001.584.004.868.017 3.407.156 6.019 1.338 7.429 2.882 1.88 2.059 1.837 4.887-1.722 7.36-1.666 1.157-2.73 2.478-3.574 3.625a9.361 9.361 0 0 1-.826.824c-.502.422-.933.622-1.554.626-.62.004-1.512-.213-2.856-.804-2.34-1.029-5.25-3.276-7.64-5.365a31.824 31.824 0 0 0-.65-.811l-.174-.321.268.065c.106.023.22.012.326-.031.608.423 1.236.78 1.817.965.977.311 3.703 1.52 3.703 1.52s-3.33-2.171-4.344-2.542a8.4 8.4 0 0 1-.8-.348.543.543 0 0 0 .013-.211l-.253-1.733.02-.042.41-.257c.049.007.097.014.143.018 1.677.161 10.271-1.147 10.271-1.147s-5.732.538-7.773.312a70.445 70.445 0 0 1-1.571-.215.492.492 0 0 0-.164-.337l-1.382-1.204-.001-.012c1.353-.67 2.912-1.362 4.507-1.892l.048-.016v.001c.924-.305 1.876-.576 2.672-.699.973-.15 1.905-.223 2.789-.228Zm-20.767 4.18-.409.31c-1.534.821-4.816 2.62-4.816 2.62s2.533-.86 3.312-1.171c.194-.078.569-.198 1.015-.334a.485.485 0 0 0 .276.15l2.263.305c.12.317.212.617.317.902l-.389 1.822-1.155 1.999a.14.14 0 0 0-.018.087.123.123 0 0 0 .119.108.15.15 0 0 0 .086-.025s.93-.618 1.406-1.18c.07-.083.135-.199.2-.341l2.276-.29 1.475 1.028a.542.542 0 0 0 .486.052c.11.351.18.654.184.869.014.608.485 2.736.024 3.18-.823.792-3.118 1.347-3.118 1.347s2.663-.218 3.625-1.37c.534-.64.178-2.272-.115-2.99-.163-.399-.315-.769-.458-1.113a.61.61 0 0 0 .165-.165l.956-1.494.098.04c.448.535.929 1.098 1.449 1.681.77.863 1.603 1.753 2.471 2.613.435.665.815 1.337 1.066 1.973.41 1.037.467 1.918.154 2.524-.703 1.36-1.479 2.061-2.343 2.421-.865.36-1.887.38-3.07.143-2.364-.474-5.245-1.986-8.257-3.163-2.88-1.126-5.95-2.22-8.31-3.691-2.362-1.471-3.975-3.253-4.2-5.836-.03-.362.044-.599.209-.837.165-.238.452-.481.874-.705.845-.446 2.191-.776 3.72-.982 2.723-.366 5.968-.382 8.432-.487Zm-13.72 6.14c.857 1.59 2.256 2.841 3.896 3.863 2.529 1.577 5.66 2.678 8.514 3.793 2.92 1.141 5.798 2.689 8.47 3.225 1.336.267 2.652.281 3.876-.229.326-.135.64-.31.94-.52-1.554 1.882-3.457 2.547-5.654 2.567-2.824.026-6.106-1.114-9.356-2.381-3.118-1.215-5.782-2.715-7.696-4.699-1.486-1.54-2.522-3.371-2.99-5.619Zm26.42 1.428c1.785 1.399 3.676 2.683 5.43 3.454 1.43.629 2.505.932 3.427.925.163-.001.31-.025.46-.046-.383.356-.762.585-1.164.677-.569.129-1.302.058-2.574-.501-1.53-.673-3.4-2.184-5.177-3.895-.13-.207-.264-.412-.402-.614ZM45.73 139.775c1.004.545 1.41.723 2.96 1.664 2.794 1.698 5.854 3.853 6.766 5.267.97 1.503 1.695 4.24 2.142 6.573.185.965.303 1.718.381 2.294a33.294 33.294 0 0 1-1.129-1.125c-.965-1.013-2.04-2.295-2.466-3.285-.331-.768-.084-1.787-.456-2.733-.092-.235-.314-.545-.607-.933a35.349 35.349 0 0 0-1.01-1.257 79.414 79.414 0 0 0-1.374-1.602l-.002-.003a.21.21 0 0 0-.152-.07.253.253 0 0 0-.167.06.244.244 0 0 0-.084.155.204.204 0 0 0 .047.159l.001.003.007.006c.007.009.646.752 1.324 1.589.341.42.69.862.969 1.24.278.378.491.712.537.831.149.387.13.858.11 1.358-.02.501-.042 1.033.174 1.52.54 1.219 2.445 3.614 3.58 4.67.359.334.614.494.833.547l.012.102c-.432-.109-.973-.212-2.131-.698-1.538-.644-3.296-1.659-4.21-3.025-.743-1.112-.76-3.548-1.562-6.156-.653-2.125-2.227-4.399-3.634-6.171-.454-.572-.474-.539-.86-.98Zm28.899 23.4c-.752.706-1.246 1.186-2.623 2.414a80.608 80.608 0 0 1-3.158 2.695 21.3 21.3 0 0 1-1.269.951c-.357.243-.653.4-.76.434-.55.175-1.258.489-1.994.714-.736.225-1.48.345-2.021.203-.835-.219-1.464-.71-1.924-1.168.918-.053 2.411-.282 3.024-.427.595-.141 1.65-.623 2.595-1.076a66.759 66.759 0 0 0 1.744-.867l.014-.006a.252.252 0 0 0 .117-.131.22.22 0 0 0 0-.167.198.198 0 0 0-.118-.11.232.232 0 0 0-.17.008l-.012.006c-.012.006-.82.369-1.764.772-.95.405-2.043.849-2.507.975-.69.189-1.694.232-2.512.22a20.85 20.85 0 0 1-.893-.033c.344-.208.874-.528 1.862-1.057 1.387-.742 3.064-1.533 3.983-1.724.866-.179 3.358-.977 5.726-1.747 1.385-.451 1.803-.593 2.66-.879Z"/>
</svg>
