<svg width="638" height="373" viewBox="0 0 638 373" fill="none" xmlns="http://www.w3.org/2000/svg">
<path d="M240.008 1.9032C189.742 11.7699 151.342 50.0365 140.008 101.237L137.208 114.037L121.208 114.837C86.9418 116.437 59.4752 128.703 36.4085 152.57C24.5418 164.97 19.8752 171.637 12.4085 186.57C3.47515 204.303 0.141818 219.503 0.00848513 242.437C-0.258182 272.037 5.74182 293.103 20.6752 315.77C38.5418 343.103 63.8752 361.237 95.8752 369.903C104.808 372.303 113.342 372.437 317.875 372.437H530.542C542.201 371.662 554.871 365.633 565.208 360.57C598.008 344.303 620.808 317.237 632.008 280.437C638.78 258.3 638.857 229.229 632.008 207.103C616.275 155.503 574.275 120.037 522.942 114.97C513.475 114.037 513.075 113.903 507.475 107.637C490.009 88.1699 462.409 73.3699 436.009 68.9699C423.609 67.1032 398.809 68.0365 388.542 70.9699C384.542 72.1699 380.009 73.3699 378.542 73.7699C376.275 74.3032 374.675 72.4365 369.209 62.7032C360.409 47.3699 339.209 25.9032 323.875 16.8365C312.142 9.90321 294.009 3.36987 280.542 1.23654C268.942 -0.630125 251.342 -0.363468 240.008 1.9032Z" fill="#FFF5DB"/>
</svg>
