<svg width="432" height="224" viewBox="0 0 432 224" fill="none" xmlns="http://www.w3.org/2000/svg">
<g filter="url(#filter0_d_56_425)">
<path d="M24 8L408 8V200H24L24 8Z" fill="url(#paint0_linear_56_425)"/>
<path d="M376 24L56 24C56 32.8366 48.8366 40 40 40V168C48.8366 168 56 175.163 56 184H376C376 175.163 383.163 168 392 168V40C383.163 40 376 32.8366 376 24Z" stroke="#750303" stroke-width="4"/>
<path d="M408 184V200L416 192L408 184Z" fill="#EDD1AF"/>
<path d="M408 168V184L416 176L408 168Z" fill="#EDD1AF"/>
<path d="M408 152V168L416 160L408 152Z" fill="#EDD1AF"/>
<path d="M408 136V152L416 144L408 136Z" fill="#EDD1AF"/>
<path d="M408 120V136L416 128L408 120Z" fill="#EDD1AF"/>
<path d="M408 104V120L416 112L408 104Z" fill="#EDD1AF"/>
<path d="M408 88V104L416 96L408 88Z" fill="#EDD1AF"/>
<path d="M408 72V88L416 80L408 72Z" fill="#EDD1AF"/>
<path d="M408 56V72L416 64L408 56Z" fill="#EDD1AF"/>
<path d="M408 40V56L416 48L408 40Z" fill="#EDD1AF"/>
<path d="M408 24V40L416 32L408 24Z" fill="#EDD1AF"/>
<path d="M408 8V24L416 16L408 8Z" fill="#EDD1AF"/>
<path d="M24 24L24 8L16 16L24 24Z" fill="#FFF0DF"/>
<path d="M24 40L24 24L16 32L24 40Z" fill="#FFF0DF"/>
<path d="M24 56L24 40L16 48L24 56Z" fill="#FFF0DF"/>
<path d="M24 72L24 56L16 64L24 72Z" fill="#FFF0DF"/>
<path d="M24 88L24 72L16 80L24 88Z" fill="#FFF0DF"/>
<path d="M24 104L24 88L16 96L24 104Z" fill="#FFF0DF"/>
<path d="M24 120L24 104L16 112L24 120Z" fill="#FFF0DF"/>
<path d="M24 136L24 120L16 128L24 136Z" fill="#FFF0DF"/>
<path d="M24 152L24 136L16 144L24 152Z" fill="#FFF0DF"/>
<path d="M24 168L24 152L16 160L24 168Z" fill="#FFF0DF"/>
<path d="M24 184L24 168L16 176L24 184Z" fill="#FFF0DF"/>
<path d="M24 200L24 184L16 192L24 200Z" fill="#FFF0DF"/>
</g>
<defs>
<filter id="filter0_d_56_425" x="0" y="0" width="432" height="224" filterUnits="userSpaceOnUse" color-interpolation-filters="sRGB">
<feFlood flood-opacity="0" result="BackgroundImageFix"/>
<feColorMatrix in="SourceAlpha" type="matrix" values="0 0 0 0 0 0 0 0 0 0 0 0 0 0 0 0 0 0 127 0" result="hardAlpha"/>
<feOffset dy="8"/>
<feGaussianBlur stdDeviation="8"/>
<feComposite in2="hardAlpha" operator="out"/>
<feColorMatrix type="matrix" values="0 0 0 0 0 0 0 0 0 0 0 0 0 0 0 0 0 0 0.05 0"/>
<feBlend mode="normal" in2="BackgroundImageFix" result="effect1_dropShadow_56_425"/>
<feBlend mode="normal" in="SourceGraphic" in2="effect1_dropShadow_56_425" result="shape"/>
</filter>
<linearGradient id="paint0_linear_56_425" x1="24.3942" y1="103.934" x2="408.394" y2="103.934" gradientUnits="userSpaceOnUse">
<stop stop-color="#FFF0DF"/>
<stop offset="1" stop-color="#EDD1AF"/>
</linearGradient>
</defs>
</svg>
